<svg width="317" height="446" viewBox="0 0 317 446" fill="none" xmlns="http://www.w3.org/2000/svg">
<mask id="path-1-outside-1_324_1172" maskUnits="userSpaceOnUse" x="0" y="0" width="317" height="446" fill="black">
<rect fill="white" width="317" height="446"/>
<path fill-rule="evenodd" clip-rule="evenodd" d="M251.423 2L248.727 9.11304L277.842 3.12074L276.887 2H315V74.6373L299.68 102.5H315V233.459L299.212 233.855L315 260.934V444H264.286L238.567 434.587L240.007 444H89.3736L77.2864 432.65L74.3738 444H2V290.497L9.8592 292.753L2 266.002V140.303L14.0611 113.246L2 114.254V2H34.7744L37.6106 17.9558L55.0414 2H251.423Z"/>
</mask>
<path fill-rule="evenodd" clip-rule="evenodd" d="M251.423 2L248.727 9.11304L277.842 3.12074L276.887 2H315V74.6373L299.68 102.5H315V233.459L299.212 233.855L315 260.934V444H264.286L238.567 434.587L240.007 444H89.3736L77.2864 432.65L74.3738 444H2V290.497L9.8592 292.753L2 266.002V140.303L14.0611 113.246L2 114.254V2H34.7744L37.6106 17.9558L55.0414 2H251.423Z" fill="url(#paint0_linear_324_1172)" fill-opacity="0.5"/>
<path d="M248.727 9.11304L246.857 8.40409L245.567 11.8052L249.13 11.072L248.727 9.11304ZM251.423 2L253.293 2.70895L254.32 0H251.423V2ZM277.842 3.12074L278.246 5.07968L281.558 4.39789L279.365 1.82358L277.842 3.12074ZM276.887 2V0H272.556L275.365 3.29716L276.887 2ZM315 2H317V0H315V2ZM315 74.6373L316.753 75.601L317 75.1509V74.6373H315ZM299.68 102.5L297.927 101.536L296.297 104.5H299.68V102.5ZM315 102.5H317V100.5H315V102.5ZM315 233.459L315.05 235.458L317 235.409V233.459H315ZM299.212 233.855L299.162 231.856L295.781 231.941L297.485 234.863L299.212 233.855ZM315 260.934H317V260.394L316.728 259.927L315 260.934ZM315 444V446H317V444H315ZM264.286 444L263.599 445.878L263.932 446H264.286V444ZM238.567 434.587L239.254 432.709L236.078 431.546L236.59 434.889L238.567 434.587ZM240.007 444V446H242.337L241.984 443.697L240.007 444ZM89.3736 444L88.0046 445.458L88.5818 446H89.3736V444ZM77.2864 432.65L78.6554 431.192L76.1898 428.877L75.3491 432.153L77.2864 432.65ZM74.3738 444V446H75.9253L76.311 444.497L74.3738 444ZM2 444H0V446H2V444ZM2 290.497L2.55191 288.575L0 287.842V290.497H2ZM9.8592 292.753L9.30729 294.676L12.8034 295.679L11.7781 292.19L9.8592 292.753ZM2 266.002H0V266.289L0.0810957 266.565L2 266.002ZM2 140.303L0.173275 139.489L0 139.877V140.303H2ZM14.0611 113.246L15.8878 114.06L17.2648 110.971L13.8945 111.253L14.0611 113.246ZM2 114.254H0V116.429L2.16662 116.247L2 114.254ZM2 2V0H0V2H2ZM34.7744 2L36.7435 1.64998L36.4502 0H34.7744V2ZM37.6106 17.9558L35.6415 18.3058L36.278 21.887L38.961 19.431L37.6106 17.9558ZM55.0414 2V0H54.2643L53.691 0.524744L55.0414 2ZM250.597 9.82199L253.293 2.70895L249.553 1.29105L246.857 8.40409L250.597 9.82199ZM277.439 1.16179L248.324 7.1541L249.13 11.072L278.246 5.07968L277.439 1.16179ZM275.365 3.29716L276.32 4.41789L279.365 1.82358L278.41 0.702842L275.365 3.29716ZM276.887 4H315V0H276.887V4ZM313 2V74.6373H317V2H313ZM313.247 73.6737L297.927 101.536L301.432 103.464L316.753 75.601L313.247 73.6737ZM299.68 104.5H315V100.5H299.68V104.5ZM313 102.5V233.459H317V102.5H313ZM314.95 231.459L299.162 231.856L299.263 235.855L315.05 235.458L314.95 231.459ZM297.485 234.863L313.272 261.941L316.728 259.927L300.94 232.848L297.485 234.863ZM313 260.934V444H317V260.934H313ZM315 442H264.286V446H315V442ZM264.974 442.122L239.254 432.709L237.879 436.465L263.599 445.878L264.974 442.122ZM236.59 434.889L238.03 444.303L241.984 443.697L240.543 434.284L236.59 434.889ZM240.007 442H89.3736V446H240.007V442ZM90.7426 442.542L78.6554 431.192L75.9173 434.108L88.0046 445.458L90.7426 442.542ZM75.3491 432.153L72.4366 443.503L76.311 444.497L79.2236 433.147L75.3491 432.153ZM74.3738 442H2V446H74.3738V442ZM4 444V290.497H0V444H4ZM1.44809 292.419L9.30729 294.676L10.4111 290.831L2.55191 288.575L1.44809 292.419ZM11.7781 292.19L3.9189 265.438L0.0810957 266.565L7.9403 293.317L11.7781 292.19ZM4 266.002V140.303H0V266.002H4ZM3.82673 141.117L15.8878 114.06L12.2344 112.432L0.173275 139.489L3.82673 141.117ZM13.8945 111.253L1.83338 112.261L2.16662 116.247L14.2277 115.239L13.8945 111.253ZM4 114.254V2H0V114.254H4ZM2 4H34.7744V0H2V4ZM32.8052 2.35002L35.6415 18.3058L39.5797 17.6058L36.7435 1.64998L32.8052 2.35002ZM38.961 19.431L56.3918 3.47526L53.691 0.524744L36.2602 16.4805L38.961 19.431ZM55.0414 4H251.423V0H55.0414V4Z" fill="#FCEFDE" mask="url(#path-1-outside-1_324_1172)"/>
<defs>
<linearGradient id="paint0_linear_324_1172" x1="329.318" y1="479.266" x2="-151.067" y2="90.1106" gradientUnits="userSpaceOnUse">
<stop stop-color="white" stop-opacity="0.44"/>
<stop offset="1" stop-color="white" stop-opacity="0.21"/>
</linearGradient>
</defs>
</svg>
