<svg width="1440" height="133" viewBox="0 0 1440 133" fill="none" xmlns="http://www.w3.org/2000/svg">
<path fill-rule="evenodd" clip-rule="evenodd" d="M1410.27 4.05592L1418.94 0H1138.07L1101.47 10.3777L1112.44 0H869.728L856.641 16.8928L851.941 0H587.633L599.842 5.98486L528.653 0H273.358L271.108 5.71414L224.789 0H-27.2965L-46.7734 10.7974L-65.7145 0H-188V133H-74.7637L-90.2468 125.025L-9.1196 133H263.32L262.134 118.748L274.499 133H609.993L636.473 115.294L627.018 133H866.195L866.451 131.696L949.794 132.418L947.304 133H1175.55L1194.69 119.063L1203.46 133H1456.91L1512.93 122.156L1508.22 133H1628V86.9954L1619.77 93.5855L1624.66 33.4982L1628 34.834V0H1467.39L1410.27 4.05592Z" fill="#FCEFDE"/>
</svg>
