<svg width="110" height="110" viewBox="0 0 110 110" fill="none" xmlns="http://www.w3.org/2000/svg">
<mask id="path-1-inside-1_330_1768" fill="white">
<path fill-rule="evenodd" clip-rule="evenodd" d="M97.2635 3.02312L88.5917 2.70268L90.052 0H62.6378L62.9239 0.221066L55.4953 4.40107L55.7574 0H24.6842L21.6985 6.29965L18.3504 0H0V14.4594L4.35712 18.493L0 20.4307V46.5438L4.01835 47.1281L0 53.2111V78.9681L2.42477 77.8349L1.19786 88.0308L0 86.9599V110H14.3245L18.3151 102.406L21.9574 110H49.3266L48.4915 104.659L56.8975 108.14L54.9817 110H81.6831L80.7917 109.206L89.9075 104.923L89.3051 110H110V97.9488L105.523 96.6711L110 91.3312V67.4757L108.787 68.0444L110 57.8765V33.3012L105.368 26.4472L110 25.714V0H95.8557L97.2635 3.02312Z"/>
</mask>
<path fill-rule="evenodd" clip-rule="evenodd" d="M97.2635 3.02312L88.5917 2.70268L90.052 0H62.6378L62.9239 0.221066L55.4953 4.40107L55.7574 0H24.6842L21.6985 6.29965L18.3504 0H0V14.4594L4.35712 18.493L0 20.4307V46.5438L4.01835 47.1281L0 53.2111V78.9681L2.42477 77.8349L1.19786 88.0308L0 86.9599V110H14.3245L18.3151 102.406L21.9574 110H49.3266L48.4915 104.659L56.8975 108.14L54.9817 110H81.6831L80.7917 109.206L89.9075 104.923L89.3051 110H110V97.9488L105.523 96.6711L110 91.3312V67.4757L108.787 68.0444L110 57.8765V33.3012L105.368 26.4472L110 25.714V0H95.8557L97.2635 3.02312Z" fill="#81451E"/>
<path d="M88.5917 2.70268L87.7119 2.22733L86.9473 3.64259L88.5548 3.702L88.5917 2.70268ZM97.2635 3.02312L97.2266 4.02244L98.8601 4.08281L98.17 2.60097L97.2635 3.02312ZM90.052 0L90.9318 0.475348L91.7289 -1H90.052V0ZM62.6378 0V-1H59.7086L62.0263 0.791235L62.6378 0ZM62.9239 0.221066L63.4143 1.09257L64.7293 0.352585L63.5354 -0.570169L62.9239 0.221066ZM55.4953 4.40107L54.4971 4.34162L54.3881 6.17154L55.9857 5.27258L55.4953 4.40107ZM55.7574 0L56.7557 0.0594527L56.8188 -1H55.7574V0ZM24.6842 0V-1H24.0515L23.7805 -0.428274L24.6842 0ZM21.6985 6.29965L20.8155 6.76896L21.7497 8.52668L22.6022 6.72793L21.6985 6.29965ZM18.3504 0L19.2334 -0.46931L18.9514 -1H18.3504V0ZM0 0V-1H-1V0H0ZM0 14.4594H-1V14.8964L-0.679337 15.1932L0 14.4594ZM4.35712 18.493L4.76347 19.4067L6.15004 18.7901L5.03646 17.7592L4.35712 18.493ZM0 20.4307L-0.406354 19.517L-1 19.781V20.4307H0ZM0 46.5438H-1V47.4089L-0.143879 47.5334L0 46.5438ZM4.01835 47.1281L4.85274 47.6792L5.72085 46.3651L4.16223 46.1385L4.01835 47.1281ZM0 53.2111L-0.834386 52.6599L-1 52.9106V53.2111H0ZM0 78.9681H-1V80.5392L0.423371 79.874L0 78.9681ZM2.42477 77.8349L3.4176 77.9544L3.63273 76.1666L2.00139 76.929L2.42477 77.8349ZM1.19786 88.0308L0.531373 88.7763L1.96151 90.0548L2.1907 88.1502L1.19786 88.0308ZM0 86.9599L0.666488 86.2144L-1 84.7245V86.9599H0ZM0 110H-1V111H0V110ZM14.3245 110V111H14.9287L15.2097 110.465L14.3245 110ZM18.3151 102.406L19.2167 101.973L18.3559 100.179L17.4299 101.941L18.3151 102.406ZM21.9574 110L21.0558 110.432L21.328 111H21.9574V110ZM49.3266 110V111H50.4951L50.3146 109.846L49.3266 110ZM48.4915 104.659L48.8741 103.735L47.2283 103.054L47.5035 104.814L48.4915 104.659ZM56.8975 108.14L57.5941 108.857L58.6853 107.798L57.2801 107.216L56.8975 108.14ZM54.9817 110L54.285 109.283L52.5162 111H54.9817V110ZM81.6831 110V111H84.3098L82.3482 109.253L81.6831 110ZM80.7917 109.206L80.3664 108.301L78.9952 108.945L80.1267 109.953L80.7917 109.206ZM89.9075 104.923L90.9005 105.041L91.1128 103.252L89.4822 104.018L89.9075 104.923ZM89.3051 110L88.3121 109.882L88.1795 111H89.3051V110ZM110 110V111H111V110H110ZM110 97.9488H111V97.1943L110.274 96.9872L110 97.9488ZM105.523 96.6711L104.756 96.0286L103.766 97.2098L105.248 97.6328L105.523 96.6711ZM110 91.3312L110.766 91.9737L111 91.695V91.3312H110ZM110 67.4757H111V65.9023L109.575 66.5704L110 67.4757ZM108.787 68.0444L107.794 67.926L107.581 69.7145L109.212 68.9498L108.787 68.0444ZM110 57.8765L110.993 57.9949L111 57.9359V57.8765H110ZM110 33.3012H111V32.995L110.829 32.7413L110 33.3012ZM105.368 26.4472L105.212 25.4595L103.659 25.7051L104.539 27.0071L105.368 26.4472ZM110 25.714L110.156 26.7018L111 26.5682V25.714H110ZM110 0H111V-1H110V0ZM95.8557 0V-1H94.2869L94.9492 0.422152L95.8557 0ZM88.5548 3.702L97.2266 4.02244L97.3004 2.02381L88.6286 1.70336L88.5548 3.702ZM89.1722 -0.475348L87.7119 2.22733L89.4715 3.17803L90.9318 0.475348L89.1722 -0.475348ZM62.6378 1H90.052V-1H62.6378V1ZM63.5354 -0.570169L63.2493 -0.791235L62.0263 0.791235L62.3124 1.0123L63.5354 -0.570169ZM55.9857 5.27258L63.4143 1.09257L62.4335 -0.650437L55.0049 3.52957L55.9857 5.27258ZM54.7592 -0.0594527L54.4971 4.34162L56.4935 4.46053L56.7557 0.0594527L54.7592 -0.0594527ZM24.6842 1H55.7574V-1H24.6842V1ZM22.6022 6.72793L25.5878 0.428274L23.7805 -0.428274L20.7949 5.87138L22.6022 6.72793ZM17.4674 0.46931L20.8155 6.76896L22.5815 5.83034L19.2334 -0.46931L17.4674 0.46931ZM0 1H18.3504V-1H0V1ZM1 14.4594V0H-1V14.4594H1ZM-0.679337 15.1932L3.67778 19.2268L5.03646 17.7592L0.679337 13.7256L-0.679337 15.1932ZM3.95077 17.5793L-0.406354 19.517L0.406354 21.3444L4.76347 19.4067L3.95077 17.5793ZM1 46.5438V20.4307H-1V46.5438H1ZM4.16223 46.1385L0.143879 45.5542L-0.143879 47.5334L3.87447 48.1176L4.16223 46.1385ZM0.834386 53.7623L4.85274 47.6792L3.18397 46.5769L-0.834386 52.6599L0.834386 53.7623ZM1 78.9681V53.2111H-1V78.9681H1ZM2.00139 76.929L-0.423371 78.0621L0.423371 79.874L2.84814 78.7409L2.00139 76.929ZM2.1907 88.1502L3.4176 77.9544L1.43193 77.7155L0.205024 87.9113L2.1907 88.1502ZM-0.666488 87.7054L0.531373 88.7763L1.86435 87.2853L0.666488 86.2144L-0.666488 87.7054ZM1 110V86.9599H-1V110H1ZM14.3245 109H0V111H14.3245V109ZM17.4299 101.941L13.4393 109.535L15.2097 110.465L19.2003 102.871L17.4299 101.941ZM22.8591 109.568L19.2167 101.973L17.4134 102.838L21.0558 110.432L22.8591 109.568ZM49.3266 109H21.9574V111H49.3266V109ZM47.5035 104.814L48.3386 110.154L50.3146 109.846L49.4795 104.505L47.5035 104.814ZM57.2801 107.216L48.8741 103.735L48.1089 105.583L56.515 109.064L57.2801 107.216ZM55.6783 110.717L57.5941 108.857L56.2009 107.422L54.285 109.283L55.6783 110.717ZM81.6831 109H54.9817V111H81.6831V109ZM80.1267 109.953L81.0181 110.747L82.3482 109.253L81.4567 108.459L80.1267 109.953ZM89.4822 104.018L80.3664 108.301L81.217 110.111L90.3328 105.828L89.4822 104.018ZM90.2982 110.118L90.9005 105.041L88.9145 104.805L88.3121 109.882L90.2982 110.118ZM110 109H89.3051V111H110V109ZM109 97.9488V110H111V97.9488H109ZM105.248 97.6328L109.726 98.9105L110.274 96.9872L105.797 95.7095L105.248 97.6328ZM109.234 90.6887L104.756 96.0286L106.289 97.3137L110.766 91.9737L109.234 90.6887ZM109 67.4757V91.3312H111V67.4757H109ZM109.212 68.9498L110.425 68.3811L109.575 66.5704L108.363 67.139L109.212 68.9498ZM109.007 57.7581L107.794 67.926L109.78 68.1628L110.993 57.9949L109.007 57.7581ZM109 33.3012V57.8765H111V33.3012H109ZM104.539 27.0071L109.171 33.8611L110.829 32.7413L106.196 25.8873L104.539 27.0071ZM109.844 24.7263L105.212 25.4595L105.524 27.4349L110.156 26.7018L109.844 24.7263ZM109 0V25.714H111V0H109ZM95.8557 1H110V-1H95.8557V1ZM98.17 2.60097L96.7622 -0.422152L94.9492 0.422152L96.357 3.44528L98.17 2.60097Z" fill="#FCEFDE" mask="url(#path-1-inside-1_330_1768)"/>
</svg>
