<svg width="288" height="295" viewBox="0 0 288 295" fill="none" xmlns="http://www.w3.org/2000/svg">
<mask id="path-1-outside-1_320_2069" maskUnits="userSpaceOnUse" x="0" y="0" width="288" height="295" fill="black">
<rect fill="white" width="288" height="295"/>
<path fill-rule="evenodd" clip-rule="evenodd" d="M194.759 2H90.8409L80.2772 17.172L69.3813 2H2V36.9383L11.5281 40.869L2 51.4938V124.7L5.12426 139.307L2 138.901V226.365L18.0021 237.731L2 248.998V293H286V259.356L271.344 261.203L286 245.964V136.764L280.287 120.181L286 120.227V58.6714L275.391 56.1684L286 39.6694V2H217.83L196.735 13.7132L194.759 2Z"/>
</mask>
<path fill-rule="evenodd" clip-rule="evenodd" d="M194.759 2H90.8409L80.2772 17.172L69.3813 2H2V36.9383L11.5281 40.869L2 51.4938V124.7L5.12426 139.307L2 138.901V226.365L18.0021 237.731L2 248.998V293H286V259.356L271.344 261.203L286 245.964V136.764L280.287 120.181L286 120.227V58.6714L275.391 56.1684L286 39.6694V2H217.83L196.735 13.7132L194.759 2Z" fill="url(#paint0_linear_320_2069)" fill-opacity="0.3"/>
<path d="M90.8409 2V0H89.7964L89.1996 0.857192L90.8409 2ZM194.759 2L196.731 1.66733L196.45 0H194.759V2ZM80.2772 17.172L78.6527 18.3386L80.3025 20.6358L81.9185 18.3148L80.2772 17.172ZM69.3813 2L71.0058 0.833362L70.4073 0H69.3813V2ZM2 2V0H0V2H2ZM2 36.9383H0V38.2768L1.23729 38.7872L2 36.9383ZM11.5281 40.869L13.0171 42.2042L14.9053 40.0987L12.2908 39.0201L11.5281 40.869ZM2 51.4938L0.51103 50.1585L0 50.7284V51.4938H2ZM2 124.7H0V124.912L0.0442375 125.119L2 124.7ZM5.12426 139.307L4.86686 141.29L7.67158 141.654L7.08002 138.889L5.12426 139.307ZM2 138.901L2.2574 136.918L0 136.625V138.901H2ZM2 226.365H0V227.398L0.841905 227.996L2 226.365ZM18.0021 237.731L19.1536 239.366L21.4661 237.738L19.1602 236.1L18.0021 237.731ZM2 248.998L0.848593 247.362L0 247.96V248.998H2ZM2 293H0V295H2V293ZM286 293V295H288V293H286ZM286 259.356H288V257.089L285.75 257.372L286 259.356ZM271.344 261.203L269.902 259.817L265.98 263.895L271.594 263.187L271.344 261.203ZM286 245.964L287.441 247.351L288 246.77V245.964H286ZM286 136.764H288V136.429L287.891 136.113L286 136.764ZM280.287 120.181L280.303 118.181L277.475 118.159L278.396 120.833L280.287 120.181ZM286 120.227L285.984 122.227L288 122.243V120.227H286ZM286 58.6714H288V57.0884L286.459 56.7249L286 58.6714ZM275.391 56.1684L273.708 55.0867L272.179 57.4656L274.931 58.115L275.391 56.1684ZM286 39.6694L287.682 40.7512L288 40.257V39.6694H286ZM286 2H288V0H286V2ZM217.83 2V0H217.312L216.859 0.251476L217.83 2ZM196.735 13.7132L194.763 14.0459L195.233 16.8347L197.706 15.4618L196.735 13.7132ZM90.8409 4H194.759V0H90.8409V4ZM81.9185 18.3148L92.4823 3.14281L89.1996 0.857192L78.6359 16.0292L81.9185 18.3148ZM67.7568 3.16664L78.6527 18.3386L81.9017 16.0053L71.0058 0.833362L67.7568 3.16664ZM2 4H69.3813V0H2V4ZM4 36.9383V2H0V36.9383H4ZM12.2908 39.0201L2.76271 35.0895L1.23729 38.7872L10.7654 42.7178L12.2908 39.0201ZM3.48897 52.8291L13.0171 42.2042L10.0392 39.5337L0.51103 50.1585L3.48897 52.8291ZM4 124.7V51.4938H0V124.7H4ZM7.08002 138.889L3.95576 124.282L0.0442375 125.119L3.1685 139.725L7.08002 138.889ZM1.7426 140.885L4.86686 141.29L5.38165 137.324L2.2574 136.918L1.7426 140.885ZM4 226.365V138.901H0V226.365H4ZM19.1602 236.1L3.1581 224.735L0.841905 227.996L16.844 239.361L19.1602 236.1ZM3.15141 250.633L19.1536 239.366L16.8507 236.095L0.848593 247.362L3.15141 250.633ZM4 293V248.998H0V293H4ZM286 291H2V295H286V291ZM284 259.356V293H288V259.356H284ZM285.75 257.372L271.094 259.219L271.594 263.187L286.25 261.341L285.75 257.372ZM272.785 262.589L287.441 247.351L284.559 244.578L269.902 259.817L272.785 262.589ZM284 136.764V245.964H288V136.764H284ZM278.396 120.833L284.109 137.416L287.891 136.113L282.178 119.53L278.396 120.833ZM286.016 118.227L280.303 118.181L280.271 122.181L285.984 122.227L286.016 118.227ZM284 58.6714V120.227H288V58.6714H284ZM274.931 58.115L285.541 60.618L286.459 56.7249L275.85 54.2219L274.931 58.115ZM284.318 38.5877L273.708 55.0867L277.073 57.2501L287.682 40.7512L284.318 38.5877ZM284 2V39.6694H288V2H284ZM217.83 4H286V0H217.83V4ZM197.706 15.4618L218.801 3.74852L216.859 0.251476L195.764 11.9647L197.706 15.4618ZM192.787 2.33267L194.763 14.0459L198.707 13.3806L196.731 1.66733L192.787 2.33267Z" fill="#FCEFDE" mask="url(#path-1-outside-1_320_2069)"/>
<defs>
<linearGradient id="paint0_linear_320_2069" x1="298.991" y1="316.218" x2="-22.369" y2="-42.5627" gradientUnits="userSpaceOnUse">
<stop stop-color="white" stop-opacity="0.44"/>
<stop offset="1" stop-color="white" stop-opacity="0.21"/>
</linearGradient>
</defs>
</svg>
