<svg width="1440" height="400" fill="none" xmlns="http://www.w3.org/2000/svg"><g clip-path="url(#a)"><path d="M1696.14-616.206c-36.33.507-72.49.507-108.83-.677-38.02-1.183-76.04-3.382-113.9-8.117 1.19 24.859 2.37 49.719 3.72 74.578 6.25 70.857 35.83 385.403 31.6 392.506.34 4.396-1.18 15.558.85 18.771-25.01-26.889-50.02-53.947-68.61-85.57 20.45-6.426 27.71-38.219 7.43-49.719-1.35 3.044-2.87 6.257-4.22 9.301 4.9-16.403 4.73-34.498-1.02-50.564-8.28 19.11-12.16 40.08-10.98 60.88-4.9-31.793-27.54-60.372-57.29-72.548 5.75 16.742 13.69 32.638 23.49 47.351-7.6-4.228-16.73-5.581-25.01-2.537 3.04 2.537 6.09 5.242 8.96 7.948 25.52 23.168 48.67 49.042 68.78 76.945 9.46 13.191 16.9 29.426 27.88 41.263 10.31 11.162 19.94 21.308 29.07 33.823 3.38 4.735 6.76 9.301 9.12 14.712 3.55 8.287 4.06 17.419 4.4 26.382 1.18 23.675 2.36 47.35 3.04 71.026.67 29.087-.68 57.836-.68 86.754-.67-7.441-2.53-14.882-5.58-21.646-1.01-2.368-2.53-5.074-4.9-6.088-15.04-6.765-9.46 24.859-9.12 30.44 1.01 16.403 2.2 32.807 3.72 49.211.33 3.72 1.01 7.779 4.05 9.808 1.35.846 3.04 1.184 4.06 2.368.84 1.014 1.01 2.367 1.18 3.72 3.89 29.933 2.87 60.373-2.53 90.136-1.52-13.867.33-27.565-1.86-41.432-2.2-14.036-5.92-27.734-10.65-41.094-8.79-24.69-22.14-47.689-39.04-67.644-1.35-1.691-2.87-3.382-5.07-4.059-3.54-1.184-7.43.846-9.46 4.059-2.03 3.044-2.53 6.933-2.87 10.654-2.37 26.381 2.03 53.27 13.01 77.283-2.37-3.72-4.56-7.61-6.93-11.33-1.35-2.198-3.38-4.566-5.74-3.89-2.2.677-2.71 3.213-2.88 5.581a58.578 58.578 0 0 0 6.43 30.609c.5.846 1.01 1.691 1.35 2.537-5.58-9.132-11.66-17.588-22.14-22.323-12-5.411-29.07-1.353-32.78 11.331-2.2 7.609 1.01 15.727 4.22 22.998 14.87 34.161 26.19 68.659 31.94 105.695-6.42-32.977-14.36-58.682-32.78-86.754-3.38-5.073-15.38-15.051-21.13-17.588 28.39 24.86 40.9 63.586 44.28 101.129-4.57-40.08-38.03-77.284-69.8-99.945-3.71-2.706-8.11-5.242-12.67-4.735-5.07.507-8.96 5.073-10.31 9.978-1.35 4.904-.34 10.146 1.18 15.05 5.07 16.573 18.42 33.484 32.11 43.969 12.51 9.47 31.1 18.264 29.58 37.205 0 .845-.17 1.691-.51 2.367-6.08 13.191-19.77-18.264-22.48-21.984-8.78-12.176-19.6-22.83-31.09-32.47-19.27-16.234-34.81-34.16-59.48-46.674 27.88 16.911 51.88 40.079 69.45 67.644 6.59 10.147 12.34 21.985 10.14 33.822-7.77-11.837-15.72-23.675-23.49-35.513-2.2-3.213-4.56-6.595-8.11-7.948-10.82-3.551-9.8 8.117-7.1 16.234-5.58-11.499-12.5-22.491-22.98-29.256-2.87-1.86-6.09-3.382-9.47-3.382-21.63 0-7.43 38.219-5.57 48.704-5.24-3.89-7.1-10.654-10.14-16.573-4.23-8.455-10.99-15.389-19.27-19.786-3.38-1.86-7.26-3.213-10.81-2.198-6.59 1.691-9.46 10.146-7.44 16.573 2.03 6.426 7.44 11.33 12.51 15.727 2.87 2.537 5.74 5.073 9.12 6.595 3.89 1.86 7.95 1.86 12.17 2.199-6.42 5.411-13.18.338-19.6-2.368-6.93-2.875-14.87-2.537-22.48-2.029 5.24-.169 14.2 1.184 18.59 4.059 1.02.676 10.48 9.977 7.61 10.653-16.23 3.383-34.14-4.396-42.76-18.602 5.92 7.441 10.14 16.066 12.68 25.367-23.16-12.683-19.61-35.683-9.64-54.792 10.31-20.124 21.63-48.366 41.24-61.725-28.22 19.278-44.62 45.152-58.47 75.592 1.35-7.61 5.24-14.713 8.62-21.646 10.3-20.97 17.23-43.461 23.15-65.953 4.39-16.404 9.46-40.418 20.95-53.608-24.84 28.241-44.1 61.387-56.1 97.069 10.47-32.976 17.57-67.137 21.29-101.635-3.72 34.667-16.9 68.828-29.07 101.128-4.73 12.345-8.95 24.521-12.33 37.373-1.86 6.934-5.58 43.293-14.54 39.91-1.52-.507-2.7-2.029-3.71-3.382-8.96-11.668-28.22-28.241-32.11-42.108-3.89-13.867 12-28.411 18.93-38.727 3.04-4.566 6.25-9.639 5.23-14.881-2.02-10.654-19.26-10.654-25.51-1.861-4.23 6.088-4.9 13.529-4.4 20.97-1.18-1.86-2.87-3.382-4.73-4.228-5.24-2.367-12.33 0-15.04 5.074-.67-15.051-15.38-28.073-30.42-26.889 6.93 25.705 21.97 49.211 42.25 66.461-9.29 1.691-18.59-3.044-26.53-7.949-8.11-4.904-16.39-10.654-25.86-10.992-9.46-.507-19.94 6.934-18.75 16.404 22.98-4.397 47.82-3.213 68.27 8.117 13.01 7.272 26.02 20.801 29.57 35.683 5.24 21.477-11.83 24.351-29.07 33.314-37.51 19.617-76.89 35.345-117.443 47.182 28.563 20.632 49.173 20.124 83.653 25.705 71.82 11.5 144.99 7.103 217.15 5.75a2398.934 2398.934 0 0 1 407.6 27.227c-6.76-2.875-10.82-12.515-12.34-20.632-12.67-68.49 10.99-137.825 18.08-207.16 6.26-61.218-.5-122.944 2.37-184.33 3.21-68.322 18.42-135.459 24-203.61 7.09-88.107-2.37-176.721-11.83-264.658-6.93-64.093-13.69-127.51-20.62-191.095zm-242.5 814.944c1.86 3.044 3.72 5.919 5.41 9.132-2.03-2.875-3.72-6.088-5.41-9.132zM659.138 375.324c30.997 12.359 72.988 18.768 106.275 18.157 12.52-.305 27.179-2.136 37.867-9.155 3.207-2.136 20.767-19.531 21.377-19.378-10.23-3.815-20.613-7.629-29.317-14.343-8.703-6.713-15.574-16.631-15.727-27.465.153 6.104-3.054 24.414-12.979 13.58-2.138-2.441-3.054-5.646-4.123-8.85-4.275-12.664-13.131-23.498-23.972-31.279-10.842-7.782-23.515-12.817-36.647-15.717 18.018 5.646 34.356 16.327 46.724 30.517 7.024 7.935 14.506 19.531 12.368 30.67-1.679.152-12.368-.153-12.826 1.831.916-4.273 4.276-7.782 7.482-10.834-4.886 3.51-8.551 8.697-10.078 14.496.764-5.646-1.984-15.717-4.275-21.057-.611-1.221-1.221-2.594-.916-3.967.305-1.373 2.29-2.289 3.054-1.068.305.457.305 1.068.458 1.526.611 3.814 5.039 5.95 8.703 5.34 3.818-.61 6.872-3.052 9.773-5.493-4.886 2.594-11.299 1.984-15.728-1.373-1.527-1.221-3.054-2.747-5.039-2.442-1.832.153-3.206 2.137-3.359 3.968-.152 1.831.611 3.662 1.222 5.34.458 1.373 1.069 2.594 1.527 3.967-4.581-8.239-9.009-16.174-19.087-18.31-3.206-.763-6.566 0-9.925.61-1.985.458-3.97.763-5.955 1.221.611 1.221 1.985 1.984 3.207 2.441 2.901.916 6.107.458 9.161-.152 3.054-.458 6.261-1.068 9.162-.458 4.886 1.068 10.383 9.003 11.299 13.733.611 2.899-.153 6.256-2.596 8.087-6.108 4.577-21.377-1.679-27.637-4.273-7.788-3.204-17.102-7.934-21.377-15.563-3.207-5.798 1.679-9.155 3.817-14.648 1.985-5.036 1.527-10.223 1.527-15.716 0-.916 0-1.984-.611-2.747-.458-.61-1.221-1.068-1.985-1.221-5.802-2.136-11.146.306-10.688 6.867.763 10.223 2.443 20.293 5.039 30.059a56.893 56.893 0 0 0-11.91-25.94c-2.138-2.594-4.581-5.035-7.788-5.798-3.206-.763-7.176.763-8.093 3.967-.916 3.357 1.68 6.409 4.123 8.85 3.817 3.967 7.788 7.935 11.605 11.902 7.176 7.324-2.291 21.667-5.955 28.991 3.206-6.256-13.59-32.501-16.949-37.688 1.985 4.577 13.59 37.535 2.29 34.483-3.664-.915-6.565-4.272-7.176-8.087-.306 1.374-1.985 2.289-3.207 1.832 1.374-1.832.305-5.036-1.985-5.493.611-5.341 1.985-10.529 3.97-15.411-5.649 9.155-8.703 19.988-8.703 30.669.763-5.798-1.222-11.902-4.428-16.784-3.207-4.883-7.635-9.003-11.911-13.123-2.443-2.288-5.038-4.73-8.398-5.493 10.994 6.714 18.018 19.226 18.171 32.043-3.207 1.068-6.261-1.678-8.398-4.272-3.512-4.273-6.719-8.85-8.551-14.038-7.177-19.836 14.048-29.296 30.233-32.958-12.368-.916-24.889 2.441-35.272 9.155-5.344 3.357-10.383 8.545-10.383 14.801-1.68-9.156-4.123-18.158-7.024-26.855a80.905 80.905 0 0 0 1.374 24.261c-3.97-8.698-15.88-9.003-25.347-8.087 6.566 0 13.437.305 18.934 3.814 5.65 3.357 9.162 10.834 6.413 16.784-1.374 2.9-3.97 5.036-6.718 6.867-8.398 5.493-18.934 7.324-28.707 8.392-5.038.458-23.82 4.272-26.568-.763-1.222-2.136-.916-5.035.305-7.324 1.222-2.289 3.054-3.967 5.039-5.646 5.497-4.882 11.452-9.46 17.56-13.58-13.895 5.799-25.194 16.479-31.913 29.754-1.221-6.103-10.23-8.545-15.269-10.833 2.596 1.22 4.886 3.357 6.26 5.951 4.428 8.392-14.353 8.392-18.476 8.697-5.649.458-11.604.763-16.643-1.831-26.111-13.122 36.951-39.672 46.877-42.876-16.339 5.493-32.829 11.138-47.793 19.683-7.177 4.12-13.895 8.85-20.003 14.648-.306.305-14.659 14.648-14.964 12.054-1.832-15.563-10.383-29.448-18.629-42.571 4.887 7.019 19.24 32.501 8.399 38.909-1.985 1.068-4.123 1.679-6.261 1.984-7.635 1.373-15.269 2.594-22.904 1.068-2.748-.61-13.742-1.068-15.88-3.052-.458-.458-.458-1.068-.305-1.678.458-2.594 2.443-4.883 5.039-5.493-6.872 1.068-11.147 9.155-18.171 10.07-2.29.305-4.733-.152-6.871-.763-3.054-.763-12.674-.61-14.659-1.678-3.054-1.678-5.955-7.171.306-8.087-5.497.763-10.383 4.73-12.368 9.918-1.833-4.883-5.497-9.002-10.078-11.291 1.374 1.831 2.138 4.272 1.985 6.561 0 .61-.153 1.373-.458 1.831-.458.763-1.374 1.068-2.291 1.221-4.275.457-8.092-3.357-8.856-7.63-.763-4.272.764-8.544 2.443-12.359 3.97-8.85 9.162-14.648 15.575-21.362 5.65-5.95 9.62-14.342 17.407-18.004-15.422 7.171-27.943 20.446-34.051 36.314-1.527-8.239 1.833-16.479 4.429-24.413 1.679-5.035 4.58-13.885 2.137-19.073-2.748-5.493-8.856-5.34-11.299 1.373-1.222 3.51-.458 7.477.763 10.986 1.222 3.51 3.054 6.867 3.818 10.529 1.069 5.493-.153 11.291-1.68 16.784-1.832 6.561-3.97 13.122-6.26 19.531 1.832-6.562 2.29-13.58-.153-19.989-2.29-6.408-7.787-11.749-14.506-12.817 3.207 5.035 6.413 10.071 7.94 15.869 1.527 5.645.916 12.206-2.748 16.784-4.734 5.798-12.826 6.866-20.308 7.629.458-2.899 1.221-5.645 2.443-8.239-5.497 12.359-21.988 13.427-32.066 6.256-9.772-6.867-13.742-23.956-10.536-34.79 1.68-5.493 5.192-10.833 10.536-13.122 9.009-4.119 20.308.916 29.317-3.509-2.748-2.747-5.497-5.493-8.856-7.324-3.359-1.831-7.482-2.747-11.147-1.373-2.595.915-4.733 2.746-6.718 4.73-8.551 7.781-13.59 12.359-16.644 23.345-1.527 5.493-1.527 19.683-9.161 19.683-4.734-.305-7.788-10.528-10.231-14.037-4.275-6.104-9.619-11.597-15.727-16.022 5.039 4.578 8.703 10.681 10.383 17.395 1.527 6.256 1.985 27.16-9.467 25.024-3.206-.611-5.191-3.968-5.344-7.172-.153-3.204 1.221-6.256 2.596-9.155 10.535-21.819 26.721-40.892 46.724-54.777-11.147 7.629-22.293 15.868-31.455 25.939-3.97 4.425-7.94 9.307-11.299 14.037-3.97 5.493-5.955 12.817-9.62 18.768-.916 1.679-1.985 3.205-3.512 4.425-13.895 10.986-29.622-18.31-12.673-25.024-10.689 4.12-18.018 15.717-17.407 27.16-5.345-4.425-10.842-14.8-5.497-20.751 10.23-11.444 23.82-19.988 38.631-24.108-13.284 3.814-28.554 9.765-37.715 20.599-10.231 11.901-14.201 27.465-27.79 36.772 20.613 6.104 40.921 5.951 61.382 10.223 22.293 4.578 45.045 8.24 67.796 7.019 24.125-1.373 47.029-7.782 71.308-7.934 25.041-.153 49.93 2.594 74.819 2.746 34.967.306 70.239-5.645 105.206-8.392 28.859-2.136 57.87-3.204 86.882-2.899 13.59.153 23.057-1.373 33.745 7.172 8.551 6.866 18.629 14.19 29.775 18.615z" fill="#09110B"/><path d="M869.838 407.627c31.039 12.359 73.087 18.768 106.419 18.157 12.538-.305 27.213-2.136 37.923-9.155 3.21-2.136 20.79-19.53 21.4-19.378-10.24-3.814-20.64-7.629-29.35-14.343-8.719-6.713-15.6-16.631-15.753-27.465.153 6.104-3.058 24.414-12.996 13.58-2.141-2.441-3.058-5.645-4.129-8.85-4.281-12.664-13.149-23.497-24.005-31.279s-23.547-12.817-36.697-15.716c18.043 5.645 34.403 16.326 46.788 30.516 7.034 7.935 14.526 19.531 12.385 30.67-1.682.152-12.385-.153-12.843 1.831.917-4.273 4.281-7.782 7.492-10.834-4.893 3.51-8.563 8.698-10.092 14.496.765-5.646-1.987-15.716-4.281-21.057-.612-1.22-1.223-2.594-.917-3.967.305-1.373 2.293-2.289 3.058-1.068.305.458.305 1.068.458 1.526.612 3.814 5.046 5.951 8.716 5.34 3.822-.61 6.88-3.051 9.785-5.493-4.892 2.594-11.314 1.984-15.748-1.373-1.529-1.221-3.059-2.747-5.046-2.441-1.835.152-3.211 2.136-3.364 3.967-.153 1.831.612 3.662 1.223 5.34.459 1.373 1.07 2.594 1.529 3.967-4.587-8.239-9.021-16.173-19.112-18.31-3.211-.763-6.575 0-9.939.611-1.988.457-3.976.763-5.963 1.22.611 1.221 1.988 1.984 3.211 2.442 2.905.915 6.116.457 9.174-.153 3.058-.458 6.269-1.068 9.174-.458 4.893 1.068 10.397 9.003 11.315 13.733.611 2.899-.153 6.256-2.6 8.087-6.116 4.577-21.406-1.679-27.675-4.273-7.798-3.204-17.125-7.934-21.406-15.563-3.211-5.798 1.682-9.155 3.822-14.648 1.988-5.035 1.529-10.223 1.529-15.716 0-.916 0-1.984-.611-2.747-.459-.61-1.223-1.068-1.988-1.22-5.81-2.137-11.162.305-10.703 6.866.765 10.223 2.446 20.293 5.046 30.059a56.843 56.843 0 0 0-11.926-25.939c-2.141-2.594-4.588-5.036-7.798-5.799-3.211-.762-7.187.763-8.104 3.968-.918 3.357 1.682 6.408 4.128 8.85 3.823 3.967 7.798 7.934 11.621 11.901 7.186 7.324-2.294 21.667-5.964 28.991 3.211-6.256-13.608-32.5-16.972-37.688 1.988 4.577 13.609 37.535 2.294 34.484-3.67-.916-6.575-4.273-7.186-8.087-.306 1.373-1.988 2.288-3.211 1.831 1.376-1.831.305-5.035-1.988-5.493.611-5.341 1.988-10.529 3.975-15.411-5.657 9.155-8.715 19.988-8.715 30.669.764-5.798-1.223-11.901-4.434-16.784-3.211-4.883-7.645-9.003-11.926-13.122-2.447-2.289-5.046-4.73-8.41-5.493 11.009 6.713 18.042 19.225 18.195 32.042-3.211 1.068-6.269-1.678-8.409-4.272-3.517-4.272-6.728-8.85-8.563-14.038-7.186-19.836 14.067-29.296 30.275-32.958-12.385-.915-24.923 2.442-35.321 9.155-5.351 3.357-10.397 8.545-10.397 14.801-1.682-9.155-4.128-18.158-7.033-26.855a80.741 80.741 0 0 0 1.376 24.261c-3.976-8.697-15.902-9.003-25.382-8.087 6.575 0 13.455.305 18.96 3.814 5.657 3.357 9.174 10.834 6.422 16.785-1.376 2.899-3.976 5.035-6.728 6.866-8.409 5.493-18.96 7.324-28.745 8.392-5.046.458-23.853 4.272-26.605-.763-1.223-2.136-.918-5.035.306-7.324 1.223-2.289 3.058-3.967 5.045-5.645 5.505-4.883 11.468-9.461 17.584-13.58-13.914 5.798-25.229 16.479-31.956 29.753-1.224-6.103-10.245-8.544-15.29-10.833 2.599 1.221 4.892 3.357 6.269 5.951 4.434 8.392-14.373 8.392-18.502 8.697-5.657.458-11.62.763-16.666-1.831-26.146-13.122 37.002-39.672 46.941-42.876-16.361 5.493-32.874 11.139-47.858 19.683-7.187 4.12-13.914 8.85-20.03 14.648-.306.306-14.679 14.648-14.985 12.054-1.834-15.563-10.397-29.448-18.654-42.57 4.893 7.018 19.266 32.5 8.41 38.908-1.988 1.069-4.128 1.679-6.269 1.984-7.645 1.373-15.29 2.594-22.935 1.068-2.752-.61-13.761-1.068-15.902-3.052-.459-.457-.459-1.068-.306-1.678.459-2.594 2.447-4.883 5.046-5.493-6.881 1.068-11.162 9.155-18.195 10.071-2.294.305-4.74-.153-6.881-.763-3.058-.763-12.691-.611-14.678-1.679-3.058-1.678-5.963-7.171.306-8.087-5.505.763-10.398 4.73-12.386 9.918-1.834-4.882-5.504-9.002-10.091-11.291 1.376 1.831 2.141 4.272 1.988 6.561 0 .61-.153 1.373-.459 1.831-.459.763-1.376 1.068-2.294 1.221-4.281.457-8.103-3.357-8.868-7.629-.764-4.273.765-8.545 2.447-12.36 3.975-8.85 9.174-14.648 15.596-21.361 5.657-5.951 9.632-14.343 17.43-18.005-15.443 7.171-27.981 20.446-34.097 36.315-1.529-8.24 1.835-16.479 4.434-24.414 1.682-5.035 4.588-13.885 2.141-19.073-2.752-5.493-8.868-5.34-11.315 1.373-1.223 3.51-.458 7.477.765 10.987 1.223 3.509 3.058 6.866 3.822 10.528 1.071 5.493-.152 11.291-1.681 16.784-1.835 6.561-3.976 13.122-6.269 19.531 1.834-6.561 2.293-13.58-.153-19.989-2.294-6.408-7.798-11.749-14.526-12.817 3.211 5.036 6.422 10.071 7.951 15.869 1.529 5.646.917 12.207-2.752 16.784-4.74 5.798-12.844 6.866-20.336 7.629.459-2.899 1.223-5.645 2.446-8.239-5.504 12.359-22.018 13.427-32.109 6.256-9.786-6.867-13.761-23.956-10.55-34.789 1.682-5.493 5.198-10.834 10.55-13.122 9.021-4.12 20.336.915 29.357-3.51-2.752-2.746-5.504-5.493-8.868-7.324-3.364-1.831-7.492-2.746-11.162-1.373-2.599.915-4.74 2.746-6.728 4.73-8.562 7.782-13.608 12.359-16.666 23.345-1.529 5.493-1.529 19.683-9.174 19.683-4.74-.305-7.798-10.528-10.244-14.037-4.282-6.104-9.633-11.597-15.749-16.022 5.045 4.578 8.715 10.681 10.397 17.395 1.529 6.256 1.988 27.16-9.48 25.024-3.211-.611-5.198-3.967-5.351-7.172-.153-3.204 1.223-6.256 2.599-9.155 10.55-21.819 26.758-40.892 46.788-54.777-11.162 7.629-22.324 15.868-31.498 25.939-3.975 4.425-7.951 9.308-11.315 14.038-3.975 5.493-5.963 12.817-9.632 18.767-.918 1.679-1.988 3.205-3.517 4.425-13.914 10.986-29.663-18.31-12.691-25.023-10.703 4.119-18.042 15.716-17.431 27.16-5.351-4.425-10.856-14.801-5.504-20.752 10.244-11.444 23.852-19.988 38.684-24.108-13.303 3.815-28.593 9.765-37.767 20.599-10.244 11.901-14.22 27.465-27.828 36.772 20.642 6.104 40.978 5.951 61.467 10.224 22.323 4.577 45.105 8.239 67.888 7.018 24.158-1.373 47.093-7.781 71.405-7.934 25.075-.153 49.998 2.594 74.921 2.747 35.015.305 70.335-5.646 105.349-8.393 28.899-2.136 57.95-3.204 87.001-2.899 13.608.153 23.088-1.373 33.791 7.172 8.563 6.866 18.654 14.19 29.816 18.615z" fill="#09110B"/><path d="M469.494 260.21c-1.591-.946-3.499-1.363-5.302-1.358-4.206.011-8.341 1.5-11.556 4.253.777-2.289 1.554-4.578 2.154-6.973 1.343-1.235 2.721-2.329 4.311-3.178 1.979-1.096 4.382-2.298 4.558-4.586a2.003 2.003 0 0 0-.318-1.266c-.778-1.299-2.863-.625-3.994.257-1.131.883-2.085 1.871-3.003 2.999.423-1.901.953-3.978 1.2-5.985.741-4.822 1.552-9.961.243-14.567a14.7 14.7 0 0 0-3.182-5.48c1.273 1.474 2.298 3.759 2.758 5.587.425 1.688.638 3.728.214 5.629-.46-.632-.566-1.054-.884-1.722-.318-.667-.707-1.616-1.308-2.213-.389-.351-.955-.807-1.344-.559-.282.071-.353.388-.424.705-.07.316.142.562.213.843.813 1.441 3.11 1.611 3.535 3.298.071.282.141.563.035.739.001 1.196-.176 2.288-.352 3.379.035.14-.071.317-.035.457l.07-.317c-.459 2.359-1.236 4.648-2.154 6.973-.212-1.442-.46-3.025-1.097-4.36-.636-1.336-1.732-2.705-3.075-3.264-.672-.28-1.768-.453-2.368.147-.637.459-.707 1.374-.353 2.182.318.668.919 1.264 1.485 1.72 2.474 2.07 5.125 3.646 4.207 7.167-.953 3.38-2.967 6.13-4.274 9.3-1.166 3.134-2.154 6.374-3.108 9.754-.885-6.506-2.902-15.121-7.639-18.416-2.015-1.437-5.16-1.394-6.609.616-.565.74-.918 1.726-.989 2.641-1.129 6.864 2.619 13.399 6.19 19.23 2.051 3.372 4.137 6.885 5.517 10.576-.565 2.535-.953 5.174-1.377 7.674-2.476-7.453-7.461-14.125-14.001-18.611-3.252-2.173-7.282-3.851-11.028-2.61-2.898 1.029-5.018 3.955-5.441 7.052-.565 3.133.355 6.192 1.805 8.967 3.5 6.148 10.005 9.896 16.65 12.411 3.817 1.433 7.388 3.077 11.135 4.826.636 3.13.319 6.051.532 9.288.071 1.477.143 4.749.885 5.908-3.217-4.424-10.712-12.708-15.412-7.488-.706.776-1.06 1.762-1.095 2.817-.423 4.294 2.901 7.945 6.471 10.187 2.333 1.507 6.645 3.114 9.686 5.639l.141.562.212-.352c.566.456.99.947 1.414 1.439l.744 8.337c-2.192-5.132-5.48-9.239-8.979-9.406-1.061-.032-2.085.674-2.792 1.45-1.201 1.2-2.014 2.75-1.731 4.473.425 2.286 2.723 3.652 4.702 4.949 5.833 4.066 8.733 10.215 9.689 17.003-.035 1.056.036 1.935 0 2.991l-.423 3.696c.142-.634.177-1.092.318-1.725-.315 10.697-2.045 21.151-5.682 31.189 6.359-10.573 8.264-23.315 8.155-35.7l1.378-1.692c1.661-1.764 3.639-3.458 5.477-5.117.742-.635 1.59-1.446 1.979-2.292.989-2.043-.355-4.995-2.794-5.129-1.838-.136-3.498 2.226-4.382 3.495-.777 1.092-1.377 2.29-1.837 3.453l-.532-7.493c1.06-2.959 2.544-6.024 5.265-7.755 1.166-.742 2.509-1.379 3.675-2.121 1.025-.706 2.014-1.553 2.827-2.506.954-.987 1.696-2.221 1.978-3.488.282-1.267.035-2.85-.955-3.798-1.591-1.543-4.206-1.185-6.079-.265-3.888 1.875-6.361 5.189-7.632 9.098-.036-.739-.177-1.301-.213-2.04.141-2.428.14-4.821-.426-7.071 2.615-3.35 6.538-3.888 9.647-6.464 1.732-1.483 2.791-4.441 1.2-5.985-4.136-4.493-9.224 1.573-11.555 6.047-.143-4.151-.25-8.162-.074-12.244.813-.354 1.625-.708 2.509-.781 3.004-.606 6.22-.368 9.401-.271 3.499.167 6.892-.089 10.179-1.364 3.145-1.24 6.114-3.781 7.102-7.021 1.131-3.275-.037-7.318-3.006-8.964-6.009-3.573-19.05 1.353-24.952 4.781.494-3.414 1.13-6.864 1.942-10.208.565-2.535 1.412-5.141 2.154-7.571.777-.495 1.731-.884 2.544-1.238 2.509-.781 5.054-.823 7.599-.865 2.545-.042 5.231-.119 7.669-1.181 1.485-.673 2.898-1.626 3.923-2.931.918-1.128 1.66-2.362 1.589-3.84-.707-1.616-1.909-3.407-3.5-4.353zM-40.796 278.249c0 5.954.924 11.754 1.078 17.708a184.108 184.108 0 0 1-1.386 29.156c1.078-1.832 2.618-3.816 4.619-3.511-.154-5.801-.308-11.449-.616-17.25-.308-7.327-2.31-18.165 3.695-23.66 5.542-5.191 13.085-6.259 17.858-12.976 8.313-11.754 3.387-31.599 14.471-41.521-4.465 3.969-9.39 7.175-14.933 9.464-6.466 2.596-11.546 8.854-14.317 14.96-1.232 2.748-2.31 5.496-3.08 8.396.924-7.174 1.078-14.349 1.694-21.982.924-10.685 8.16-10.838 17.858-14.502 17.089-6.564 30.482-21.829 34.639-39.383-1.54 3.205-5.08 5.19-8.621 6.106-3.541.763-7.236.61-10.777.763-7.697.152-15.395 1.832-21.86 6.106-3.85 2.595-6.928 5.953-9.237 9.922.77-5.343 1.54-10.533 2.617-15.723.616-2.595 1.231-5.343 1.847-7.938 3.08-3.205 6.62-5.8 10.469-7.938 5.696-3.053 12.161-4.732 17.704-8.243 18.32-11.449 20.783-37.094 34.792-53.428-12.162 13.739-33.869 14.35-48.802 25.035-.154.153-.462.305-.616.458 3.695-10.686 8.16-21.066 13.548-30.835 9.39 2.289 19.397-2.443 26.017-9.465 6.62-7.022 10.469-16.028 14.317-25.035C29.867 77.36 18.32 84.23 8.622 93.083c5.85-8.853 13.547-16.944 20.013-25.34 7.082-9.311 14.471-18.318 22.63-26.714C35.41 57.21 20.475 72.781 6.775 90.794 20.321 72.934 0 66.37-.154 50.646-2.924 55.531-4.618 61.18-7.081 66.37c-1.693 3.664-3.233 7.633-2.771 11.755C-8.928 88.656 3.08 92.168.462 103.006c-2 8.243-9.544 14.502-13.393 21.829 2.155-3.969.616-13.586-.308-17.86-1.385-7.022-4.003-13.739-7.697-19.692-5.696-9.16-13.856-16.792-20.014-25.646-4.156 15.57-7.081 32.82-.307 47.475 3.232 7.022 8.467 12.822 12.777 19.234 3.849 5.648 7.236 12.059 7.544 18.776-.154.305-.308.61-.308 1.068-.154.153-.154.306-.308.306-3.08-12.212-23.4-17.708-32.175-25.34-4.773-4.122-9.391-9.923-9.083-15.876-1.386 9.77-2.156 19.539 0 29.156 2.309 10.228 8.467 19.998 17.858 24.272 2.925 1.374 6.004 2.137 8.62 3.663 9.546 5.343 6.928 16.487 4.773 25.646.924-4.274-.308-9.007-3.079-12.518-2.77-3.511-6.773-5.953-10.93-7.48-8.313-2.9-15.857-7.021-18.32-16.18-.616 5.8-1.232 11.754-.154 17.402 1.078 5.801 3.849 11.449 8.775 14.654 3.387 2.137 7.39 2.901 11.085 4.732 4.772 2.443 8.467 6.717 10.314 11.755-.924 6.716.154 22.134-5.542 25.95-.308-5.343-.462-11.907-4.927-15.723-3.848-3.511-9.698-3.358-14.932-3.969-6.004-.763-11.855-2.595-16.78-6.106l6.311 12.212c2.925 5.648 6.004 11.449 11.392 14.807 4.157 2.595 9.083 3.511 13.24 6.106 10.006 6.564 6.158 27.02 4.772 36.942-.308 1.527-.462 3.664-.462 5.648z" fill="#00150D"/><path d="M1363.22 284.763c-6.24 1.85-9.44 9.419-8.09 15.81 1.34 6.391 6.24 11.437 11.64 14.968 5.39 3.532 11.47 6.055 17.03 9.419 5.4 3.195 10.46 7.568 12.83 13.455-5.07-9.755-.85-21.528-4.56-31.619-3.37-9.755-17.21-25.565-28.85-22.033z" fill="#09110B"/><path d="M1334.4 203.4c-2.07 7.94-8.4 11.324-15.38 13.797-3.62 1.301-6.85 3.384-9.18 6.378-2.32 2.993-3.49 7.028-2.58 10.673-1.81-7.81-4.01-17.311 4.01-21.867 2.32-1.302 4.91-1.952 7.23-3.124 8.02-3.644 13.19-12.105 15-20.695 1.81-8.07 1.03-16.53 0-24.86.26 5.206-3.62 10.022-7.63 13.536-7.37 6.508-24.43 11.194-27.01 21.606-.13-.13-.13-.26-.26-.26-.13-.26-.26-.52-.26-.911.39-5.727 3.1-11.194 6.33-16.009 3.75-5.467 8.02-10.413 10.73-16.401 5.69-12.495 3.23-27.203-.26-40.479-5.17 7.68-12.02 14.057-16.8 21.867-3.1 5.076-5.43 10.933-6.46 16.79-.65 3.775-1.94 11.845-.26 15.229-4.14-7.94-8.14-17.311-14.35-23.689-.38-.651-.9-1.302-1.29-1.952.26-1.172.78-2.343 1.29-3.385 1.42-2.733 3.23-5.206 4.14-8.2 1.94-6.117-.26-16.79-4.4-21.736-2.19 7.159-7.88 14.708-8.01 22.387v1.041c-10.86-14.317-23.65-27.333-38-38.136 11.76 12.235 22.23 25.641 32.57 39.178-1.94-1.172-4-2.213-6.07-3.254-7.11-3.254-15.51-5.727-19.91-12.105 5.82 9.371 11.89 18.352 18.49 27.203 1.93 2.603 4 5.207 6.72 6.899 4.65 2.863 10.47 2.733 15.51 4.555 1.03.391 1.94.781 2.84 1.302 1.03 1.822 2.07 3.644 3.1 5.466 2.59 5.207 4.66 10.543 6.47 16.01-.13-.13-.39-.26-.52-.39-12.67-9.112-30.76-9.632-40.98-21.347 11.77 13.927 13.83 35.794 29.22 45.556 4.65 2.994 9.95 4.425 14.86 7.029 3.23 1.822 6.2 4.035 8.79 6.768.52 2.213 1.03 4.555 1.55 6.768.91 4.426 1.55 8.981 2.2 13.406-2.07-3.253-4.66-6.247-7.76-8.46-5.3-3.644-11.89-5.076-18.35-5.206-3.1-.13-6.08 0-9.05-.651-2.97-.651-5.94-2.343-7.24-5.206 3.49 15.098 14.74 27.984 29.08 33.581 5.3 2.082 11.25 3.254 15.26 7.419.13.13.13.26.26.26.25 2.994.38 6.117.64 9.111 1.68 24.21 2.2 47.898.78 72.108 10.73-19.914 6.98-46.337 4.13-68.984.13.521.26 1.171.39 1.692-.26-2.603-.65-5.206-.9-7.679h-.13c-.26-3.905-.65-7.81-1.3-11.715a505.665 505.665 0 0 0-2.32-19.654c1.55-4.295 4.65-7.939 8.66-10.022 2.97-1.562 6.46-2.213 9.3-4.035 4.14-2.733 6.6-7.549 7.37-12.495.65-4.686.26-9.762-.26-14.708zM1072.34 99.522c-.34-.676-.85-1.352-1.19-2.028.34.676.68 1.352 1.19 2.028z" fill="#00150D"/><path d="M128.309 374.72c-49.495 19.158-106.78 6.131-159.787 3.218-.61 0 14.207-61.767 15.429-66.211 8.249-30.807 12.22-62.381-10.388-88.436-7.638-8.89-17.414-15.787-25.052-24.676-15.734-18.239-21.54-43.069-25.511-66.978 6.263 19.618 19.248 36.937 36.204 48.586 12.373 8.429 27.191 14.407 35.44 26.821 9.013 13.488 8.096 31.42 4.888 47.36 8.097-27.128 17.262-53.95 27.65-80.159-7.027.92-13.443-5.518-14.054-12.261-.153-2.299.153-4.445.611-6.744.611-2.299 1.375-4.445 2.139-6.744 11.762-32.493 25.51-64.22 39.259-95.946 2.902-6.897 6.416-14.254 13.137-17.472 7.027-3.372 15.276-.92 22.761 1.532 1.68.613 3.514 1.226 4.736 2.606 1.222 1.532 1.527 3.678 1.68 5.517 1.68 25.903-10.387 54.717-16.498 79.7-3.819 15.787-9.318 58.855-33.454 55.33-1.222-.154-2.597-.46-3.82.153-.763.46-1.221 1.533-1.68 2.299-7.79 17.013-14.817 34.332-21.539 51.651-5.346 13.795-12.22 24.523-14.359 39.237 7.18-27.435 30.552-47.207 55.91-57.935 19.859-8.43 42.162-12.722 58.049-27.282-12.221 15.02-27.497 27.588-44.759 36.325-16.803 8.583-35.593 13.794-49.8 26.362-11.304 9.962-18.33 23.45-24.135 37.09-3.361 7.664-5.194 10.729-2.292 18.393.458 1.073 6.722 13.947 8.096 12.874 1.528-1.379 1.528-3.678 1.375-5.824-1.07-13.488-3.36-26.975-6.874-40.003 9.013 13.181 9.624 29.887 27.497 35.712 7.79-7.051 9.47-18.699 8.096-29.121-2.75-21.611-15.734-40.157-27.65-58.396-11.915-18.239-23.372-38.317-22.608-60.081 10.082 25.443 35.44 41.689 48.12 66.059 10.845 20.844 11.304 45.52 8.707 68.817-.153 1.533 5.499-3.218 5.805-3.525 1.222-1.686 1.985-7.817 2.75-9.962 2.902-8.583 6.568-17.013 9.928-25.29 4.278-10.269 8.25-20.844 11.61-31.42 1.07-3.371 5.5-26.975 7.638-27.741-3.819 1.379-8.096-2.146-9.013-6.131-.916-3.985.459-8.276 1.834-12.108a4946.132 4946.132 0 0 0 14.97-43.835c1.833-5.364 5.041-11.648 10.54-11.801 2.597 0 5.347 1.379 7.486.153 1.527-.92 2.291-2.606 2.902-4.292 7.027-19.465 14.207-38.93 21.234-58.548-6.264 21.61-12.527 43.222-18.637 64.679 2.75-.46 5.346 1.839 6.11 4.598.917 2.606.459 5.518-.153 8.277-3.513 17.932-10.54 34.945-17.414 51.958-1.069 2.605-2.291 5.364-4.43 7.05-2.291 1.686-5.958 1.686-7.485-.613-3.514 8.736-7.18 17.013-10.082 26.209-7.944 25.442-14.513 51.804-26.275 75.561 30.552-61.767 88.295-80.159 146.496-105.755-26.733 11.802-53.16 26.362-76.074 44.448-23.219 18.545-42.62 45.98-58.812 70.656-3.361 5.211-6.874 10.729-7.791 17.013 6.11-6.284 9.318-14.56 16.04-20.998 7.79-7.51 16.65-13.334 26.427-18.085-12.679 6.284-29.483 16.859-22.761 32.799 2.444 5.671 8.554 12.108 15.429 9.962 7.332-2.299 5.957-12.414-1.68-11.954-1.07 0-2.14.459-3.056.766-1.68.46-3.36.613-5.041.153-1.68-.46-3.055-1.839-3.36-3.525a8.62 8.62 0 0 0 5.499-.92c2.138-1.072 4.124-2.912 6.263-2.452.916.153 1.68.766 2.444 1.379 2.444 2.146 3.819 5.518 3.819 8.737-.917-5.824-4.277-10.576-5.347-15.94-.458-2.759.153-5.978 2.597-7.51 2.444-1.686 5.805-.767 8.708-.46 4.888.766 9.776.307 14.359-1.379-.306 4.138-2.903 8.123-6.722 9.962-2.138 1.226-5.041 1.839-7.485 1.533-1.527-.307-4.277-2.606-5.5-.613-.61.919-.457 1.992-.305 3.065.764 3.678 2.597 7.05 2.597 10.729 0 1.686-.305 3.525.306 5.058 1.069 2.452 4.43 3.218 6.874 2.145 6.874-3.218 9.318-15.633 10.54-22.224 2.903-15.786 1.834-32.492-3.666-47.666 4.583 13.947 7.333 28.814 7.333 43.375 0 9.656-1.681 27.895-6.722 36.018 6.416-10.116 10.846-21.611 12.679-33.566-.458 7.051-.764 14.101-1.222 21.151 6.569-14.56 22.303-29.274 35.44-37.857 15.276-9.809 33.149-15.174 51.327-16.859-22.455 6.13-43.23 17.779-60.187 33.719-6.568 6.13-13.137 14.407-11.457 23.296 1.833 10.576 13.596 27.435 22.761 32.953-12.22 5.977-23.372 9.503-35.592 14.254z" fill="#09110B"/><path d="M833.761 269.516c-1.359-1.696-3.398-2.714-5.438-3.562-4.588-1.696-9.687-1.526-14.275.17 1.699-2.205 3.399-4.579 5.098-6.784 1.869-.848 3.909-1.527 6.118-1.866 2.549-.509 5.778-.848 6.798-3.222.17-.509.34-1.018.17-1.527-.51-1.696-2.889-1.865-4.589-1.356-1.529.508-3.059 1.187-4.418 2.035 1.359-2.035 2.549-4.07 3.739-6.106 2.209-3.9 7.647-13.907 4.758-18.147-.68 6.106-2.209 11.363-5.948 16.451-4.079 5.767-9.687 10.515-14.276 15.943-2.549 3.052-4.928 6.275-7.137 9.497 1.699-7.462 2.719-17.808-1.19-23.235-1.699-2.374-5.098-3.561-7.647-2.035-1.02.678-1.53 1.526-2.21 2.544-3.908 7.123-2.379 15.773-.68 23.574 1.02 4.41 1.87 9.158 1.87 13.737-1.7 2.544-3.229 5.258-4.589 7.972.17-9.159-2.549-18.487-7.987-25.949-2.719-3.731-6.458-7.123-11.047-7.123-3.568 0-6.967 2.374-8.837 5.597-1.699 3.222-2.039 6.953-1.529 10.515 1.359 8.14 7.137 14.755 13.425 20.182 3.059 2.544 6.458 5.257 8.668 8.48-1.02 2.544-1.87 5.257-2.38 7.801.85-.848 1.87-1.526 2.89-2.035-1.19 4.24-2.21 8.48-3.229 12.72-1.7-6.106-6.798-18.317-14.106-14.246-1.02.508-1.869 1.526-2.379 2.544-2.21 4.409 0 9.836 3.229 13.737 2.039 2.544 6.118 6.106 8.497 10.006 0 .17 0 .509-.17.679.17 0 .17-.17.34-.339l1.02 2.035c-.85 3.222-1.53 6.275-2.38 9.497-.339-6.444-2.379-12.38-6.118-13.907-1.189-.509-2.549-.169-3.738.509-1.7.848-3.399 2.374-3.739 4.24-.51 2.714 1.529 5.088 3.229 7.293 4.928 6.784 5.608 14.585 3.908 22.387-.339 1.017-.849 2.204-1.189 3.222-.68 1.357-1.36 2.544-2.04 3.901.34-.679.68-1.187 1.02-1.696-4.588 11.532-10.367 22.556-18.524 32.223 11.216-9.158 18.184-22.387 22.773-36.124.68-.509 1.359-.848 2.209-1.187 2.549-1.357 5.268-2.375 7.988-3.562 1.189-.509 2.209-1.017 3.059-1.865 1.869-1.866 1.529-5.767-1.02-6.784-2.039-.848-4.759 1.187-6.288 2.205-1.36.848-2.379 1.865-3.399 3.052.85-2.883 1.53-5.596 2.209-8.48 2.38-2.883 5.099-5.596 8.838-6.614 1.529-.339 3.229-.509 4.758-.848 1.36-.339 2.719-.848 4.079-1.696 1.359-.848 2.719-1.696 3.399-3.053.849-1.356 1.019-3.052.34-4.579-1.02-2.374-4.079-2.883-6.628-2.713-4.929.508-9.007 3.222-11.897 7.123.17-.848.34-1.527.51-2.375 1.02-2.544 2.04-5.257 2.379-7.971 4.079-2.713 8.668-1.696 13.086-3.392 2.55-1.017 4.759-3.731 3.739-6.275-2.889-6.614-10.876-1.865-14.955 2.205 1.359-4.579 3.059-9.158 4.758-13.568 1.02-.169 2.04 0 3.059 0 3.569.509 6.968 2.035 10.367 3.392 3.739 1.526 7.648 2.544 11.726 2.544 4.079-.17 8.158-1.696 10.537-4.918 2.379-3.223 2.719-7.971.17-11.194-5.268-6.275-21.413-6.105-29.231-4.409 1.87-3.562 3.909-7.123 6.118-10.515 1.7-2.544 3.399-5.088 5.269-7.463 1.019-.339 2.209-.339 3.229-.339 3.059.17 5.948 1.187 8.667 2.035 2.889 1.018 5.778 1.866 8.837 1.696 1.869-.169 3.739-.678 5.438-1.696 1.36-.848 2.72-2.035 3.229-3.561 1.7-1.357 1.02-3.731-.34-5.427zM1028.52 306c-1.65 6.294-6.7 8.976-12.27 10.937-2.89 1.031-5.47 2.682-7.33 5.055-1.85 2.373-2.78 5.571-2.06 8.46-1.44-6.19-3.2-13.722 3.2-17.333 1.86-1.032 3.92-1.548 5.78-2.476 6.39-2.889 10.52-9.595 11.96-16.405 1.45-6.397.83-13.103 0-19.706.21 4.127-2.89 7.944-6.08 10.73-5.88 5.159-19.5 8.873-21.56 17.127-.11-.103-.11-.206-.21-.206-.103-.207-.207-.413-.207-.723.307-4.539 2.477-8.873 5.057-12.69 2.99-4.333 6.39-8.254 8.56-13 4.54-9.905 2.58-21.564-.21-32.087-4.12 6.087-9.59 11.142-13.407 17.333-2.475 4.024-4.332 8.667-5.157 13.309-.516 2.992-1.548 9.389-.207 12.072-3.301-6.294-6.498-13.722-11.45-18.778-.309-.516-.722-1.032-1.031-1.548.206-.928.619-1.857 1.031-2.682 1.135-2.167 2.579-4.127 3.301-6.5 1.548-4.849-.206-13.31-3.507-17.23-1.754 5.674-6.292 11.658-6.396 17.746v.825C967.662 246.881 957.45 236.563 946 228c9.387 9.698 17.743 20.325 25.995 31.056-1.547-.929-3.198-1.754-4.848-2.58-5.674-2.579-12.379-4.54-15.886-9.595 4.642 7.429 9.49 14.548 14.751 21.563 1.547 2.064 3.198 4.127 5.364 5.469 3.714 2.27 8.355 2.166 12.378 3.611.826.309 1.548.619 2.27 1.032l2.476 4.333c2.063 4.127 3.713 8.357 5.157 12.69-.103-.103-.309-.206-.412-.309-10.109-7.222-24.551-7.635-32.7-16.921 9.387 11.04 11.037 28.373 23.313 36.111 3.713 2.373 7.943 3.508 11.862 5.572 2.579 1.444 4.95 3.198 7.01 5.365.42 1.754.83 3.611 1.24 5.365.72 3.508 1.24 7.119 1.76 10.627-1.65-2.579-3.72-4.952-6.193-6.706-4.229-2.889-9.49-4.024-14.648-4.127-2.476-.104-4.848 0-7.221-.516-2.372-.516-4.745-1.857-5.776-4.127 2.785 11.968 11.759 22.182 23.209 26.619 4.23 1.651 8.979 2.579 12.169 5.881.11.103.11.206.21.206.21 2.373.31 4.849.52 7.222 1.34 19.191 1.75 37.969.61 57.159 8.57-15.786 5.58-36.73 3.31-54.683.1.413.2.929.31 1.342-.21-2.064-.52-4.127-.73-6.088h-.1c-.21-3.095-.52-6.19-1.03-9.285a413.277 413.277 0 0 0-1.86-15.58c1.24-3.404 3.72-6.293 6.91-7.944 2.38-1.238 5.16-1.754 7.43-3.199 3.3-2.166 5.26-5.984 5.88-9.904.52-3.715.21-7.738-.21-11.659zM1197.93 144.654c0-.676-.17-1.352-.34-2.197.17.676.17 1.352.34 2.197zM300.195 294.925c-5.951 6.218-11.427 13.513-14.164 21.525a38.25 38.25 0 0 0-.357-7.414c-2.024-17.699-13.332-12.437-20.95-1.316a32.941 32.941 0 0 0-2.023 3.468 1248.675 1248.675 0 0 1 6.904-19.253c2.261-6.218 4.523-13.034 2.737-19.492-5.118 2.751-8.689 6.817-11.903 11.6-.714-11.36 7.261-27.026 10.594-38.027.714-2.631 1.547-5.381.595-7.893-.238-.717-7.975 6.458-8.57 7.175-2.023 2.87-2.976 6.099-4.761 8.969 4.047-21.047 8.451-41.495 16.188-61.346 7.618-19.492 14.997-39.94 27.614-56.921-10.95 14.709-22.02 28.58-30.233 45.082-8.332 16.503-16.188 33.962-20.116 52.019-2.737 12.317-4.761 25.351-3.213 37.788 1.785 14.35-.239 29.896.476 44.485.476 10.044-.119 20.329 1.666 30.254.833 5.022 2.381 9.686 4.523 14.23.238.598 6.19 11.002 7.142 8.849 3.809-7.414 10.236-13.393 17.973-16.502 3.571-1.435 7.737-2.631 9.403-5.979 5-9.926.953-23.438 4.286-34.081 1.904-5.86 5.356-11.002 9.165-15.785 7.38-9.447 16.188-17.818 25.829-24.993-10.475 6.577-20.235 14.47-28.805 23.558z" fill="#00150D"/><path d="M-77 389.233v-76.471l212.692 36.415 159.129 7.803 239.733-13.526h89.445l149.768 32.254 885.093 13.525v60.345H-77v-60.345z" fill="#09110B"/></g><defs><clipPath id="a"><path fill="#fff" d="M0 0h1440v400H0z"/></clipPath></defs></svg>