<svg width="1440" height="300" fill="none" xmlns="http://www.w3.org/2000/svg"><g clip-path="url(#a)" fill="#04361B"><path d="M1570.26-436.512c-26.79.374-53.45.374-80.23-.499-28.03-.874-56.06-2.496-83.96-5.989.87 18.34 1.74 36.681 2.74 55.021 4.61 52.277 26.41 284.34 23.3 289.58.25 3.244-.88 11.479.62 13.85-18.44-19.838-36.87-39.801-50.58-63.132 15.08-4.741 20.43-28.197 5.48-36.681-.99 2.246-2.11 4.617-3.11 6.862 3.61-12.102 3.49-25.452-.75-37.304-6.1 14.098-8.97 29.569-8.09 44.915-3.62-23.456-20.31-44.541-42.23-53.524 4.23 12.351 10.09 24.079 17.31 34.934-5.6-3.119-12.33-4.117-18.44-1.871a144.78 144.78 0 0 1 6.61 5.863c18.81 17.093 35.87 36.182 50.7 56.769 6.97 9.731 12.45 21.709 20.55 30.442 7.6 8.235 14.7 15.72 21.43 24.953 2.49 3.494 4.98 6.862 6.72 10.855 2.62 6.113 2.99 12.85 3.24 19.463.88 17.467 1.75 34.935 2.25 52.402.49 21.46-.5 42.67-.5 64.004-.5-5.49-1.87-10.98-4.11-15.97-.75-1.746-1.87-3.743-3.62-4.491-11.08-4.99-6.97 18.34-6.72 22.457.74 12.103 1.62 24.205 2.74 36.307.25 2.745.75 5.739 2.99 7.237.99.623 2.24.873 2.99 1.746.62.749.74 1.747.87 2.745 2.86 22.084 2.12 44.541-1.87 66.5-1.12-10.231.25-20.337-1.37-30.568-1.62-10.355-4.36-20.461-7.85-30.318-6.48-18.215-16.32-35.183-28.77-49.906-1-1.247-2.12-2.495-3.74-2.994-2.62-.873-5.48.624-6.98 2.994-1.49 2.246-1.87 5.116-2.11 7.86-1.75 19.464 1.49 39.302 9.59 57.018-1.75-2.745-3.37-5.614-5.11-8.359-1-1.622-2.49-3.369-4.24-2.87-1.61.499-1.99 2.371-2.11 4.118a43.272 43.272 0 0 0 4.73 22.582c.37.624.75 1.248 1 1.872-4.11-6.738-8.6-12.976-16.32-16.469-8.85-3.993-21.43-.998-24.17 8.359-1.62 5.614.75 11.603 3.12 16.968 10.96 25.203 19.3 50.655 23.54 77.978-4.73-24.329-10.59-43.293-24.17-64.004-2.49-3.743-11.33-11.104-15.57-12.976 20.93 18.341 30.15 46.912 32.64 74.61-3.36-29.57-28.03-57.018-51.45-73.737-2.74-1.996-5.98-3.867-9.34-3.493-3.74.374-6.6 3.743-7.6 7.361s-.25 7.486.87 11.104c3.74 12.227 13.58 24.704 23.67 32.439 9.22 6.987 22.92 13.475 21.8 27.449 0 .623-.12 1.247-.37 1.746-4.49 9.732-14.58-13.474-16.57-16.219-6.48-8.983-14.45-16.843-22.92-23.955-14.2-11.978-25.66-25.203-43.85-34.435 20.55 12.476 38.24 29.569 51.2 49.906 4.86 7.486 9.09 16.219 7.47 24.953-5.73-8.734-11.58-17.467-17.31-26.201-1.62-2.37-3.37-4.866-5.98-5.864-7.98-2.62-7.23 5.989-5.24 11.978-4.11-8.484-9.21-16.594-16.94-21.585-2.11-1.372-4.48-2.495-6.97-2.495-15.95 0-5.48 28.197-4.11 35.932-3.87-2.869-5.24-7.86-7.48-12.227a33.467 33.467 0 0 0-14.2-14.597c-2.49-1.373-5.36-2.371-7.97-1.622-4.86 1.247-6.98 7.486-5.48 12.227 1.49 4.741 5.48 8.359 9.22 11.603 2.11 1.872 4.23 3.743 6.72 4.866 2.87 1.372 5.86 1.372 8.97 1.622-4.73 3.992-9.72.249-14.45-1.747-5.11-2.121-10.96-1.871-16.57-1.497 3.86-.125 10.47.873 13.71 2.994.74.499 7.72 7.361 5.6 7.86-11.96 2.496-25.16-3.243-31.51-13.724 4.36 5.49 7.47 11.853 9.34 18.715-17.07-9.357-14.45-26.325-7.1-40.424 7.6-14.847 15.94-35.683 30.39-45.539-20.8 14.223-32.88 33.312-43.1 55.77 1-5.615 3.86-10.855 6.35-15.97 7.6-15.471 12.71-32.065 17.07-48.659 3.24-12.102 6.98-29.818 15.45-39.55-18.31 20.836-32.52 45.29-41.36 71.615 7.72-24.329 12.95-49.532 15.7-74.984-2.75 25.577-12.46 50.78-21.43 74.61-3.49 9.108-6.6 18.091-9.09 27.573-1.37 5.115-4.12 31.94-10.72 29.445-1.12-.375-1.99-1.498-2.74-2.496-6.6-8.609-20.8-20.836-23.67-31.066-2.86-10.231 8.85-20.961 13.96-28.571 2.24-3.369 4.6-7.112 3.86-10.98-1.5-7.86-14.2-7.86-18.81-1.372-3.12 4.491-3.62 9.981-3.24 15.471-.87-1.373-2.12-2.496-3.49-3.119-3.86-1.747-9.09 0-11.09 3.743-.5-11.105-11.33-20.712-22.42-19.838 5.11 18.964 16.19 36.306 31.14 49.032-6.85 1.248-13.7-2.245-19.55-5.863-5.98-3.619-12.09-7.861-19.06-8.11-6.98-.374-14.7 5.115-13.83 12.102 16.94-3.244 35.25-2.371 50.33 5.989 9.59 5.365 19.18 15.346 21.8 26.325 3.86 15.845-8.72 17.967-21.43 24.579-33.27 22.52-126.09 33.098-148.88 41.361 21.05 15.222 98.55 8.295 123.96 12.413 52.95 8.484 106.89 5.24 160.08 4.242A1766.897 1766.897 0 0 1 1570.5 354c-4.98-2.121-7.97-9.233-9.09-15.221-9.34-50.53 8.1-101.684 13.33-152.838 4.61-45.165-.37-90.704 1.74-135.994 2.37-50.405 13.58-99.937 17.69-150.217 5.24-65.003-1.74-130.38-8.72-195.258-5.23-47.41-10.21-94.197-15.19-140.984zm-178.89 601.243c1.37 2.246 2.74 4.367 3.99 6.738-1.37-2.246-2.62-4.492-3.99-6.738z"/><path d="M-8.178 263.758h1249.4v50.748H-8.178z"/><path d="M58.004 193.04c-8.09 8.414-15.534 18.284-19.255 29.124.161-3.397 0-6.795-.486-10.031-2.75-23.947-18.123-16.828-28.479-1.78-.97 1.456-1.941 3.074-2.75 4.692a1677.332 1677.332 0 0 1 9.385-26.05c3.074-8.414 6.148-17.636 3.721-26.374-6.958 3.722-11.812 9.223-16.18 15.695-.972-15.371 9.87-36.567 14.4-51.453.971-3.56 2.104-7.281.81-10.679-.324-.971-10.842 8.737-11.65 9.708-2.752 3.883-4.046 8.252-6.473 12.135 5.501-28.477 11.488-56.145 22.006-83.004C33.409 28.649 43.44.981 60.593-21.995c-14.887 19.902-29.935 38.671-41.1 61C8.166 61.333-2.513 84.956-7.853 109.389c-3.722 16.665-6.472 34.301-4.369 51.129 2.427 19.416-.323 40.45.647 60.19.648 13.592-.161 27.507 2.266 40.936 1.132 6.796 3.236 13.106 6.149 19.255.323.809 8.414 14.885 9.708 11.973 5.178-10.032 13.916-18.122 24.434-22.329 4.854-1.941 10.517-3.559 12.783-8.09 6.796-13.429 1.294-31.713 5.825-46.113 2.589-7.929 7.281-14.886 12.46-21.358 10.031-12.783 22.005-24.109 35.112-33.817-14.24 8.899-27.508 19.578-39.158 31.875zM715.119 295.635c32.848 13.106 77.346 19.902 112.62 19.255 13.269-.324 28.803-2.265 40.129-9.708 3.398-2.266 22.006-20.711 22.654-20.549-10.842-4.045-21.845-8.09-31.068-15.209-9.223-7.12-16.505-17.637-16.666-29.125.161 6.472-3.237 25.889-13.754 14.401-2.266-2.589-3.236-5.987-4.369-9.385-4.531-13.43-13.916-24.918-25.404-33.169-11.489-8.252-24.919-13.592-38.835-16.666 19.094 5.987 36.408 17.313 49.514 32.36 7.443 8.414 15.372 20.711 13.107 32.523-1.78.161-13.107-.162-13.592 1.941.971-4.53 4.53-8.252 7.928-11.488-5.178 3.722-9.061 9.223-10.679 15.371.809-5.986-2.104-16.665-4.531-22.328-.647-1.295-1.294-2.751-.971-4.207.324-1.456 2.428-2.427 3.237-1.133.323.486.323 1.133.485 1.618.647 4.045 5.34 6.311 9.223 5.663 4.045-.647 7.282-3.236 10.356-5.824-5.178 2.75-11.974 2.103-16.666-1.457-1.619-1.294-3.237-2.912-5.34-2.589-1.942.162-3.398 2.266-3.56 4.207-.162 1.942.647 3.884 1.295 5.663.485 1.457 1.132 2.751 1.618 4.207-4.855-8.737-9.547-17.151-20.227-19.416-3.398-.809-6.958 0-10.517.647-2.104.486-4.207.809-6.311 1.295.647 1.294 2.104 2.103 3.398 2.588 3.074.971 6.472.486 9.709-.161 3.236-.486 6.634-1.133 9.708-.486 5.178 1.133 11.003 9.547 11.974 14.563.647 3.074-.162 6.633-2.751 8.575-6.472 4.854-22.653-1.78-29.287-4.53-8.252-3.398-18.123-8.414-22.654-16.504-3.398-6.149 1.78-9.708 4.046-15.533 2.103-5.34 1.618-10.841 1.618-16.666 0-.971 0-2.103-.648-2.912-.485-.648-1.294-1.133-2.103-1.295-6.149-2.265-11.812.324-11.327 7.281.809 10.841 2.589 21.52 5.34 31.875a60.341 60.341 0 0 0-12.621-27.506c-2.266-2.751-4.854-5.339-8.252-6.148-3.398-.809-7.606.809-8.576 4.206-.971 3.56 1.779 6.796 4.368 9.385 4.046 4.207 8.253 8.414 12.298 12.62 7.605 7.767-2.427 22.976-6.311 30.743 3.398-6.634-14.401-34.464-17.961-39.965 2.104 4.854 14.402 39.803 2.428 36.567-3.884-.971-6.958-4.53-7.605-8.575-.324 1.456-2.104 2.426-3.399 1.941 1.457-1.942.324-5.339-2.103-5.825.647-5.663 2.103-11.164 4.207-16.342-5.987 9.708-9.223 21.196-9.223 32.522.809-6.148-1.295-12.62-4.693-17.798-3.398-5.339-8.09-9.546-12.621-13.915-2.589-2.427-5.34-5.016-8.899-5.825 11.65 7.12 19.093 20.387 19.255 33.979-3.398 1.132-6.634-1.78-8.9-4.531-3.721-4.53-7.119-9.384-9.061-14.885-7.605-21.035 14.887-31.066 32.038-34.95-13.106-.97-26.375 2.589-37.378 9.708-5.663 3.56-11.003 9.061-11.003 15.695-1.78-9.708-4.369-19.254-7.443-28.477a85.81 85.81 0 0 0 1.456 25.727c-4.207-9.223-16.828-9.547-26.86-8.576 6.958 0 14.239.324 20.064 4.045 5.987 3.56 9.709 11.488 6.796 17.798-1.456 3.075-4.207 5.34-7.119 7.281-8.9 5.825-20.065 7.767-30.421 8.9-5.34.485-25.242 4.53-28.155-.809-1.294-2.266-.971-5.34.324-7.767 1.294-2.427 3.236-4.207 5.34-5.987 5.825-5.177 12.135-10.031 18.608-14.4-14.725 6.148-26.699 17.475-33.819 31.551-1.294-6.472-10.841-9.06-16.181-11.488 2.751 1.295 5.178 3.56 6.635 6.311 4.692 8.899-15.211 8.899-19.579 9.222-5.987.486-12.298.809-17.638-1.941-27.669-13.915 39.158-42.069 49.676-45.466-17.314 5.824-34.789 11.811-50.647 20.872-7.605 4.369-14.724 9.384-21.197 15.533-.323.324-15.534 15.533-15.857 12.782-1.942-16.504-11.003-31.227-19.741-45.142 5.178 7.442 20.388 34.463 8.9 41.259-2.104 1.133-4.369 1.78-6.635 2.103-8.09 1.457-16.181 2.751-24.271 1.133-2.913-.647-14.563-1.133-16.829-3.236-.485-.485-.485-1.133-.323-1.78.485-2.75 2.589-5.177 5.34-5.825-7.282 1.133-11.813 9.708-19.256 10.679-2.427.324-5.016-.162-7.281-.809-3.236-.809-13.431-.647-15.534-1.78-3.236-1.779-6.311-7.604.324-8.575-5.826.809-11.004 5.016-13.107 10.517-1.942-5.178-5.825-9.546-10.68-11.973 1.457 1.941 2.266 4.53 2.104 6.957 0 .647-.162 1.456-.485 1.942-.486.809-1.457 1.132-2.428 1.294-4.53.486-8.576-3.559-9.385-8.09-.809-4.53.809-9.061 2.589-13.106 4.207-9.384 9.709-15.533 16.505-22.652 5.987-6.31 10.194-15.209 18.446-19.093-16.342 7.605-29.611 21.682-36.083 38.509-1.618-8.737 1.941-17.474 4.692-25.888 1.78-5.34 4.854-14.724 2.266-20.225-2.913-5.825-9.385-5.663-11.974 1.456-1.295 3.721-.486 7.928.809 11.65 1.294 3.721 3.236 7.281 4.045 11.164 1.133 5.825-.162 11.973-1.78 17.798-1.942 6.958-4.207 13.915-6.634 20.711 1.941-6.958 2.427-14.401-.162-21.196-2.427-6.796-8.252-12.459-15.372-13.592 3.398 5.34 6.796 10.679 8.414 16.828 1.618 5.986.971 12.944-2.912 17.798-5.017 6.148-13.593 7.281-21.521 8.09.485-3.074 1.294-5.987 2.589-8.737-5.825 13.106-23.301 14.238-33.98 6.634-10.356-7.281-14.563-25.403-11.165-36.891 1.78-5.825 5.501-11.488 11.165-13.915 9.546-4.369 21.52.971 31.067-3.722-2.912-2.912-5.825-5.824-9.385-7.766-3.56-1.942-7.929-2.913-11.812-1.456-2.751.97-5.016 2.912-7.12 5.015-9.061 8.252-14.401 13.106-17.637 24.756-1.618 5.825-1.618 20.873-9.709 20.873-5.016-.324-8.252-11.165-10.841-14.886-4.531-6.472-10.194-12.297-16.666-16.989 5.339 4.854 9.223 11.326 11.003 18.445 1.618 6.634 2.103 28.801-10.033 26.536-3.398-.648-5.501-4.207-5.663-7.605-.162-3.398 1.295-6.634 2.751-9.708 11.165-23.138 28.317-43.363 49.514-58.087-11.812 8.09-23.624 16.827-33.333 27.506-4.207 4.692-8.414 9.87-11.974 14.886-4.207 5.825-6.311 13.591-10.194 19.902-.971 1.779-2.104 3.398-3.722 4.692-14.724 11.65-31.391-19.416-13.43-26.536-11.327 4.369-19.094 16.666-18.446 28.801-5.664-4.692-11.489-15.695-5.825-22.005 10.841-12.135 25.242-21.196 40.937-25.565-14.077 4.045-30.258 10.356-39.967 21.844-10.841 12.62-15.048 29.124-29.449 38.994 21.844 6.472 43.365 6.31 65.048 10.841 23.624 4.854 47.734 8.737 71.843 7.442 25.566-1.456 49.838-8.251 75.566-8.413 26.537-.162 52.912 2.75 79.287 2.912 37.054.324 74.433-5.986 111.487-8.899 30.582-2.265 61.326-3.398 92.07-3.074 14.401.162 24.433-1.456 35.76 7.605 9.062 7.281 19.579 15.047 31.553 19.739zM1453.61 309.673c32.85 13.106 77.35 19.901 112.62 19.254 13.27-.324 28.81-2.265 40.13-9.708 3.4-2.265 22.01-20.711 22.66-20.549-10.84-4.045-21.85-8.09-31.07-15.209-9.22-7.12-16.51-17.637-16.67-29.125.16 6.472-3.23 25.889-13.75 14.401-2.27-2.589-3.24-5.987-4.37-9.385-4.53-13.429-13.92-24.917-25.4-33.169-11.49-8.252-24.92-13.592-38.84-16.666 19.09 5.987 36.41 17.313 49.52 32.361 7.44 8.413 15.37 20.71 13.1 32.522-1.78.162-13.1-.162-13.59 1.941.97-4.53 4.53-8.252 7.93-11.488-5.18 3.722-9.06 9.223-10.68 15.372.81-5.987-2.1-16.666-4.53-22.329-.65-1.294-1.3-2.751-.97-4.207.32-1.456 2.42-2.427 3.23-1.133.33.486.33 1.133.49 1.619.65 4.045 5.34 6.31 9.22 5.663 4.05-.648 7.28-3.237 10.36-5.825-5.18 2.75-11.98 2.103-16.67-1.457-1.62-1.294-3.23-2.912-5.34-2.588-1.94.161-3.4 2.265-3.56 4.207-.16 1.941.65 3.883 1.3 5.663.48 1.456 1.13 2.75 1.61 4.206-4.85-8.737-9.54-17.151-20.22-19.416-3.4-.809-6.96 0-10.52.647-2.1.486-4.21.809-6.31 1.295.65 1.294 2.1 2.103 3.4 2.589 3.07.97 6.47.485 9.71-.162 3.23-.486 6.63-1.133 9.71-.486 5.17 1.133 11 9.547 11.97 14.563.65 3.074-.16 6.633-2.75 8.575-6.47 4.854-22.65-1.78-29.29-4.53-8.25-3.398-18.12-8.414-22.65-16.504-3.4-6.149 1.78-9.708 4.04-15.533 2.11-5.34 1.62-10.841 1.62-16.666 0-.971 0-2.103-.65-2.912-.48-.647-1.29-1.133-2.1-1.295-6.15-2.265-11.81.324-11.33 7.282.81 10.84 2.59 21.519 5.34 31.874a60.36 60.36 0 0 0-12.62-27.506c-2.26-2.75-4.85-5.339-8.25-6.148-3.4-.809-7.61.809-8.58 4.207-.97 3.559 1.78 6.795 4.37 9.384 4.05 4.207 8.25 8.414 12.3 12.621 7.61 7.766-2.43 22.975-6.31 30.742 3.4-6.634-14.4-34.464-17.96-39.965 2.1 4.854 14.4 39.803 2.43 36.567-3.89-.971-6.96-4.53-7.61-8.575-.32 1.456-2.1 2.427-3.4 1.941 1.46-1.941.33-5.339-2.1-5.825.65-5.663 2.1-11.164 4.21-16.342-5.99 9.709-9.23 21.196-9.23 32.523.81-6.149-1.29-12.621-4.69-17.799-3.4-5.339-8.09-9.546-12.62-13.915-2.59-2.427-5.34-5.016-8.9-5.825 11.65 7.12 19.09 20.388 19.26 33.979-3.4 1.132-6.64-1.78-8.9-4.531-3.73-4.53-7.12-9.384-9.07-14.885-7.6-21.035 14.89-31.066 32.04-34.95-13.1-.97-26.37 2.589-37.38 9.709-5.66 3.559-11 9.061-11 15.694-1.78-9.708-4.37-19.254-7.44-28.477-.81 8.576-.33 17.313 1.45 25.727-4.2-9.223-16.82-9.547-26.86-8.576 6.96 0 14.24.324 20.07 4.045 5.99 3.56 9.71 11.488 6.79 17.799-1.45 3.074-4.2 5.339-7.12 7.281-8.89 5.824-20.06 7.766-30.42 8.899-5.34.485-25.24 4.53-28.15-.809-1.3-2.266-.97-5.34.32-7.767 1.3-2.427 3.24-4.207 5.34-5.986 5.83-5.178 12.14-10.032 18.61-14.401-14.72 6.149-26.7 17.475-33.82 31.551-1.29-6.472-10.84-9.06-16.18-11.487 2.75 1.294 5.18 3.559 6.64 6.31 4.69 8.899-15.21 8.899-19.58 9.223-5.99.485-12.3.809-17.64-1.942-27.67-13.915 39.16-42.069 49.68-45.466-17.32 5.824-34.79 11.811-50.65 20.872-7.61 4.369-14.73 9.385-21.2 15.533-.32.324-15.53 15.533-15.86 12.782-1.94-16.503-11-31.227-19.74-45.142 5.18 7.443 20.39 34.463 8.9 41.259-2.1 1.133-4.37 1.78-6.63 2.104-8.09 1.456-16.18 2.75-24.27 1.132-2.92-.647-14.57-1.132-16.83-3.236-.49-.485-.49-1.133-.32-1.78.48-2.75 2.58-5.177 5.33-5.825-7.28 1.133-11.81 9.709-19.25 10.679-2.43.324-5.02-.161-7.28-.809-3.24-.809-13.43-.647-15.54-1.779-3.23-1.78-6.31-7.605.33-8.576-5.83.809-11.01 5.016-13.11 10.517-1.94-5.177-5.82-9.546-10.68-11.973 1.46 1.941 2.27 4.53 2.11 6.957 0 .647-.17 1.456-.49 1.942-.49.809-1.46 1.132-2.43 1.294-4.53.486-8.57-3.559-9.38-8.09-.81-4.53.81-9.061 2.59-13.106 4.2-9.384 9.71-15.533 16.5-22.652 5.99-6.31 10.2-15.209 18.45-19.093-16.35 7.605-29.61 21.682-36.09 38.509-1.61-8.737 1.95-17.474 4.7-25.888 1.78-5.34 4.85-14.724 2.26-20.225-2.91-5.825-9.38-5.663-11.97 1.456-1.3 3.721-.49 7.928.81 11.65 1.29 3.721 3.23 7.281 4.04 11.164 1.13 5.825-.16 11.973-1.78 17.798-1.94 6.958-4.2 13.915-6.63 20.711 1.94-6.958 2.43-14.401-.16-21.196-2.43-6.796-8.26-12.459-15.38-13.592 3.4 5.34 6.8 10.679 8.42 16.828 1.62 5.987.97 12.944-2.91 17.798-5.02 6.149-13.6 7.281-21.53 8.09.49-3.074 1.3-5.987 2.59-8.737-5.82 13.106-23.3 14.238-33.98 6.634-10.35-7.281-14.56-25.403-11.16-36.891 1.78-5.825 5.5-11.488 11.16-13.915 9.55-4.369 21.52.971 31.07-3.722-2.91-2.912-5.82-5.824-9.38-7.766-3.56-1.942-7.93-2.912-11.82-1.456-2.75.971-5.01 2.912-7.12 5.016-9.06 8.251-14.4 13.106-17.63 24.755-1.62 5.825-1.62 20.873-9.711 20.873-5.017-.324-8.253-11.165-10.842-14.886-4.53-6.472-10.194-12.297-16.666-16.989 5.34 4.854 9.223 11.326 11.003 18.445 1.618 6.634 2.103 28.801-10.032 26.536-3.398-.647-5.502-4.207-5.664-7.605-.162-3.398 1.295-6.634 2.751-9.708 11.165-23.138 28.317-43.363 49.511-58.087-11.81 8.09-23.621 16.827-33.33 27.506-4.207 4.693-8.414 9.87-11.974 14.886-4.207 5.825-6.311 13.591-10.194 19.902-.971 1.78-2.103 3.398-3.722 4.692-14.724 11.65-31.391-19.416-13.43-26.536-11.327 4.369-19.093 16.666-18.446 28.801-5.664-4.692-11.489-15.695-5.825-22.005 10.841-12.135 25.242-21.196 40.938-25.565-14.078 4.046-30.259 10.356-39.968 21.844-10.841 12.62-15.048 29.124-29.449 38.994 21.844 6.472 43.365 6.31 65.048 10.841 23.624 4.854 47.732 8.737 71.842 7.443 25.57-1.457 49.84-8.252 75.57-8.414 26.53-.162 52.91 2.751 79.28 2.912 37.06.324 74.44-5.986 111.49-8.899 30.58-2.265 61.33-3.398 92.07-3.074 14.4.162 24.43-1.456 35.76 7.605 9.06 7.281 19.58 15.047 31.55 19.74z"/><path d="M117.993 305.128c-38.088 14.714-82.17 4.708-122.962 2.472-.47 0 10.933-47.44 11.873-50.854 6.348-23.661 9.404-47.911-7.994-67.922-5.877-6.828-13.4-12.125-19.279-18.953-12.108-14.008-16.575-33.078-19.631-51.442 4.82 15.068 14.812 28.37 27.86 37.316 9.522 6.474 20.925 11.065 27.273 20.6 6.936 10.36 6.23 24.132 3.762 36.375 6.23-20.836 13.283-41.436 21.277-61.566-5.408.706-10.345-4.238-10.815-9.417-.118-1.766.117-3.414.47-5.18.47-1.766 1.058-3.414 1.646-5.179 9.052-24.956 19.631-49.324 30.211-73.691 2.234-5.297 4.938-10.948 10.11-13.42 5.407-2.59 11.755-.706 17.515 1.177 1.294.471 2.704.942 3.645 2.002.94 1.177 1.175 2.825 1.293 4.237 1.293 19.895-7.994 42.025-12.696 61.213-2.939 12.125-7.17 45.203-25.745 42.496-.94-.118-1.998-.353-2.938.118-.588.353-.94 1.177-1.293 1.765-5.996 13.067-11.403 26.369-16.576 39.671-4.114 10.594-9.404 18.835-11.05 30.136 5.525-21.072 23.511-36.257 43.025-44.498 15.282-6.474 32.445-9.77 44.671-20.953-9.405 11.536-21.16 21.189-34.444 27.899-12.93 6.592-27.39 10.594-38.322 20.247-8.7 7.652-14.107 18.011-18.574 28.488-2.586 5.885-3.997 8.24-1.763 14.126.353.824 5.172 10.712 6.23 9.888 1.176-1.06 1.176-2.825 1.058-4.473-.823-10.36-2.586-20.719-5.29-30.724 6.936 10.123 7.406 22.954 21.16 27.428 5.995-5.415 7.288-14.362 6.23-22.367-2.116-16.598-12.108-30.842-21.277-44.85-9.17-14.008-17.986-29.429-17.398-46.145 7.759 19.541 27.273 32.019 37.03 50.736 8.346 16.01 8.699 34.962 6.7 52.855-.117 1.177 4.232-2.472 4.467-2.708.94-1.294 1.529-6.003 2.116-7.651 2.234-6.592 5.055-13.067 7.641-19.423 3.292-7.887 6.348-16.01 8.934-24.132.823-2.59 4.232-20.719 5.878-21.307-2.939 1.059-6.23-1.648-6.936-4.709-.705-3.06.353-6.357 1.411-9.299a3804.345 3804.345 0 0 0 11.52-33.667c1.411-4.121 3.88-8.947 8.112-9.065 1.998 0 4.114 1.06 5.76.118 1.175-.706 1.763-2.001 2.233-3.296 5.408-14.95 10.933-29.9 16.34-44.968-4.819 16.598-9.639 33.196-14.341 49.677 2.116-.353 4.114 1.412 4.702 3.531.705 2.001.352 4.238-.118 6.357-2.703 13.773-8.111 26.839-13.4 39.906-.824 2.001-1.764 4.12-3.41 5.415-1.763 1.295-4.585 1.295-5.76-.471-2.704 6.71-5.525 13.067-7.759 20.13-6.112 19.541-11.167 39.788-20.219 58.034 23.51-47.44 67.946-61.566 112.734-81.225-20.572 9.065-40.908 20.248-58.542 34.138-17.868 14.244-32.797 35.315-45.258 54.268-2.586 4.002-5.29 8.24-5.995 13.066 4.702-4.826 7.17-11.183 12.343-16.127 5.995-5.768 12.813-10.241 20.337-13.89-9.757 4.826-22.688 12.948-17.516 25.191 1.881 4.355 6.583 9.3 11.873 7.652 5.643-1.766 4.585-9.536-1.293-9.182-.823 0-1.645.353-2.35.588-1.294.353-2.587.471-3.88.118-1.293-.353-2.351-1.413-2.586-2.708 1.41.236 2.939 0 4.232-.706 1.645-.824 3.174-2.236 4.82-1.883.705.117 1.292.588 1.88 1.059 1.881 1.648 2.939 4.238 2.939 6.71-.705-4.473-3.291-8.122-4.114-12.243-.353-2.118.117-4.59 1.998-5.768 1.88-1.295 4.467-.588 6.7-.353 3.762.589 7.524.236 11.051-1.059-.235 3.178-2.234 6.239-5.173 7.651-1.645.942-3.879 1.413-5.76 1.177-1.175-.235-3.291-2.001-4.232-.47-.47.706-.352 1.53-.235 2.354.588 2.825 1.999 5.415 1.999 8.24 0 1.295-.236 2.708.235 3.885.823 1.883 3.409 2.472 5.29 1.648 5.29-2.472 7.17-12.007 8.111-17.069 2.233-12.125 1.41-24.956-2.821-36.61 3.526 10.712 5.642 22.131 5.642 33.314 0 7.416-1.293 21.424-5.172 27.663 4.937-7.769 8.346-16.598 9.757-25.78-.353 5.415-.588 10.83-.941 16.245 5.055-11.183 17.163-22.484 27.273-29.076 11.755-7.534 25.509-11.654 39.498-12.949a110.242 110.242 0 0 0-46.316 25.898c-5.055 4.709-10.11 11.065-8.817 17.893 1.411 8.122 10.462 21.071 17.516 25.309-9.522 4.591-18.104 7.416-27.39 10.948z"/><path d="M202.905 202.431c-1.178-1.169-2.749-1.949-4.32-2.339-3.666-.909-7.594-.519-10.998 1.17 1.178-1.819 2.357-3.638 3.404-5.587 1.44-.78 2.88-1.43 4.451-1.819 1.964-.52 4.321-1.04 4.976-2.989a1.788 1.788 0 0 0 0-1.169c-.393-1.299-2.357-1.169-3.535-.65-1.179.52-2.226 1.17-3.273 1.949.785-1.559 1.702-3.248 2.356-4.937 1.702-4.028 3.535-8.315 3.404-12.603a13.148 13.148 0 0 0-1.571-5.457c.786 1.559 1.178 3.768 1.178 5.457 0 1.559-.261 3.378-1.047 4.937-.262-.649-.262-1.039-.393-1.689-.131-.65-.262-1.559-.654-2.209-.262-.389-.655-.909-1.048-.779-.262 0-.393.26-.523.52-.131.259 0 .519 0 .779.392 1.429 2.356 2.079 2.356 3.638 0 .26 0 .52-.131.65-.262 1.039-.654 1.949-1.047 2.858 0 .13-.131.26-.131.39l.131-.26c-.917 1.949-2.095 3.768-3.404 5.587.131-1.299.262-2.729 0-4.028-.262-1.299-.917-2.728-1.964-3.508-.524-.39-1.44-.779-2.095-.39-.655.26-.916 1.04-.785 1.819.13.65.523 1.3.916 1.819 1.702 2.339 3.666 4.288 2.095 7.146-1.571 2.729-3.928 4.678-5.761 7.147-1.702 2.468-3.273 5.067-4.844 7.795.655-5.847.785-13.772-2.619-17.67-1.44-1.689-4.189-2.339-5.891-.91-.655.52-1.179 1.3-1.44 2.079-2.488 5.717-.655 12.214 1.178 18.06 1.047 3.378 2.095 6.886 2.487 10.395-1.047 2.078-1.963 4.287-2.88 6.366-.524-7.016-3.404-13.902-8.117-19.229-2.357-2.599-5.499-4.938-9.034-4.678-2.75.26-5.237 2.339-6.285 4.938-1.178 2.598-1.047 5.457-.392 8.185 1.702 6.107 6.546 10.784 11.783 14.422 3.011 2.079 5.761 4.288 8.641 6.626-.131 2.859-1.047 5.327-1.571 8.186-.262 1.299-.917 4.158-.524 5.327-1.833-4.548-6.546-13.383-11.783-9.875-.786.52-1.309 1.3-1.571 2.209-1.309 3.638.785 7.536 3.404 10.265 1.702 1.819 5.106 4.157 7.201 7.016v.519l.262-.259c.392.519.654 1.039.916 1.559l-1.178 7.406c-.786-4.938-2.75-9.225-5.761-10.135-.916-.26-1.964.13-2.749.65-1.31.779-2.357 1.949-2.488 3.508-.131 2.079 1.571 3.768 3.011 5.327 4.19 4.807 5.368 10.784 4.714 16.891-.262.909-.393 1.689-.655 2.598l-1.178 3.118c.262-.519.392-.909.654-1.429-2.618 9.225-6.415 17.93-11.783 25.856 7.856-7.796 12.307-18.45 14.926-29.234l1.571-1.169c1.833-1.17 3.927-2.209 5.891-3.248.786-.39 1.702-.91 2.226-1.56 1.309-1.559.786-4.417-1.309-5.067-1.571-.52-3.535 1.17-4.583 2.079-.916.78-1.702 1.689-2.356 2.599l1.178-6.627c1.571-2.338 3.535-4.677 6.284-5.587 1.179-.389 2.488-.649 3.666-1.039 1.048-.39 2.095-.91 3.012-1.559 1.047-.65 1.964-1.559 2.487-2.599.524-1.039.655-2.468 0-3.508-1.047-1.689-3.404-1.949-5.237-1.559-3.797.78-6.677 3.118-8.641 6.237.131-.65.131-1.17.262-1.819.655-2.079 1.178-4.158 1.178-6.237 3.012-2.339 6.547-1.949 9.82-3.508 1.833-.91 3.404-3.248 2.356-4.937-2.618-4.808-8.379-.65-11.39 2.728.785-3.638 1.571-7.146 2.618-10.654.786-.13 1.571-.26 2.357-.13 2.749.13 5.499 1.04 8.248 1.819 3.012.91 6.023 1.429 9.165 1.04 3.011-.39 6.154-1.949 7.725-4.548 1.702-2.598 1.571-6.366-.655-8.445-4.451-4.418-16.889-2.989-22.781-1.3 1.178-2.858 2.488-5.716 3.928-8.445 1.047-2.079 2.357-4.158 3.535-6.107.785-.259 1.702-.389 2.487-.519 2.357-.13 4.583.39 6.809.909 2.225.52 4.582 1.04 6.939.65 1.44-.26 2.88-.78 4.058-1.689 1.048-.78 1.964-1.689 2.226-2.988-.262-1.56-.916-3.249-2.095-4.548zM1185.29 213.022c-2.91-20.872-7.28-41.583-14.24-61.646-11.48-33.17-26.86-64.721-37.05-98.376 39.48 61.485 57.12 138.179 62.14 210.181.32 4.045 4.2 22.49-3.08 19.416-6.47-2.751-3.24-23.947-3.72-30.095-.97-13.268-2.27-26.374-4.05-39.48zM1189.26 133.429c-.81.647-2.1.971-3.72 1.294-1.46-13.267-3.08-26.535-4.53-39.641-1.3-11.488-4.7-24.594-3.89-36.082 4.21 19.578 7.77 39.318 11.65 58.896 1.14 5.987 5.18 12.459.49 15.533zM1054.92 212.617c-5.99 1.78-9.06 9.061-7.77 15.21 1.3 6.148 5.99 11.002 11.17 14.4 5.18 3.398 11 5.825 16.34 9.061 5.18 3.074 10.03 7.281 12.3 12.944-4.86-9.385-.81-20.711-4.37-30.419-3.4-9.384-16.5-24.594-27.67-21.196zM1200.18 71.974c-1.61 2.912-2.1 6.31-2.59 9.546a102.385 102.385 0 0 0 1.46 31.39c.65 3.236 1.62 6.795 4.05 9.061 1.94 1.941 4.69 2.912 7.44 3.883 3.88 1.294 7.6 2.589 11.49 3.883.81.324 1.78.485 2.59.162.81-.486.97-1.295 1.29-2.265 3.24-13.754 8.09-36.406 4.37-50.644-3.56-12.944-22.65-18.931-30.1-5.016zM1443.13-59.181c2.59 24.108 5.18 48.217 6.96 72.487 1.13 14.724 2.1 29.448 2.27 44.172 0 10.355-3.4 21.358 3.72 30.58 1.13 1.618 2.75 3.074 4.85 3.236 4.53.324 6.47-5.5 6.8-10.031 3.4-39.318 5.98-78.636 4.69-118.116-.65-19.416-1.62-39.641-5.34-58.734-2.1-10.841-5.34-27.668-10.68-37.214-4.37-7.605-14.4-12.621-22.01-8.252 2.43 22.167 4.86 44.334 7.29 66.339 5.5 50.32 6.14 101.611 8.25 152.417.16 3.721.32 7.766 2.26 11.002 4.21 7.605 14.57 8.576 23.3 8.576.17-34.14 9.55-67.31 13.92-101.126 4.37-33.817 3.24-70.384-15.37-98.861l-30.91 43.525zM22.521 209.728c0 4.862.747 9.599.872 14.461.25 7.979-.125 15.957-1.12 23.811.87-1.496 2.116-3.117 3.736-2.867-.125-4.738-.25-9.35-.499-14.087-.249-5.984-1.868-14.835 2.99-19.323 4.483-4.239 10.586-5.111 14.447-10.597 6.725-9.599 2.74-25.805 11.707-33.908-3.612 3.241-7.597 5.859-12.08 7.729-5.232 2.119-9.342 7.23-11.584 12.217-.996 2.244-1.868 4.488-2.49 6.856.747-5.859.871-11.718 1.37-17.951.747-8.727 6.6-8.851 14.447-11.843 13.825-5.361 24.66-17.827 28.023-32.164-1.246 2.618-4.11 4.239-6.975 4.987-2.864.623-5.853.499-8.718.623-6.227.125-12.455 1.496-17.686 4.987-3.113 2.119-5.604 4.862-7.473 8.103.623-4.363 1.246-8.602 2.118-12.84.498-2.12.996-4.364 1.494-6.483 2.491-2.618 5.356-4.737 8.47-6.483 4.608-2.493 9.839-3.864 14.322-6.731 14.821-9.35 16.814-30.294 28.148-43.633-9.84 11.22-27.4 11.719-39.481 20.445-.125.125-.374.25-.498.374 2.989-8.726 6.6-17.204 10.96-25.182 7.597 1.87 15.692-1.995 21.048-7.73 5.355-5.734 8.47-13.089 11.583-20.444C79.688 45.67 70.347 51.28 62.5 58.51c4.732-7.231 10.96-13.838 16.19-20.695C84.422 30.212 90.4 22.856 97 16 84.172 29.214 72.09 41.93 61.006 56.64c10.96-14.585-5.48-19.946-5.605-32.786-2.241 3.99-3.611 8.602-5.604 12.84-1.37 2.992-2.616 6.233-2.242 9.6.747 8.601 10.462 11.469 8.345 20.32-1.62 6.731-7.722 11.843-10.836 17.827 1.744-3.242.498-11.096-.249-14.586-1.12-5.735-3.238-11.22-6.227-16.082-4.609-7.48-11.21-13.713-16.191-20.943-3.363 12.715-5.73 26.803-.25 38.77 2.616 5.735 6.85 10.472 10.338 15.708 3.114 4.612 5.854 9.848 6.103 15.334-.125.249-.25.498-.25.872-.124.125-.124.25-.248.25-2.491-9.974-18.932-14.462-26.03-20.695-3.862-3.366-7.598-8.103-7.349-12.965-1.12 7.979-1.744 15.957 0 23.811 1.868 8.353 6.85 16.331 14.447 19.822 2.367 1.122 4.858 1.745 6.975 2.992 7.722 4.363 5.605 13.463 3.861 20.943.747-3.49-.25-7.355-2.491-10.222-2.242-2.868-5.48-4.862-8.843-6.109-6.725-2.368-12.828-5.734-14.82-13.214-.499 4.737-.997 9.599-.125 14.212.871 4.737 3.113 9.349 7.099 11.967 2.74 1.746 5.978 2.369 8.967 3.865 3.861 1.995 6.85 5.485 8.345 9.599-.748 5.485.124 18.076-4.484 21.193-.249-4.363-.374-9.724-3.985-12.841-3.114-2.867-7.847-2.742-12.081-3.241-4.858-.623-9.59-2.119-13.576-4.986l5.106 9.973c2.367 4.612 4.858 9.35 9.217 12.092 3.363 2.12 7.348 2.868 10.71 4.987 8.096 5.36 4.983 22.065 3.862 30.168-.25 1.247-.374 2.992-.374 4.613z"/></g><defs><clipPath id="a"><path fill="#fff" d="M0 0h1440v300H0z"/></clipPath></defs></svg>