<svg width="1440" height="300" fill="none" xmlns="http://www.w3.org/2000/svg"><g clip-path="url(#a)" fill="#024431"><path d="M914.461 203.211c0-.179-.045-.358-.09-.582.045.179.09.403.09.582z"/><path d="M914.774 216.804c-.716 2.728-2.907 3.891-5.322 4.74-1.252.447-2.37 1.163-3.175 2.191-.804 1.029-1.207 2.415-.894 3.667-.626-2.683-1.386-5.947 1.386-7.512.805-.447 1.7-.671 2.505-1.073 2.772-1.252 4.561-4.159 5.187-7.11.626-2.772.357-5.679 0-8.541.089 1.789-1.252 3.443-2.639 4.651-2.548 2.235-8.451 3.845-9.345 7.422-.045-.044-.045-.089-.09-.089a.642.642 0 0 1-.089-.313c.134-1.967 1.073-3.845 2.191-5.5 1.297-1.878 2.772-3.577 3.711-5.634 1.968-4.293 1.118-9.345-.089-13.906-1.789 2.638-4.159 4.829-5.813 7.512-1.074 1.744-1.878 3.756-2.236 5.768-.224 1.297-.671 4.069-.09 5.232-1.431-2.728-2.817-5.947-4.963-8.138-.134-.224-.313-.448-.447-.671.089-.403.268-.805.447-1.163.492-.939 1.118-1.788 1.431-2.817.67-2.101-.09-5.768-1.521-7.467-.76 2.459-2.727 5.053-2.772 7.691v.357c-3.756-4.918-8.183-9.39-13.147-13.101 4.069 4.203 7.691 8.809 11.269 13.459-.671-.402-1.387-.76-2.102-1.118-2.459-1.118-5.366-1.967-6.886-4.158a132.678 132.678 0 0 0 6.394 9.345c.671.895 1.386 1.789 2.325 2.37 1.61.984 3.623.939 5.366 1.565.358.134.671.268.984.447l1.073 1.878c.895 1.789 1.61 3.622 2.236 5.5-.044-.044-.134-.089-.179-.134-4.382-3.13-10.642-3.309-14.175-7.333 4.069 4.784 4.785 12.296 10.106 15.65 1.61 1.029 3.443 1.52 5.143 2.415 1.118.626 2.146 1.386 3.04 2.325.179.76.358 1.565.537 2.325.313 1.52.537 3.085.76 4.606-.715-1.118-1.61-2.147-2.683-2.907-1.833-1.252-4.114-1.744-6.35-1.788-1.073-.045-2.101 0-3.13-.224-1.028-.224-2.057-.805-2.504-1.789 1.207 5.187 5.098 9.614 10.061 11.537 1.834.715 3.891 1.118 5.277 2.549.045.044.045.089.089.089.09 1.028.135 2.102.224 3.13.581 8.317.76 16.455.268 24.772 3.712-6.841 2.415-15.918 1.431-23.699.045.179.09.403.134.582-.089-.895-.223-1.789-.313-2.639h-.044a41.36 41.36 0 0 0-.447-4.024 174.417 174.417 0 0 0-.805-6.752c.536-1.476 1.609-2.728 2.996-3.443 1.028-.537 2.236-.76 3.219-1.386 1.431-.939 2.281-2.594 2.549-4.293.268-1.61.09-3.353-.089-5.053z"/><path d="M881.28 191.272c-.09-.178-.224-.357-.313-.536.045.179.179.358.313.536zM64.637 176.03c-7.734 8.044-14.85 17.48-18.408 27.844.154-3.249 0-6.497-.465-9.591-2.63-22.893-17.325-16.087-27.226-1.701a42.584 42.584 0 0 0-2.63 4.486c2.94-8.353 5.879-16.552 8.973-24.905 2.939-8.043 5.878-16.86 3.558-25.213-6.652 3.557-11.293 8.817-15.47 15.004-.928-14.695 9.437-34.959 13.768-49.19.928-3.403 2.011-6.961.774-10.209-.31-.928-10.365 8.353-11.138 9.281-2.63 3.712-3.868 7.889-6.188 11.601 5.26-27.224 10.983-53.676 21.038-79.353 9.9-25.214 19.492-51.666 35.89-73.63C52.88-10.52 38.492 7.422 27.82 28.77 16.991 50.116 6.782 72.7 1.677 96.058c-3.558 15.933-6.188 32.793-4.177 48.881 2.32 18.562-.31 38.671.619 57.543.619 12.993-.155 26.296 2.166 39.135 1.082 6.497 3.093 12.53 5.878 18.408.31.773 8.044 14.231 9.282 11.447 4.95-9.591 13.303-17.325 23.358-21.347 4.641-1.856 10.055-3.403 12.221-7.734 6.497-12.839 1.238-30.319 5.57-44.086 2.474-7.579 6.96-14.231 11.91-20.418 9.591-12.22 21.039-23.048 33.569-32.33-13.613 8.508-26.298 18.717-37.436 30.473zM1418.81-105.929c-.46-.619-1.08-1.238-1.54-1.856 14.38-6.961 32.64-18.563 37.12-34.65 1.4-4.795 1.55-10.983-2.78-13.767-2.63-1.702-6.03-1.238-8.97-.619-13.15 2.784-25.53 9.127-35.58 18.253 3.09-10.055 4.64-20.573 4.79-31.092.16-3.558-2.94-19.954-2.01-21.965-7.58 17.479-11.14 36.66-10.05 55.687-1.24-22.43-19.19-46.406-33.88-62.493-3.4-3.713-12.38-10.983-16.24-5.105-2.79 4.331 4.17 19.026 6.03 23.203 6.5 14.695 16.71 27.534 27.07 39.599-3.09-15.623-21.81-26.141-36.66-20.573 2.78-1.083 21.04 19.336 23.67 21.811a470.533 470.533 0 0 1 23.97 25.832 450.953 450.953 0 0 1 40.84 55.687c24.75 39.6 44.86 83.53 58.48 128.08-2.94-9.745-1.09-26.606-1.55-37.124-.77-13.458-.93-26.761-2.32-40.219-.77-7.27-1.7-14.54-4.95-21.037-2.63-5.26-6.5-9.745-10.37-14.231-18.4-21.037-36.81-42.23-55.07-63.421zM692.851 279.052c31.403 12.529 73.943 19.026 107.667 18.407 12.684-.309 27.535-2.165 38.364-9.281 3.248-2.166 21.038-19.8 21.657-19.645-10.365-3.867-20.884-7.734-29.701-14.54-8.818-6.807-15.779-16.861-15.934-27.844.155 6.188-3.094 24.75-13.149 13.767-2.166-2.475-3.094-5.723-4.177-8.972-4.331-12.839-13.303-23.821-24.287-31.71-10.983-7.889-23.822-12.994-37.126-15.933 18.254 5.724 34.806 16.552 47.336 30.937 7.116 8.044 14.696 19.8 12.53 31.092-1.701.155-12.53-.155-12.994 1.856.928-4.331 4.332-7.889 7.58-10.982-4.95 3.557-8.663 8.817-10.21 14.695.774-5.724-2.011-15.933-4.331-21.347-.619-1.237-1.238-2.629-.928-4.022.309-1.392 2.32-2.32 3.094-1.082.309.464.309 1.082.464 1.546.618 3.868 5.105 6.033 8.817 5.414 3.868-.618 6.962-3.093 9.901-5.568-4.95 2.629-11.448 2.011-15.934-1.392-1.547-1.238-3.094-2.785-5.105-2.475-1.856.154-3.248 2.165-3.403 4.021-.155 1.857.619 3.713 1.238 5.414.464 1.393 1.083 2.63 1.547 4.022-4.641-8.353-9.127-16.396-19.337-18.562-3.249-.773-6.652 0-10.055.619-2.011.464-4.022.773-6.033 1.237.618 1.238 2.011 2.011 3.248 2.475 2.939.928 6.188.464 9.282-.154 3.094-.465 6.342-1.083 9.281-.465 4.951 1.083 10.52 9.127 11.448 13.922.619 2.939-.155 6.342-2.63 8.199-6.188 4.64-21.657-1.702-28-4.332-7.889-3.248-17.325-8.043-21.657-15.778-3.248-5.878 1.702-9.281 3.868-14.85 2.011-5.104 1.547-10.363 1.547-15.932 0-.928 0-2.011-.619-2.784-.464-.619-1.238-1.083-2.011-1.238-5.879-2.166-11.293.309-10.829 6.961.774 10.364 2.475 20.573 5.105 30.473a57.678 57.678 0 0 0-12.066-26.297c-2.166-2.629-4.641-5.104-7.889-5.878-3.249-.773-7.271.774-8.199 4.022-.928 3.403 1.702 6.497 4.177 8.972 3.867 4.022 7.889 8.044 11.756 12.065 7.271 7.425-2.32 21.966-6.033 29.391 3.249-6.342-13.767-32.948-17.171-38.208 2.011 4.641 13.768 38.053 2.321 34.959-3.713-.928-6.652-4.331-7.271-8.198-.309 1.392-2.011 2.32-3.249 1.856 1.393-1.856.31-5.104-2.011-5.568.619-5.414 2.012-10.674 4.023-15.624-5.724 9.281-8.818 20.264-8.818 31.092.773-5.878-1.238-12.065-4.486-17.015-3.249-5.105-7.735-9.127-12.066-13.303-2.475-2.321-5.105-4.796-8.508-5.569 11.138 6.806 18.254 19.49 18.408 32.484-3.248 1.083-6.342-1.701-8.508-4.331-3.558-4.331-6.807-8.972-8.663-14.231-7.27-20.109 14.232-29.7 30.629-33.412-12.53-.928-25.215 2.475-35.734 9.281-5.414 3.403-10.519 8.662-10.519 15.004-1.702-9.281-4.177-18.407-7.116-27.224a82.072 82.072 0 0 0 1.392 24.595c-4.022-8.817-16.088-9.127-25.679-8.199 6.652 0 13.613.31 19.182 3.867 5.724 3.404 9.282 10.983 6.497 17.016-1.392 2.939-4.022 5.105-6.806 6.961-8.508 5.568-19.182 7.425-29.083 8.507-5.104.465-24.132 4.332-26.916-.773-1.238-2.166-.928-5.105.309-7.425 1.238-2.32 3.094-4.022 5.105-5.723 5.569-4.95 11.602-9.591 17.79-13.767-14.077 5.878-25.525 16.706-32.331 30.163-1.238-6.187-10.365-8.662-15.47-10.982 2.63 1.237 4.951 3.403 6.343 6.032 4.486 8.508-14.541 8.508-18.718 8.818-5.724.464-11.757.773-16.862-1.857-26.452-13.303 37.436-40.218 47.491-43.466-16.552 5.568-33.259 11.292-48.419 19.954-7.27 4.177-14.077 8.972-20.265 14.85-.309.309-14.85 14.85-15.16 12.22-1.856-15.778-10.519-29.854-18.872-43.157 4.95 7.115 19.491 32.948 8.508 39.445-2.011 1.082-4.177 1.701-6.343 2.011-7.734 1.392-15.469 2.629-23.204 1.082-2.784-.618-13.922-1.082-16.088-3.093-.464-.464-.464-1.083-.309-1.702.464-2.63 2.475-4.95 5.105-5.569-6.962 1.083-11.293 9.282-18.409 10.21-2.32.309-4.795-.155-6.961-.774-3.094-.773-12.84-.618-14.851-1.701-3.094-1.702-6.033-7.271.31-8.199-5.569.774-10.52 4.796-12.531 10.055-1.856-4.95-5.569-9.127-10.209-11.447 1.392 1.856 2.165 4.331 2.011 6.652 0 .618-.155 1.392-.464 1.856-.464.773-1.393 1.083-2.321 1.237-4.331.464-8.199-3.403-8.972-7.734-.773-4.331.773-8.662 2.475-12.529 4.022-8.972 9.282-14.85 15.779-21.656 5.723-6.033 9.746-14.541 17.635-18.253-15.624 7.27-28.309 20.728-34.497 36.815-1.547-8.353 1.857-16.706 4.486-24.75 1.702-5.105 4.641-14.076 2.166-19.336-2.784-5.568-8.972-5.414-11.447 1.393-1.238 3.557-.464 7.579.773 11.137 1.238 3.558 3.094 6.961 3.868 10.673 1.082 5.569-.155 11.447-1.702 17.016-1.856 6.651-4.022 13.303-6.343 19.799 1.857-6.651 2.321-13.767-.154-20.263-2.321-6.497-7.89-11.911-14.696-12.994 3.248 5.105 6.497 10.209 8.044 16.087 1.547 5.724.928 12.375-2.785 17.016-4.795 5.878-12.994 6.961-20.574 7.734.464-2.939 1.238-5.723 2.475-8.353-5.569 12.53-22.276 13.612-32.485 6.342-9.901-6.961-13.923-24.286-10.674-35.268 1.701-5.569 5.259-10.983 10.674-13.303 9.126-4.177 20.574.928 29.701-3.558-2.785-2.784-5.569-5.569-8.972-7.425-3.404-1.856-7.58-2.784-11.293-1.392-2.63.928-4.796 2.784-6.807 4.795-8.662 7.889-13.767 12.53-16.861 23.667-1.547 5.569-1.547 19.955-9.282 19.955-4.795-.31-7.889-10.674-10.364-14.232-4.332-6.187-9.746-11.756-15.934-16.242 5.105 4.641 8.818 10.829 10.519 17.635 1.547 6.342 2.011 27.534-9.591 25.368-3.248-.619-5.259-4.022-5.414-7.27-.155-3.248 1.238-6.342 2.63-9.281 10.674-22.12 27.071-41.456 47.336-55.532-11.293 7.734-22.585 16.087-31.867 26.296-4.022 4.486-8.044 9.436-11.447 14.231-4.022 5.569-6.033 12.994-9.746 19.027-.928 1.701-2.011 3.248-3.558 4.486-14.077 11.137-30.01-18.563-12.839-25.369-10.829 4.177-18.254 15.933-17.635 27.534-5.415-4.486-10.984-15.004-5.569-21.037 10.364-11.602 24.132-20.264 39.137-24.44-13.458 3.867-28.928 9.899-38.209 20.882-10.365 12.066-14.387 27.843-28.155 37.279 20.884 6.188 41.458 6.033 62.187 10.364 22.586 4.641 45.635 8.353 68.684 7.116 24.442-1.392 47.646-7.889 72.242-8.044 25.37-.154 50.585 2.63 75.8 2.785 35.425.309 71.159-5.724 106.584-8.508 29.237-2.166 58.629-3.249 88.021-2.939 13.768.154 23.359-1.392 34.187 7.27 8.663 6.961 18.718 14.386 30.166 18.872z"/><path d="M147.328 288.574c-40.82 15.75-88.066 5.04-131.784 2.646-.503 0 11.718-50.778 12.725-54.433 6.804-25.326 10.08-51.282-8.567-72.702-6.3-7.308-14.363-12.978-20.662-20.286-12.977-14.994-17.764-35.406-21.04-55.062 5.166 16.128 15.875 30.366 29.86 39.942 10.204 6.93 22.425 11.844 29.229 22.05 7.433 11.088 6.677 25.83 4.031 38.934 6.678-22.302 14.237-44.352 22.804-65.898-5.795.756-11.087-4.536-11.59-10.08-.127-1.89.125-3.654.503-5.544.504-1.89 1.134-3.654 1.764-5.544 9.701-26.712 21.04-52.794 32.379-78.877 2.394-5.67 5.291-11.718 10.835-14.364 5.795-2.772 12.599-.756 18.772 1.26 1.386.504 2.898 1.008 3.906 2.142 1.008 1.26 1.26 3.024 1.386 4.536 1.386 21.295-8.567 44.983-13.607 65.52-3.15 12.979-7.685 48.385-27.592 45.487-1.007-.126-2.141-.378-3.15.126-.63.378-1.007 1.26-1.385 1.89-6.425 13.986-12.22 28.224-17.764 42.462-4.41 11.34-10.08 20.16-11.843 32.256 5.921-22.554 25.197-38.808 46.111-47.628 16.379-6.93 34.773-10.458 47.876-22.428-10.079 12.348-22.678 22.68-36.915 29.862-13.858 7.056-29.355 11.34-41.072 21.672-9.323 8.19-15.118 19.278-19.906 30.492-2.772 6.3-4.284 8.82-1.89 15.121.378.882 5.544 11.466 6.678 10.584 1.26-1.134 1.26-3.024 1.133-4.788-.881-11.089-2.771-22.177-5.669-32.887 7.433 10.836 7.937 24.571 22.678 29.359 6.425-5.797 7.811-15.373 6.677-23.941-2.267-17.766-12.977-33.012-22.804-48.006-9.827-14.994-19.276-31.5-18.646-49.392 8.315 20.916 29.23 34.272 39.686 54.306 8.946 17.136 9.324 37.422 7.182 56.574-.126 1.26 4.535-2.646 4.787-2.898 1.008-1.386 1.638-6.426 2.268-8.19 2.394-7.056 5.418-13.986 8.19-20.79 3.527-8.442 6.803-17.136 9.575-25.83.881-2.772 4.535-22.176 6.299-22.806-3.15 1.134-6.677-1.764-7.433-5.04-.756-3.276.378-6.804 1.511-9.954a4023.743 4023.743 0 0 0 12.347-36.036c1.512-4.41 4.158-9.576 8.694-9.702 2.141 0 4.409 1.134 6.173.126 1.26-.756 1.89-2.142 2.394-3.528 5.795-16.002 11.717-32.005 17.512-48.133-5.165 17.766-10.331 35.533-15.37 53.173 2.267-.378 4.409 1.512 5.039 3.78.756 2.142.378 4.536-.126 6.804-2.898 14.742-8.693 28.728-14.363 42.714-.881 2.142-1.889 4.41-3.653 5.796-1.89 1.386-4.914 1.386-6.174-.504-2.897 7.182-5.921 13.986-8.315 21.546-6.551 20.916-11.969 42.588-21.67 62.118 25.198-50.778 72.821-65.898 120.823-86.94-22.048 9.702-43.844 21.672-62.742 36.54-19.15 15.246-35.151 37.8-48.506 58.086-2.772 4.285-5.67 8.821-6.425 13.987 5.04-5.166 7.685-11.97 13.229-17.263 6.425-6.174 13.732-10.962 21.796-14.868-10.457 5.166-24.316 13.86-18.773 26.965 2.016 4.662 7.056 9.954 12.725 8.19 6.048-1.89 4.914-10.206-1.386-9.828-.882 0-1.764.378-2.519.63-1.386.378-2.772.504-4.158.126-1.386-.378-2.52-1.512-2.772-2.898 1.512.252 3.15 0 4.536-.756 1.764-.882 3.401-2.394 5.165-2.016.756.126 1.386.63 2.016 1.134 2.016 1.764 3.15 4.536 3.15 7.182-.756-4.788-3.528-8.695-4.41-13.105-.378-2.268.126-4.914 2.142-6.174 2.016-1.386 4.788-.63 7.181-.378 4.032.63 8.064.252 11.843-1.134-.252 3.402-2.394 6.678-5.543 8.191-1.764 1.008-4.158 1.512-6.174 1.26-1.26-.252-3.527-2.143-4.535-.505-.504.756-.378 1.638-.252 2.52.63 3.025 2.142 5.797 2.142 8.821 0 1.386-.252 2.898.252 4.158.881 2.016 3.653 2.646 5.669 1.764 5.669-2.646 7.685-12.852 8.693-18.271 2.394-12.978 1.512-26.712-3.024-39.186 3.78 11.466 6.048 23.688 6.048 35.658 0 7.939-1.386 22.933-5.544 29.611 5.292-8.316 8.946-17.766 10.457-27.595-.377 5.796-.629 11.593-1.007 17.389 5.417-11.97 18.394-24.067 29.229-31.123 12.599-8.064 27.339-12.474 42.332-13.86a118.183 118.183 0 0 0-49.639 27.721c-5.418 5.04-10.835 11.844-9.45 19.152 1.512 8.694 11.213 22.554 18.773 27.09-10.205 4.914-19.402 7.938-29.356 11.718zM461.364 201.328c-.678-.854-1.694-1.366-2.71-1.793-2.287-.855-4.828-.769-7.115.085.847-1.11 1.694-2.306 2.541-3.417a11.575 11.575 0 0 1 3.049-.939c1.271-.256 2.88-.427 3.388-1.623.085-.256.169-.512.085-.769-.254-.854-1.44-.939-2.287-.683-.762.256-1.525.598-2.202 1.025.677-1.025 1.27-2.05 1.863-3.075 1.101-1.964 3.811-7.004 2.372-9.139-.339 3.075-1.101 5.723-2.965 8.285-2.032 2.904-4.827 5.296-7.114 8.029a63.119 63.119 0 0 0-3.557 4.783c.847-3.758 1.355-8.968-.593-11.702-.847-1.195-2.541-1.793-3.811-1.025-.509.342-.763.769-1.102 1.282-1.948 3.587-1.185 7.943-.338 11.872.508 2.221.931 4.612.931 6.918a37.526 37.526 0 0 0-2.286 4.015c.084-4.612-1.271-9.31-3.981-13.068-1.355-1.879-3.219-3.588-5.505-3.588-1.779 0-3.473 1.196-4.404 2.819-.847 1.623-1.017 3.502-.763 5.296.678 4.099 3.558 7.43 6.691 10.164 1.525 1.281 3.219 2.647 4.32 4.27-.509 1.281-.932 2.648-1.186 3.929a5.58 5.58 0 0 1 1.44-1.025c-.593 2.136-1.101 4.271-1.609 6.406-.847-3.075-3.388-9.224-7.03-7.174-.508.256-.932.768-1.186 1.281-1.101 2.221 0 4.954 1.609 6.918 1.017 1.281 3.049 3.075 4.235 5.04 0 .085 0 .256-.085.341.085 0 .085-.085.17-.171l.508 1.025c-.424 1.623-.762 3.161-1.186 4.783-.169-3.245-1.186-6.235-3.049-7.003-.593-.257-1.27-.086-1.863.256-.847.427-1.694 1.196-1.863 2.135-.254 1.367.762 2.563 1.609 3.673 2.456 3.416 2.795 7.345 1.948 11.274-.17.513-.424 1.111-.593 1.623-.339.684-.678 1.281-1.016 1.965.169-.342.338-.598.508-.854-2.287 5.808-5.167 11.359-9.232 16.228 5.59-4.612 9.062-11.274 11.349-18.193.339-.256.678-.427 1.101-.598 1.271-.683 2.626-1.196 3.981-1.793.593-.257 1.101-.513 1.524-.94.932-.94.763-2.904-.508-3.417-1.016-.427-2.371.598-3.134 1.111-.677.427-1.185.939-1.693 1.537a79.701 79.701 0 0 0 1.101-4.27c1.185-1.452 2.54-2.819 4.404-3.331.762-.171 1.609-.257 2.371-.427a6.907 6.907 0 0 0 2.033-.855c.677-.427 1.355-.854 1.694-1.537a2.47 2.47 0 0 0 .169-2.306c-.508-1.196-2.032-1.452-3.303-1.367-2.456.256-4.489 1.623-5.929 3.588.085-.427.17-.769.255-1.196.508-1.281 1.016-2.648 1.185-4.015 2.033-1.366 4.32-.854 6.522-1.708 1.27-.512 2.371-1.879 1.863-3.16-1.44-3.331-5.42-.94-7.453 1.11.677-2.306 1.524-4.612 2.371-6.833.509-.085 1.017 0 1.525 0 1.778.256 3.472 1.025 5.166 1.708 1.864.769 3.812 1.282 5.844 1.282 2.033-.086 4.066-.854 5.251-2.477 1.186-1.623 1.355-4.015.085-5.638-2.626-3.16-10.672-3.074-14.568-2.22a65.48 65.48 0 0 1 3.05-5.296c.846-1.281 1.693-2.562 2.625-3.758.508-.171 1.101-.171 1.609-.171 1.525.086 2.965.598 4.32 1.025 1.44.513 2.879.94 4.404.854.932-.085 1.863-.341 2.71-.854.678-.427 1.355-1.025 1.609-1.794.763-.683.508-1.879-.169-2.733z"/><path d="M216.238 158.706c-1.392-1.392-3.249-2.32-5.105-2.784-4.331-1.083-8.972-.619-12.994 1.392 1.392-2.166 2.784-4.331 4.022-6.652 1.701-.928 3.403-1.701 5.259-2.165 2.321-.619 5.105-1.238 5.879-3.558a2.155 2.155 0 0 0 0-1.392c-.464-1.547-2.785-1.392-4.177-.774-1.392.619-2.63 1.393-3.867 2.321.928-1.857 2.011-3.867 2.784-5.878 2.011-4.796 4.177-9.9 4.022-15.005a15.757 15.757 0 0 0-1.856-6.497c.928 1.857 1.392 4.486 1.392 6.497 0 1.856-.309 4.022-1.238 5.878-.309-.773-.309-1.237-.464-2.011-.154-.773-.309-1.856-.773-2.629-.309-.464-.774-1.083-1.238-.929-.309 0-.464.31-.618.619-.155.31 0 .619 0 .928.464 1.702 2.784 2.475 2.784 4.332 0 .309 0 .618-.155.773-.309 1.237-.773 2.32-1.237 3.403 0 .155-.155.309-.155.464l.155-.309c-1.083 2.32-2.475 4.486-4.022 6.651.155-1.547.309-3.248 0-4.795-.31-1.547-1.083-3.248-2.321-4.176-.618-.465-1.701-.929-2.475-.465-.773.31-1.083 1.238-.928 2.166.155.773.619 1.547 1.083 2.166 2.011 2.784 4.331 5.104 2.475 8.507-1.856 3.249-4.641 5.569-6.806 8.508-2.011 2.939-3.868 6.033-5.724 9.281.773-6.961.928-16.397-3.094-21.037-1.702-2.011-4.95-2.784-6.961-1.083-.774.619-1.392 1.547-1.702 2.475-2.939 6.806-.773 14.541 1.392 21.501 1.238 4.022 2.476 8.199 2.94 12.375-1.238 2.475-2.321 5.105-3.404 7.58-.618-8.353-4.022-16.551-9.591-22.894-2.784-3.093-6.497-5.878-10.674-5.568-3.248.309-6.187 2.784-7.425 5.878-1.392 3.094-1.237 6.497-.464 9.745 2.011 7.27 7.735 12.839 13.923 17.17 3.557 2.475 6.806 5.105 10.209 7.889-.154 3.403-1.237 6.342-1.856 9.745-.309 1.547-1.083 4.95-.619 6.342-2.166-5.414-7.734-15.932-13.922-11.756-.928.619-1.547 1.547-1.857 2.63-1.547 4.331.929 8.972 4.022 12.22 2.011 2.166 6.034 4.95 8.509 8.353v.619l.309-.309c.464.618.773 1.237 1.083 1.856l-1.392 8.817c-.929-5.878-3.249-10.983-6.807-12.066-1.083-.309-2.32.155-3.248.774-1.547.928-2.785 2.32-2.94 4.176-.154 2.475 1.857 4.486 3.558 6.342 4.95 5.724 6.343 12.839 5.569 20.11-.309 1.082-.464 2.01-.773 3.093l-1.392 3.713c.309-.619.464-1.083.773-1.702-3.094 10.983-7.58 21.347-13.922 30.783 9.281-9.282 14.541-21.966 17.635-34.805l1.856-1.392c2.166-1.392 4.641-2.63 6.961-3.867.928-.464 2.011-1.083 2.63-1.856 1.547-1.856.928-5.26-1.547-6.033-1.856-.619-4.177 1.392-5.414 2.475-1.083.928-2.011 2.011-2.785 3.094l1.393-7.889c1.856-2.785 4.176-5.569 7.425-6.652 1.392-.464 2.939-.773 4.331-1.237 1.238-.464 2.475-1.083 3.558-1.856 1.238-.774 2.321-1.857 2.939-3.094.619-1.238.774-2.939 0-4.177-1.237-2.011-4.022-2.32-6.187-1.856-4.486.928-7.89 3.713-10.21 7.425.155-.773.155-1.392.309-2.166.774-2.475 1.393-4.949 1.393-7.424 3.557-2.785 7.734-2.321 11.602-4.177 2.165-1.083 4.022-3.867 2.784-5.878-3.094-5.723-9.9-.774-13.458 3.248.928-4.331 1.856-8.507 3.094-12.684.928-.155 1.856-.309 2.784-.155 3.249.155 6.497 1.238 9.746 2.166 3.558 1.083 7.116 1.702 10.828 1.238 3.558-.465 7.271-2.321 9.127-5.414 2.011-3.094 1.857-7.58-.773-10.055-5.26-5.259-19.956-3.558-26.917-1.547 1.392-3.403 2.939-6.806 4.641-10.054 1.237-2.475 2.784-4.95 4.177-7.271.928-.309 2.011-.464 2.939-.619 2.784-.154 5.414.465 8.044 1.083 2.63.619 5.414 1.238 8.199.774 1.701-.31 3.403-.928 4.795-2.011 1.238-.928 2.321-2.011 2.63-3.558-.309-1.856-1.083-3.867-2.475-5.414zM24.137 207.708c0 4.61.71 9.102.83 13.713A143.436 143.436 0 0 1 23.9 244c.83-1.419 2.014-2.955 3.555-2.719-.119-4.492-.237-8.866-.474-13.358-.237-5.675-1.778-14.068 2.844-18.324 4.266-4.019 10.072-4.847 13.746-10.048 6.399-9.103 2.607-24.471 11.139-32.155-3.437 3.074-7.229 5.556-11.495 7.329-4.977 2.01-8.887 6.857-11.02 11.586-.948 2.127-1.778 4.255-2.37 6.501.71-5.556.83-11.112 1.303-17.023.711-8.275 6.28-8.393 13.746-11.23 13.154-5.083 23.463-16.905 26.663-30.5-1.185 2.483-3.91 4.019-6.636 4.729-2.726.591-5.57.473-8.295.591-5.925.118-11.85 1.418-16.827 4.728-2.963 2.01-5.333 4.611-7.11 7.685.592-4.138 1.185-8.157 2.014-12.177.474-2.009.948-4.137 1.422-6.147 2.37-2.483 5.096-4.492 8.058-6.147 4.385-2.365 9.362-3.665 13.628-6.384 14.101-8.866 15.997-28.726 26.78-41.376-9.36 10.64-26.07 11.113-37.564 19.388-.118.118-.355.236-.474.355 2.844-8.276 6.28-16.314 10.428-23.88 7.229 1.773 14.931-1.892 20.027-7.33 5.095-5.437 8.058-12.412 11.02-19.387-9.48 3.428-18.367 8.748-25.833 15.605 4.503-6.857 10.428-13.122 15.405-19.624C83.031 37.477 88.72 30.502 95 24 82.794 36.53 71.3 48.589 60.753 62.538c10.428-13.83-5.214-18.914-5.332-31.09-2.133 3.782-3.437 8.157-5.333 12.176-1.303 2.837-2.488 5.91-2.133 9.102.711 8.157 9.954 10.876 7.94 19.27-1.54 6.383-7.347 11.23-10.31 16.905 1.66-3.074.474-10.522-.237-13.832-1.066-5.438-3.08-10.64-5.925-15.25-4.384-7.093-10.665-13.003-15.405-19.86-3.2 12.058-5.45 25.417-.237 36.765 2.489 5.438 6.518 9.93 9.836 14.895 2.962 4.374 5.57 9.34 5.806 14.541-.118.237-.237.473-.237.828-.118.118-.118.236-.237.236-2.37-9.457-18.012-13.713-24.766-19.624-3.674-3.192-7.229-7.684-6.992-12.294-1.066 7.566-1.659 15.131 0 22.579 1.778 7.921 6.518 15.486 13.746 18.796 2.252 1.064 4.622 1.655 6.636 2.838 7.347 4.137 5.333 12.767 3.674 19.86.71-3.31-.237-6.975-2.37-9.694-2.133-2.719-5.214-4.61-8.414-5.792-6.399-2.247-12.205-5.438-14.101-12.531-.474 4.492-.948 9.102-.119 13.476.83 4.492 2.963 8.866 6.755 11.349 2.607 1.655 5.688 2.246 8.532 3.665 3.673 1.891 6.517 5.201 7.94 9.102-.712 5.202.118 17.142-4.267 20.097-.237-4.138-.355-9.221-3.792-12.176-2.962-2.719-7.465-2.601-11.494-3.074C5.295 153.21.792 151.792-3 149.073l4.859 9.457c2.251 4.374 4.621 8.866 8.769 11.467 3.2 2.009 6.991 2.719 10.19 4.728 7.703 5.084 4.74 20.925 3.674 28.609-.237 1.182-.355 2.837-.355 4.374zM1184.31 168.754c-2.78-19.954-6.96-39.754-13.61-58.935-10.99-31.71-25.68-61.874-35.43-94.049 37.75 58.78 54.61 132.102 59.41 200.937.31 3.867 4.02 21.501-2.94 18.562-6.19-2.63-3.1-22.893-3.56-28.771-.93-12.685-2.17-25.214-3.87-37.744zM1017.71 194.748c-5.72 1.701-8.66 8.662-7.43 14.54 1.24 5.878 5.73 10.519 10.68 13.767 4.95 3.249 10.52 5.569 15.62 8.663 4.95 2.939 9.59 6.96 11.76 12.374-4.64-8.971-.78-19.799-4.18-29.081-3.25-8.971-15.78-23.512-26.45-20.263zM1446.76 47.014c2.47 23.049 4.95 46.097 6.65 69.3 1.08 14.076 2.01 28.153 2.17 42.229 0 9.9-3.25 20.418 3.56 29.236 1.08 1.546 2.63 2.939 4.64 3.093 4.33.31 6.18-5.259 6.49-9.59 3.25-37.589 5.73-75.177 4.49-112.92-.62-18.563-1.55-37.899-5.11-56.152-2.01-10.364-5.1-26.451-10.21-35.578-4.17-7.27-13.76-12.065-21.03-7.888 2.32 21.191 4.64 42.383 6.96 63.42 5.26 48.108 5.88 97.143 7.89 145.715.15 3.557.31 7.425 2.16 10.518 4.02 7.271 13.93 8.199 22.28 8.199.15-32.639 9.13-64.35 13.3-96.679 4.18-32.33 3.1-67.288-14.69-94.513l-29.55 41.61z"/><path d="M1630.39-655.55c-34.96.487-69.76.487-104.73-.65-36.59-1.138-73.18-3.25-109.61-7.8 1.14 23.886 2.28 47.773 3.58 71.659 6.02 68.084 34.48 370.32 30.41 377.144.33 4.225-1.14 14.95.82 18.037-24.07-25.836-48.14-51.835-66.03-82.221 19.68-6.175 26.67-36.723 7.16-47.773-1.31 2.925-2.77 6.013-4.07 8.937 4.72-15.761 4.55-33.148-.98-48.585-7.96 18.362-11.7 38.511-10.57 58.497-4.71-30.548-26.5-58.009-55.13-69.709 5.53 16.087 13.18 31.361 22.61 45.498-7.32-4.062-16.1-5.362-24.07-2.437 2.93 2.437 5.86 5.037 8.62 7.637 24.56 22.261 46.84 47.123 66.19 73.934 9.1 12.674 16.26 28.273 26.83 39.648 9.92 10.724 19.19 20.474 27.97 32.498 3.25 4.55 6.51 8.937 8.78 14.137 3.42 7.962 3.91 16.737 4.23 25.349 1.14 22.749 2.28 45.498 2.93 68.247.65 27.948-.65 55.572-.65 83.358-.65-7.15-2.44-14.3-5.37-20.799-.97-2.275-2.44-4.875-4.71-5.85-14.48-6.5-9.11 23.887-8.79 29.249.98 15.762 2.12 31.523 3.58 47.285.33 3.575.98 7.475 3.9 9.425 1.31.812 2.93 1.137 3.91 2.275.81.975.97 2.275 1.14 3.574 3.74 28.762 2.76 58.01-2.44 86.609-1.47-13.325.32-26.486-1.79-39.811-2.12-13.487-5.69-26.649-10.25-39.485-8.45-23.724-21.3-45.823-37.56-64.997-1.3-1.625-2.77-3.25-4.88-3.9-3.42-1.137-7.16.812-9.11 3.9-1.95 2.925-2.44 6.662-2.76 10.237-2.28 25.349 1.95 51.185 12.52 74.259-2.28-3.575-4.39-7.313-6.67-10.887-1.3-2.113-3.25-4.388-5.53-3.738-2.11.65-2.6 3.088-2.76 5.363a56.209 56.209 0 0 0 6.18 29.411c.48.812.97 1.625 1.3 2.437-5.37-8.775-11.22-16.899-21.31-21.449-11.54-5.2-27.97-1.3-31.54 10.887-2.12 7.312.97 15.112 4.06 22.099 14.31 32.823 25.21 65.972 30.74 101.558-6.18-31.686-13.83-56.385-31.55-83.359-3.25-4.875-14.8-14.462-20.33-16.899 27.32 23.886 39.35 61.097 42.61 97.17-4.39-38.51-36.59-74.259-67.17-96.033-3.57-2.6-7.8-5.037-12.19-4.549-4.88.487-8.62 4.874-9.92 9.587-1.3 4.712-.33 9.749 1.14 14.461 4.87 15.925 17.72 32.174 30.89 42.248 12.04 9.1 29.93 17.55 28.46 35.749 0 .812-.16 1.625-.49 2.275-5.85 12.674-19.02-17.55-21.62-21.124-8.46-11.7-18.87-21.937-29.93-31.199-18.54-15.599-33.5-32.823-57.24-44.848 26.83 16.249 49.93 38.511 66.84 64.997 6.34 9.75 11.87 21.124 9.76 32.499-7.49-11.375-15.13-22.749-22.61-34.124-2.11-3.087-4.39-6.337-7.81-7.637-10.4-3.412-9.43 7.8-6.83 15.599-5.36-11.049-12.03-21.611-22.11-28.111-2.77-1.787-5.86-3.25-9.11-3.25-20.81 0-7.15 36.724-5.37 46.798-5.04-3.737-6.83-10.237-9.75-15.924-4.07-8.125-10.57-14.787-18.54-19.012-3.25-1.787-6.99-3.087-10.41-2.112-6.34 1.625-9.11 9.749-7.16 15.924 1.96 6.175 7.16 10.887 12.04 15.112 2.76 2.437 5.53 4.875 8.78 6.337 3.74 1.787 7.64 1.787 11.71 2.112-6.18 5.2-12.69.325-18.86-2.274-6.67-2.763-14.32-2.438-21.63-1.95 5.04-.163 13.66 1.137 17.88 3.899.98.65 10.09 9.587 7.32 10.237-15.61 3.25-32.85-4.224-41.14-17.874 5.69 7.15 9.76 15.437 12.2 24.374-22.28-12.187-18.87-34.286-9.27-52.647 9.92-19.337 20.81-46.473 39.68-59.31-27.16 18.524-42.94 43.385-56.27 72.634 1.3-7.312 5.04-14.137 8.29-20.799 9.92-20.149 16.59-41.76 22.28-63.372 4.23-15.762 9.11-38.835 20.17-51.51-23.91 27.136-42.45 58.985-53.99 93.271 10.08-31.686 16.91-64.51 20.49-97.658-3.58 33.311-16.27 66.134-27.97 97.17-4.56 11.862-8.62 23.561-11.88 35.911-1.78 6.662-5.36 41.598-13.98 38.348-1.47-.487-2.6-1.95-3.58-3.25-8.62-11.212-27.16-27.136-30.9-40.46-3.74-13.325 11.55-27.299 18.22-37.211 2.92-4.387 6.01-9.262 5.04-14.299-1.95-10.237-18.54-10.237-24.56-1.788-4.06 5.85-4.71 13-4.23 20.149-1.14-1.787-2.76-3.25-4.55-4.062-5.04-2.275-11.87 0-14.47 4.875-.65-14.462-14.8-26.974-29.28-25.837 6.67 24.699 21.15 47.286 40.66 63.86-8.94 1.625-17.89-2.925-25.53-7.637-7.81-4.713-15.78-10.237-24.88-10.562-9.11-.488-19.193 6.662-18.055 15.761 22.115-4.224 46.025-3.087 65.705 7.8 12.52 6.987 25.04 19.987 28.45 34.286 5.05 20.636-11.38 23.399-27.97 32.011-36.1 18.849-73.99 33.961-113.02 45.335 27.483 19.824 47.323 19.337 80.5 24.699 69.11 11.05 139.53 6.825 208.97 5.525A2312.08 2312.08 0 0 1 1630.72 374c-6.51-2.762-10.41-12.024-11.87-19.824-12.2-65.809 10.57-132.431 17.4-199.053 6.01-58.822-.49-118.132 2.27-177.116 3.09-65.647 17.73-130.157 23.1-195.641 6.83-84.658-2.28-169.804-11.39-254.3-6.83-61.747-13.33-122.682-19.84-183.616zm-233.53 783.049c1.79 2.925 3.58 5.688 5.21 8.775-1.79-2.925-3.42-5.85-5.21-8.775z"/><path d="M0 249h1438v51H0z"/></g><defs><clipPath id="a"><path fill="#fff" d="M0 0h1440v300H0z"/></clipPath></defs></svg>