<svg width="1440" height="300" fill="none" xmlns="http://www.w3.org/2000/svg"><g clip-path="url(#a)" fill="#03301B"><path d="M1786.89-821.394c-39.65.554-79.11.554-118.76-.739-41.49-1.293-82.98-3.695-124.29-8.867 1.29 27.154 2.58 54.308 4.06 81.462 6.82 77.398 39.09 420.98 34.48 428.738.37 4.803-1.29 16.995.93 20.504-27.3-29.37-54.59-58.926-74.87-93.469 22.31-7.019 30.24-41.747 8.11-54.308-1.47 3.325-3.13 6.835-4.61 10.16 5.35-17.918 5.16-37.683-1.11-55.232-9.03 20.874-13.27 43.779-11.98 66.5-5.35-34.728-30.06-65.945-62.52-79.245 6.27 18.287 14.94 35.651 25.64 51.722-8.3-4.618-18.26-6.096-27.3-2.771 3.32 2.771 6.64 5.726 9.78 8.682 27.84 25.306 53.11 53.569 75.05 84.048 10.33 14.408 18.44 32.141 30.43 45.072 11.25 12.191 21.76 23.275 31.72 36.944 3.68 5.172 7.37 10.16 9.95 16.071 3.88 9.051 4.43 19.026 4.8 28.816 1.29 25.861 2.58 51.723 3.32 77.583.74 31.773-.74 63.175-.74 94.763-.74-8.128-2.77-16.256-6.09-23.645-1.1-2.586-2.76-5.541-5.34-6.65-16.42-7.389-10.33 27.154-9.96 33.25 1.11 17.918 2.4 35.836 4.06 53.754.36 4.064 1.1 8.497 4.42 10.714 1.48.923 3.32 1.293 4.43 2.586.92 1.108 1.1 2.586 1.29 4.064 4.24 32.695 3.13 65.945-2.77 98.456-1.66-15.147.37-30.11-2.03-45.257-2.39-15.331-6.45-30.294-11.61-44.887-9.59-26.97-24.16-52.091-42.6-73.888-1.48-1.848-3.14-3.695-5.53-4.434-3.88-1.293-8.12.924-10.33 4.434-2.21 3.325-2.77 7.573-3.14 11.637-2.58 28.817 2.22 58.187 14.2 84.418-2.58-4.064-4.98-8.313-7.56-12.377-1.47-2.401-3.69-4.987-6.27-4.248-2.39.739-2.95 3.51-3.13 6.096a64.025 64.025 0 0 0 7.01 33.434c.55.924 1.1 1.847 1.47 2.771-6.08-9.975-12.72-19.211-24.16-24.383-13.09-5.911-31.71-1.478-35.77 12.376-2.4 8.313 1.11 17.18 4.61 25.122 16.23 37.314 28.58 74.997 34.85 115.451-7.01-36.021-15.67-64.098-35.77-94.762-3.69-5.542-16.78-16.44-23.05-19.211 30.98 27.154 44.62 69.455 48.31 110.463-4.98-43.779-41.49-84.417-76.16-109.17-4.06-2.956-8.85-5.726-13.83-5.172-5.53.554-9.77 5.541-11.25 10.898-1.47 5.357-.37 11.084 1.29 16.441 5.53 18.102 20.1 36.574 35.04 48.027 13.65 10.344 33.93 19.95 32.27 40.639 0 .923-.18 1.847-.55 2.586-6.64 14.408-21.58-19.95-24.53-24.014-9.59-13.3-21.39-24.937-33.93-35.466-21.02-17.734-37.99-37.314-64.91-50.983 30.43 18.472 56.61 43.778 75.79 73.888 7.19 11.083 13.46 24.014 11.06 36.944-8.48-12.93-17.14-25.861-25.63-38.791-2.39-3.51-4.98-7.204-8.85-8.682-11.8-3.879-10.69 8.867-7.74 17.733-6.09-12.561-13.65-24.568-25.08-31.957-3.14-2.032-6.64-3.694-10.33-3.694-23.6 0-8.11 41.747-6.09 53.2-5.71-4.249-7.74-11.638-11.06-18.103-4.61-9.236-11.99-16.81-21.02-21.612-3.69-2.032-7.93-3.51-11.8-2.402-7.2 1.847-10.33 11.083-8.12 18.103 2.21 7.019 8.12 12.376 13.65 17.179 3.13 2.771 6.27 5.542 9.96 7.204 4.24 2.032 8.66 2.032 13.27 2.402-7 5.911-14.38.369-21.39-2.587-7.56-3.14-16.23-2.77-24.52-2.216 5.71-.185 15.49 1.293 20.28 4.433 1.11.739 11.43 10.899 8.3 11.638-17.7 3.694-37.25-4.803-46.66-20.32 6.46 8.128 11.07 17.549 13.83 27.708-25.26-13.854-21.39-38.976-10.51-59.849 11.25-21.982 23.61-52.83 45-67.424-30.8 21.059-48.68 49.321-63.81 82.571 1.48-8.313 5.72-16.071 9.41-23.645 11.25-22.905 18.81-47.473 25.26-72.04 4.8-17.919 10.33-44.15 22.87-58.557-27.11 30.848-48.13 67.053-61.22 106.03 11.43-36.021 19.17-73.335 23.23-111.018-4.06 37.868-18.44 75.182-31.72 110.463-5.16 13.485-9.77 26.785-13.46 40.824-2.03 7.573-6.08 47.289-15.86 43.594-1.66-.554-2.95-2.217-4.05-3.694-9.78-12.746-30.8-30.849-35.04-45.996-4.24-15.147 13.09-31.033 20.65-42.301 3.32-4.988 6.82-10.53 5.72-16.256-2.21-11.637-21.02-11.637-27.85-2.032-4.61 6.65-5.34 14.778-4.79 22.906-1.29-2.032-3.14-3.694-5.16-4.618-5.72-2.586-13.47 0-16.42 5.542-.73-16.44-16.78-30.664-33.19-29.371 7.56 28.077 23.97 53.754 46.1 72.595-10.14 1.847-20.28-3.325-28.95-8.682-8.85-5.357-17.89-11.637-28.21-12.007-10.33-.554-21.76 7.574-20.47 17.918 25.08-4.802 52.18-3.509 74.5 8.867 14.2 7.943 28.4 22.721 32.27 38.976 5.71 23.46-12.91 26.6-31.72 36.391-49.26 33.342-186.652 49.002-220.39 61.237 31.165 22.536 145.89 12.281 183.51 18.377 78.37 12.561 158.22 7.759 236.96 6.281A2615.334 2615.334 0 0 1 1787.26 349c-7.38-3.14-11.8-13.669-13.46-22.536-13.83-74.812 11.98-150.548 19.73-226.284 6.82-66.869-.55-134.292 2.58-201.346 3.5-74.627 20.1-147.962 26.19-222.404 7.74-96.24-2.59-193.034-12.91-289.089-7.75-70.194-15.12-139.465-22.5-208.735zM1522.08 68.778c2.03 3.325 4.06 6.465 5.9 9.975-2.02-3.325-3.87-6.65-5.9-9.975z"/><path d="M-8.178 263.758h1249.4v50.748H-8.178z"/><path d="M70.955 200.035c-8.09 8.413-15.534 18.283-19.255 29.124.161-3.398 0-6.796-.486-10.032-2.75-23.946-18.122-16.827-28.478-1.78-.971 1.457-1.942 3.075-2.751 4.693a1675.155 1675.155 0 0 1 9.385-26.05c3.074-8.414 6.149-17.637 3.722-26.374-6.958 3.721-11.813 9.223-16.182 15.695-.97-15.371 9.87-36.567 14.401-51.453.971-3.56 2.104-7.281.81-10.679-.324-.971-10.842 8.737-11.65 9.708-2.752 3.883-4.046 8.252-6.473 12.135 5.501-28.477 11.488-56.145 22.006-83.004C46.36 35.644 56.392 7.976 73.544-15c-14.886 19.902-29.935 38.67-41.1 61C21.117 68.327 10.438 91.95 5.098 116.382c-3.721 16.666-6.472 34.302-4.369 51.13 2.428 19.416-.323 40.45.648 60.19.647 13.591-.162 27.506 2.265 40.936 1.133 6.795 3.236 13.106 6.149 19.254.323.809 8.414 14.886 9.708 11.973 5.178-10.031 13.916-18.121 24.434-22.328 4.854-1.942 10.517-3.56 12.783-8.09 6.796-13.43 1.294-31.713 5.825-46.114 2.589-7.928 7.281-14.886 12.46-21.358 10.032-12.782 22.005-24.108 35.112-33.816-14.24 8.899-27.508 19.578-39.158 31.875zM715.119 295.635c32.848 13.106 77.346 19.902 112.62 19.255 13.269-.324 28.803-2.265 40.129-9.708 3.398-2.266 22.006-20.711 22.654-20.549-10.842-4.045-21.845-8.09-31.068-15.209-9.223-7.12-16.505-17.637-16.666-29.125.161 6.472-3.237 25.889-13.754 14.401-2.266-2.589-3.236-5.987-4.369-9.385-4.531-13.43-13.916-24.918-25.404-33.169-11.489-8.252-24.919-13.592-38.835-16.666 19.094 5.987 36.408 17.313 49.514 32.36 7.443 8.414 15.372 20.711 13.107 32.523-1.78.161-13.107-.162-13.592 1.941.971-4.53 4.53-8.252 7.928-11.488-5.178 3.722-9.061 9.223-10.679 15.371.809-5.986-2.104-16.665-4.531-22.328-.647-1.295-1.294-2.751-.971-4.207.324-1.456 2.428-2.427 3.237-1.133.323.486.323 1.133.485 1.618.647 4.045 5.34 6.311 9.223 5.663 4.046-.647 7.282-3.236 10.356-5.824-5.178 2.75-11.974 2.103-16.667-1.457-1.618-1.294-3.236-2.912-5.339-2.589-1.942.162-3.398 2.266-3.56 4.207-.162 1.942.647 3.884 1.295 5.663.485 1.457 1.132 2.751 1.618 4.207-4.855-8.737-9.547-17.151-20.227-19.416-3.398-.809-6.958 0-10.517.647-2.104.486-4.207.809-6.311 1.295.647 1.294 2.104 2.103 3.398 2.588 3.074.971 6.472.486 9.709-.161 3.236-.486 6.634-1.133 9.708-.486 5.178 1.133 11.003 9.547 11.974 14.563.647 3.074-.162 6.633-2.751 8.575-6.472 4.854-22.653-1.78-29.287-4.53-8.252-3.398-18.123-8.414-22.654-16.504-3.398-6.149 1.78-9.708 4.046-15.533 2.103-5.34 1.618-10.841 1.618-16.666 0-.971 0-2.103-.648-2.912-.485-.648-1.294-1.133-2.103-1.295-6.149-2.265-11.812.324-11.327 7.281.809 10.841 2.589 21.52 5.34 31.875a60.341 60.341 0 0 0-12.621-27.506c-2.266-2.751-4.854-5.339-8.252-6.148-3.398-.809-7.606.809-8.576 4.206-.971 3.56 1.779 6.796 4.368 9.385 4.046 4.207 8.253 8.414 12.298 12.62 7.605 7.767-2.427 22.976-6.311 30.743 3.398-6.634-14.401-34.464-17.961-39.965 2.104 4.854 14.402 39.803 2.428 36.567-3.884-.971-6.958-4.53-7.605-8.575-.324 1.456-2.104 2.426-3.399 1.941 1.457-1.942.324-5.339-2.103-5.825.647-5.663 2.104-11.164 4.207-16.342-5.987 9.708-9.223 21.196-9.223 32.522.809-6.148-1.295-12.62-4.693-17.798-3.398-5.339-8.09-9.546-12.621-13.915-2.589-2.427-5.34-5.016-8.899-5.825 11.65 7.12 19.093 20.387 19.255 33.979-3.398 1.132-6.634-1.78-8.899-4.531-3.722-4.53-7.12-9.384-9.062-14.885-7.605-21.035 14.887-31.066 32.038-34.95-13.106-.97-26.375 2.589-37.378 9.708-5.663 3.56-11.003 9.061-11.003 15.695-1.78-9.708-4.369-19.254-7.443-28.477a85.81 85.81 0 0 0 1.456 25.727c-4.207-9.223-16.828-9.547-26.86-8.576 6.958 0 14.239.324 20.064 4.045 5.987 3.56 9.709 11.488 6.796 17.798-1.456 3.075-4.207 5.34-7.12 7.281-8.899 5.825-20.064 7.767-30.42 8.9-5.34.485-25.242 4.53-28.155-.809-1.294-2.266-.971-5.34.324-7.767 1.294-2.427 3.236-4.207 5.34-5.987 5.825-5.177 12.135-10.031 18.608-14.4-14.725 6.148-26.699 17.475-33.819 31.551-1.294-6.472-10.841-9.06-16.181-11.488 2.751 1.295 5.178 3.56 6.635 6.311 4.692 8.899-15.211 8.899-19.579 9.222-5.987.486-12.298.809-17.638-1.941-27.669-13.915 39.158-42.069 49.676-45.466-17.314 5.824-34.789 11.811-50.647 20.872-7.605 4.369-14.724 9.384-21.197 15.533-.323.324-15.534 15.533-15.857 12.782-1.942-16.504-11.003-31.227-19.741-45.142 5.178 7.442 20.388 34.463 8.9 41.259-2.104 1.133-4.369 1.78-6.635 2.103-8.09 1.457-16.181 2.751-24.271 1.133-2.913-.647-14.563-1.133-16.828-3.236-.486-.485-.486-1.133-.324-1.78.485-2.75 2.589-5.177 5.34-5.825-7.282 1.133-11.813 9.708-19.256 10.679-2.427.324-5.016-.162-7.281-.809-3.236-.809-13.431-.647-15.534-1.78-3.236-1.779-6.311-7.604.324-8.575-5.826.809-11.004 5.016-13.107 10.517-1.942-5.178-5.825-9.546-10.68-11.973 1.457 1.941 2.266 4.53 2.104 6.957 0 .647-.162 1.456-.485 1.942-.486.809-1.457 1.132-2.428 1.294-4.53.486-8.576-3.559-9.385-8.09-.809-4.53.809-9.061 2.589-13.106 4.207-9.384 9.709-15.533 16.505-22.652 5.987-6.31 10.194-15.209 18.446-19.093-16.342 7.605-29.611 21.682-36.083 38.509-1.618-8.737 1.941-17.474 4.692-25.888 1.78-5.34 4.854-14.724 2.266-20.225-2.913-5.825-9.385-5.663-11.974 1.456-1.295 3.721-.486 7.928.809 11.65 1.294 3.721 3.236 7.281 4.045 11.164 1.133 5.825-.162 11.973-1.78 17.798-1.942 6.958-4.207 13.915-6.634 20.711 1.941-6.958 2.427-14.401-.162-21.196-2.427-6.796-8.252-12.459-15.372-13.592 3.398 5.34 6.796 10.679 8.414 16.828 1.618 5.986.971 12.944-2.912 17.798-5.017 6.148-13.593 7.281-21.521 8.09.485-3.074 1.294-5.987 2.589-8.737-5.825 13.106-23.301 14.238-33.98 6.634-10.356-7.281-14.563-25.403-11.165-36.891 1.78-5.825 5.501-11.488 11.165-13.915 9.546-4.369 21.52.971 31.067-3.722-2.912-2.912-5.825-5.824-9.385-7.766-3.56-1.942-7.929-2.913-11.812-1.456-2.751.97-5.016 2.912-7.12 5.015-9.061 8.252-14.401 13.106-17.637 24.756-1.618 5.825-1.618 20.873-9.709 20.873-5.016-.324-8.252-11.165-10.841-14.886-4.531-6.472-10.194-12.297-16.666-16.989 5.339 4.854 9.223 11.326 11.003 18.445 1.618 6.634 2.103 28.801-10.033 26.536-3.398-.648-5.501-4.207-5.663-7.605-.162-3.398 1.295-6.634 2.751-9.708 11.165-23.138 28.317-43.363 49.514-58.087-11.812 8.09-23.624 16.827-33.333 27.506-4.207 4.692-8.414 9.87-11.974 14.886-4.207 5.825-6.311 13.591-10.194 19.902-.971 1.779-2.104 3.398-3.722 4.692-14.724 11.65-31.391-19.416-13.43-26.536-11.327 4.369-19.094 16.666-18.446 28.801-5.664-4.692-11.489-15.695-5.825-22.005 10.841-12.135 25.242-21.196 40.937-25.565-14.077 4.045-30.258 10.356-39.967 21.844-10.841 12.62-15.048 29.124-29.449 38.994 21.844 6.472 43.365 6.31 65.048 10.841 23.624 4.854 47.734 8.737 71.843 7.442 25.566-1.456 49.838-8.251 75.566-8.413 26.537-.162 52.912 2.75 79.287 2.912 37.054.324 74.433-5.986 111.487-8.899 30.582-2.265 61.326-3.398 92.07-3.074 14.401.162 24.434-1.456 35.76 7.605 9.062 7.281 19.579 15.047 31.553 19.739z"/><path d="M471.614 309.673c32.848 13.106 77.346 19.901 112.62 19.254 13.269-.324 28.803-2.265 40.129-9.708 3.398-2.265 22.006-20.711 22.654-20.549-10.842-4.045-21.845-8.09-31.068-15.209-9.223-7.12-16.504-17.637-16.666-29.125.162 6.472-3.236 25.889-13.754 14.401-2.265-2.589-3.236-5.987-4.369-9.385-4.531-13.429-13.916-24.917-25.404-33.169-11.489-8.252-24.919-13.592-38.835-16.666 19.094 5.987 36.408 17.313 49.514 32.361 7.444 8.413 15.372 20.71 13.107 32.522-1.78.162-13.107-.162-13.592 1.941.971-4.53 4.53-8.252 7.928-11.488-5.177 3.722-9.061 9.223-10.679 15.372.809-5.987-2.104-16.666-4.531-22.329-.647-1.294-1.294-2.751-.971-4.207.324-1.456 2.428-2.427 3.237-1.133.323.486.323 1.133.485 1.619.647 4.045 5.34 6.31 9.223 5.663 4.046-.648 7.282-3.237 10.356-5.825-5.178 2.75-11.974 2.103-16.666-1.457-1.618-1.294-3.236-2.912-5.34-2.588-1.942.161-3.398 2.265-3.56 4.207-.162 1.941.647 3.883 1.295 5.663.485 1.456 1.132 2.75 1.618 4.206-4.855-8.737-9.547-17.151-20.227-19.416-3.398-.809-6.957 0-10.517.647-2.104.486-4.207.809-6.311 1.295.647 1.294 2.104 2.103 3.398 2.589 3.075.97 6.473.485 9.709-.162 3.236-.486 6.634-1.133 9.708-.486 5.178 1.133 11.003 9.547 11.974 14.563.648 3.074-.161 6.633-2.75 8.575-6.473 4.854-22.654-1.78-29.288-4.53-8.252-3.398-18.123-8.414-22.654-16.504-3.398-6.149 1.78-9.708 4.046-15.533 2.103-5.34 1.618-10.841 1.618-16.666 0-.971 0-2.103-.647-2.912-.486-.647-1.295-1.133-2.104-1.295-6.149-2.265-11.812.324-11.327 7.282.809 10.84 2.589 21.519 5.34 31.874a60.341 60.341 0 0 0-12.621-27.506c-2.265-2.75-4.854-5.339-8.252-6.148-3.398-.809-7.606.809-8.576 4.207-.971 3.559 1.78 6.795 4.368 9.384 4.046 4.207 8.253 8.414 12.298 12.621 7.605 7.766-2.427 22.975-6.311 30.742 3.398-6.634-14.401-34.464-17.96-39.965 2.103 4.854 14.401 39.803 2.427 36.567-3.884-.971-6.958-4.53-7.605-8.575-.324 1.456-2.104 2.427-3.398 1.941 1.456-1.941.323-5.339-2.104-5.825.647-5.663 2.104-11.164 4.207-16.342-5.987 9.709-9.223 21.196-9.223 32.523.809-6.149-1.295-12.621-4.693-17.799-3.398-5.339-8.09-9.546-12.621-13.915-2.589-2.427-5.339-5.016-8.899-5.825 11.65 7.12 19.093 20.388 19.255 33.979-3.398 1.132-6.634-1.78-8.899-4.531-3.722-4.53-7.12-9.384-9.062-14.885-7.605-21.035 14.887-31.066 32.039-34.95-13.107-.97-26.375 2.589-37.379 9.709-5.663 3.559-11.003 9.061-11.003 15.694-1.78-9.708-4.369-19.254-7.443-28.477a85.81 85.81 0 0 0 1.456 25.727c-4.207-9.223-16.828-9.547-26.86-8.576 6.958 0 14.239.324 20.064 4.045 5.987 3.56 9.709 11.488 6.796 17.799-1.456 3.074-4.207 5.339-7.119 7.281-8.9 5.824-20.065 7.766-30.421 8.899-5.339.485-25.242 4.53-28.155-.809-1.294-2.266-.971-5.34.324-7.767 1.294-2.427 3.236-4.207 5.34-5.986 5.825-5.178 12.136-10.032 18.608-14.401-14.725 6.149-26.699 17.475-33.818 31.551-1.295-6.472-10.842-9.06-16.182-11.487 2.751 1.294 5.178 3.559 6.635 6.31 4.692 8.899-15.21 8.899-19.579 9.223-5.987.485-12.298.809-17.638-1.942-27.669-13.915 39.158-42.069 49.676-45.466-17.314 5.824-34.789 11.811-50.646 20.872-7.606 4.369-14.725 9.385-21.198 15.533-.323.324-15.533 15.533-15.857 12.782-1.942-16.503-11.003-31.227-19.741-45.142 5.178 7.443 20.388 34.463 8.9 41.259-2.104 1.133-4.369 1.78-6.635 2.104-8.09 1.456-16.181 2.75-24.271 1.132-2.913-.647-14.563-1.132-16.828-3.236-.486-.485-.486-1.133-.324-1.78.485-2.75 2.589-5.177 5.34-5.825-7.282 1.133-11.812 9.709-19.256 10.679-2.427.324-5.016-.161-7.281-.809-3.236-.809-13.43-.647-15.534-1.779-3.236-1.78-6.311-7.605.324-8.576-5.825.809-11.003 5.016-13.107 10.517-1.942-5.177-5.825-9.546-10.679-11.973 1.456 1.941 2.265 4.53 2.103 6.957 0 .647-.162 1.456-.485 1.942-.486.809-1.457 1.132-2.427 1.294-4.531.486-8.576-3.559-9.385-8.09-.81-4.53.809-9.061 2.588-13.106 4.208-9.384 9.709-15.533 16.505-22.652 5.987-6.31 10.194-15.209 18.447-19.093-16.343 7.605-29.612 21.682-36.084 38.509-1.618-8.737 1.942-17.474 4.692-25.888 1.78-5.34 4.855-14.724 2.266-20.225-2.913-5.825-9.385-5.663-11.974 1.456-1.295 3.721-.486 7.928.809 11.65 1.294 3.721 3.236 7.281 4.045 11.164 1.133 5.825-.162 11.973-1.78 17.798-1.942 6.958-4.207 13.915-6.634 20.711 1.942-6.958 2.427-14.401-.162-21.196-2.427-6.796-8.252-12.459-15.372-13.592 3.398 5.34 6.796 10.679 8.414 16.828 1.618 5.987.971 12.944-2.912 17.798-5.017 6.149-13.592 7.281-21.521 8.09.485-3.074 1.294-5.987 2.589-8.737-5.825 13.106-23.3 14.238-33.98 6.634-10.356-7.281-14.563-25.403-11.165-36.891 1.78-5.825 5.501-11.488 11.165-13.915 9.547-4.369 21.52.971 31.067-3.722-2.912-2.912-5.825-5.824-9.385-7.766-3.56-1.942-7.928-2.912-11.812-1.456-2.75.971-5.016 2.912-7.12 5.016-9.06 8.251-14.4 13.106-17.637 24.755-1.618 5.825-1.618 20.873-9.709 20.873-5.016-.324-8.252-11.165-10.84-14.886-4.531-6.472-10.195-12.297-16.667-16.989 5.34 4.854 9.223 11.326 11.003 18.445 1.618 6.634 2.103 28.801-10.032 26.536-3.398-.647-5.502-4.207-5.664-7.605-.162-3.398 1.295-6.634 2.751-9.708C-3.946 233.949 13.206 213.724 34.403 199c-11.812 8.09-23.624 16.827-33.333 27.506-4.207 4.693-8.414 9.87-11.974 14.886-4.207 5.825-6.31 13.591-10.194 19.902-.97 1.78-2.104 3.398-3.722 4.692-14.724 11.65-31.39-19.416-13.43-26.536-11.327 4.369-19.093 16.666-18.446 28.801-5.664-4.692-11.489-15.695-5.825-22.005 10.84-12.135 25.242-21.196 40.938-25.565-14.078 4.046-30.259 10.356-39.968 21.844-10.84 12.62-15.048 29.124-29.449 38.994 21.844 6.472 43.365 6.31 65.048 10.841 23.624 4.854 47.734 8.737 71.844 7.443 25.566-1.457 49.837-8.252 75.565-8.414 26.537-.162 52.912 2.751 79.287 2.912 37.055.324 74.433-5.986 111.487-8.899 30.582-2.265 61.326-3.398 92.07-3.074 14.401.162 24.434-1.456 35.76 7.605 9.062 7.281 19.579 15.047 31.553 19.74zM1453.61 309.673c32.85 13.106 77.35 19.901 112.62 19.254 13.27-.324 28.81-2.265 40.13-9.708 3.4-2.265 22.01-20.711 22.66-20.549-10.84-4.045-21.85-8.09-31.07-15.209-9.22-7.12-16.51-17.637-16.67-29.125.16 6.472-3.23 25.889-13.75 14.401-2.27-2.589-3.24-5.987-4.37-9.385-4.53-13.429-13.92-24.917-25.4-33.169-11.49-8.252-24.92-13.592-38.84-16.666 19.09 5.987 36.41 17.313 49.52 32.361 7.44 8.413 15.37 20.71 13.1 32.522-1.78.162-13.1-.162-13.59 1.941.97-4.53 4.53-8.252 7.93-11.488-5.18 3.722-9.06 9.223-10.68 15.372.81-5.987-2.1-16.666-4.53-22.329-.65-1.294-1.3-2.751-.97-4.207.32-1.456 2.42-2.427 3.23-1.133.33.486.33 1.133.49 1.619.65 4.045 5.34 6.31 9.22 5.663 4.05-.648 7.28-3.237 10.36-5.825-5.18 2.75-11.98 2.103-16.67-1.457-1.62-1.294-3.23-2.912-5.34-2.588-1.94.161-3.4 2.265-3.56 4.207-.16 1.941.65 3.883 1.3 5.663.48 1.456 1.13 2.75 1.61 4.206-4.85-8.737-9.54-17.151-20.22-19.416-3.4-.809-6.96 0-10.52.647-2.1.486-4.21.809-6.31 1.295.65 1.294 2.1 2.103 3.4 2.589 3.07.97 6.47.485 9.71-.162 3.23-.486 6.63-1.133 9.71-.486 5.17 1.133 11 9.547 11.97 14.563.65 3.074-.16 6.633-2.75 8.575-6.47 4.854-22.65-1.78-29.29-4.53-8.25-3.398-18.12-8.414-22.65-16.504-3.4-6.149 1.78-9.708 4.04-15.533 2.11-5.34 1.62-10.841 1.62-16.666 0-.971 0-2.103-.65-2.912-.48-.647-1.29-1.133-2.1-1.295-6.15-2.265-11.81.324-11.33 7.282.81 10.84 2.59 21.519 5.34 31.875a60.359 60.359 0 0 0-12.62-27.507c-2.26-2.75-4.85-5.339-8.25-6.148-3.4-.809-7.61.809-8.58 4.207-.97 3.559 1.78 6.795 4.37 9.384 4.05 4.207 8.25 8.414 12.3 12.621 7.61 7.766-2.43 22.975-6.31 30.742 3.4-6.634-14.4-34.464-17.96-39.965 2.1 4.854 14.4 39.803 2.43 36.567-3.89-.971-6.96-4.53-7.61-8.575-.32 1.456-2.1 2.427-3.4 1.941 1.46-1.941.33-5.339-2.1-5.825.65-5.663 2.1-11.164 4.21-16.342-5.99 9.709-9.23 21.196-9.23 32.523.81-6.149-1.29-12.621-4.69-17.799-3.4-5.339-8.09-9.546-12.62-13.915-2.59-2.427-5.34-5.016-8.9-5.825 11.65 7.12 19.09 20.388 19.26 33.979-3.4 1.132-6.64-1.78-8.9-4.531-3.73-4.53-7.12-9.384-9.07-14.885-7.6-21.035 14.89-31.066 32.04-34.95-13.1-.97-26.37 2.589-37.38 9.709-5.66 3.559-11 9.061-11 15.694-1.78-9.708-4.37-19.254-7.44-28.477-.81 8.576-.33 17.313 1.45 25.727-4.2-9.223-16.82-9.547-26.86-8.576 6.96 0 14.24.324 20.07 4.045 5.99 3.56 9.71 11.488 6.79 17.799-1.45 3.074-4.2 5.339-7.12 7.281-8.89 5.824-20.06 7.766-30.42 8.899-5.34.485-25.24 4.53-28.15-.809-1.3-2.266-.97-5.34.32-7.767 1.3-2.427 3.24-4.207 5.34-5.986 5.83-5.178 12.14-10.032 18.61-14.401-14.72 6.149-26.7 17.475-33.82 31.551-1.29-6.472-10.84-9.06-16.18-11.487 2.75 1.294 5.18 3.559 6.64 6.31 4.69 8.899-15.21 8.899-19.58 9.223-5.99.485-12.3.809-17.64-1.942-27.67-13.915 39.16-42.069 49.68-45.466-17.32 5.824-34.79 11.811-50.65 20.872-7.61 4.369-14.73 9.385-21.2 15.533-.32.324-15.53 15.533-15.86 12.782-1.94-16.503-11-31.227-19.74-45.142 5.18 7.443 20.39 34.463 8.9 41.259-2.1 1.133-4.37 1.78-6.63 2.104-8.09 1.456-16.18 2.75-24.27 1.132-2.92-.647-14.57-1.132-16.83-3.236-.49-.485-.49-1.133-.32-1.78.48-2.75 2.58-5.177 5.33-5.825-7.28 1.133-11.81 9.709-19.25 10.679-2.43.324-5.02-.161-7.28-.809-3.24-.809-13.43-.647-15.54-1.779-3.23-1.78-6.31-7.605.33-8.576-5.83.809-11.01 5.016-13.11 10.517-1.94-5.177-5.82-9.546-10.68-11.973 1.46 1.941 2.27 4.53 2.11 6.957 0 .647-.17 1.456-.49 1.942-.49.809-1.46 1.132-2.43 1.294-4.53.486-8.57-3.559-9.38-8.09-.81-4.53.81-9.061 2.59-13.106 4.2-9.384 9.71-15.533 16.5-22.652 5.99-6.31 10.2-15.209 18.45-19.093-16.35 7.605-29.61 21.682-36.09 38.509-1.61-8.737 1.95-17.474 4.7-25.888 1.78-5.34 4.85-14.724 2.26-20.225-2.91-5.825-9.38-5.663-11.97 1.456-1.3 3.721-.49 7.928.81 11.65 1.29 3.721 3.23 7.281 4.04 11.164 1.13 5.825-.16 11.973-1.78 17.798-1.94 6.958-4.2 13.915-6.63 20.711 1.94-6.958 2.43-14.401-.16-21.196-2.43-6.796-8.26-12.459-15.38-13.592 3.4 5.34 6.8 10.679 8.42 16.828 1.62 5.987.97 12.944-2.91 17.798-5.02 6.149-13.6 7.281-21.53 8.09.49-3.074 1.3-5.987 2.59-8.737-5.82 13.106-23.3 14.238-33.98 6.634-10.35-7.281-14.56-25.403-11.16-36.891 1.78-5.825 5.5-11.488 11.16-13.915 9.55-4.369 21.52.971 31.07-3.722-2.91-2.912-5.82-5.824-9.38-7.766-3.56-1.942-7.93-2.912-11.82-1.456-2.75.971-5.01 2.912-7.12 5.016-9.06 8.251-14.4 13.106-17.63 24.755-1.62 5.825-1.62 20.873-9.711 20.873-5.017-.324-8.253-11.165-10.842-14.886-4.53-6.472-10.194-12.297-16.666-16.989 5.34 4.854 9.223 11.326 11.003 18.445 1.618 6.634 2.103 28.801-10.032 26.536-3.398-.647-5.502-4.207-5.664-7.605-.162-3.398 1.295-6.634 2.751-9.708 11.165-23.138 28.317-43.363 49.511-58.087-11.81 8.09-23.621 16.827-33.33 27.506-4.207 4.693-8.414 9.87-11.974 14.886-4.207 5.825-6.311 13.591-10.194 19.902-.971 1.78-2.103 3.398-3.722 4.692-14.724 11.65-31.391-19.416-13.43-26.536-11.327 4.369-19.093 16.666-18.446 28.801-5.664-4.692-11.489-15.695-5.825-22.005 10.841-12.135 25.242-21.196 40.938-25.565-14.078 4.046-30.259 10.356-39.968 21.844-10.841 12.62-15.048 29.124-29.449 38.994 21.844 6.472 43.365 6.31 65.048 10.841 23.624 4.854 47.732 8.737 71.842 7.443 25.57-1.457 49.84-8.252 75.57-8.414 26.53-.162 52.91 2.751 79.28 2.912 37.06.324 74.44-5.986 111.49-8.899 30.58-2.265 61.33-3.398 92.07-3.074 14.4.162 24.43-1.456 35.76 7.605 9.06 7.281 19.58 15.047 31.55 19.74z"/><path d="M83.3 296.207c-7.361 2.172-14.822 3.715-22.36 4.74C922.944 1931.19-498.69 493.337-56.55 159.544c-.638-14.012-4.753-27.739-14.347-40.791-7.485-10.289-17.464-18.614-24.95-28.903-15.426-21.115-19.513-48.474-21.696-74.676 5.045 21.766 17.575 41.643 34.91 55.742 12.656 10.212 28.176 17.99 36.011 32.145 6.935 12.452 13.762 24.76 20.481 36.926a281.83 281.83 0 0 1 4.108-2.2c-14.148-27.24-32.528-53.218-28.8-84.948 8.666 28.401 34.694 48.217 46.267 75.69.1.238.2.476.298.715 9.421-4.147 19.381-7.959 29.898-11.418 22.259-7.35 46.798-10.008 65.297-24.339-26.31 27.365-60.524 32.653-91.042 48.77 3.613 15.304 3.34 31.493 1.22 47.356a10884.015 10884.015 0 0 1 8.817 16.193c38.705-62.203 102.155-76.877 166.712-99.12-30.003 10.385-59.92 23.779-86.344 41.297-26.795 17.987-50.241 45.924-69.969 71.164-.615.8-1.235 1.608-1.85 2.426l2.016 3.726c2.7-3.423 5.53-6.816 9.123-9.728 9.105-7.427 19.218-12.937 30.23-17.205-14.291 5.668-33.43 15.608-27.563 33.438 2.145 6.348 8.193 13.85 15.83 12.141 8.146-1.835 7.553-12.893-.761-13.074-1.158-.095-2.357.307-3.377.557-1.861.348-3.695.364-5.474-.282-1.78-.646-3.147-2.26-3.328-4.109a9.39 9.39 0 0 0 6.038-.506c2.412-.97 4.726-2.782 7.002-2.095.979.247 1.752.978 2.525 1.708.707.73 1.309 1.561 1.801 2.458-1.093-3.496-2.409-6.856-2.817-10.381-.252-3.024.695-6.449 3.479-7.889 2.796-1.606 6.355-.313 9.472.276 5.227 1.263 10.563 1.2 15.677-.216-.698 4.447-3.864 8.525-8.164 10.174-2.425 1.135-5.624 1.54-8.244.992-1.628-.467-4.402-3.197-5.903-1.151-.743.94-.673 2.113-.602 3.287.501 4.044 2.188 7.852 1.862 11.829-.15 1.823-.644 3.784-.118 5.495.941 2.747 4.514 3.874 7.256 2.931 7.732-2.869 11.48-16.074 13.388-23.091 3.496-12.936 4.493-26.67 2.664-40.012A169.493 169.493 0 0 0 78.072 169a92.886 92.886 0 0 1 2.41 11.846c1.967 11.829 2.653 23.925 1.687 35.699-.856 10.439-4.293 30.008-10.473 38.342 7.846-10.366 13.664-22.4 16.71-35.162-1.122 7.581-2.078 15.176-3.2 22.758 8.406-15.158 26.754-29.668 41.745-37.78 17.417-9.248 37.252-13.46 57.093-13.669-24.868 4.634-48.404 15.382-68.184 31.109-7.659 6.044-15.508 14.409-14.476 24.168 1.049 11.597 12.295 30.868 21.734 37.647-13.933 5.364-26.338 8.35-39.817 12.249z"/><path d="M202.905 202.431c-1.178-1.169-2.749-1.949-4.32-2.339-3.666-.909-7.594-.519-10.998 1.17 1.178-1.819 2.357-3.638 3.404-5.587 1.44-.78 2.88-1.43 4.451-1.819 1.964-.52 4.321-1.04 4.976-2.989a1.788 1.788 0 0 0 0-1.169c-.393-1.299-2.357-1.169-3.535-.65-1.179.52-2.226 1.17-3.273 1.949.785-1.559 1.702-3.248 2.356-4.937 1.702-4.028 3.535-8.315 3.404-12.603a13.148 13.148 0 0 0-1.571-5.457c.786 1.559 1.178 3.768 1.178 5.457 0 1.559-.261 3.378-1.047 4.937-.262-.649-.262-1.039-.393-1.689-.131-.65-.262-1.559-.654-2.209-.262-.389-.655-.909-1.048-.779-.262 0-.393.26-.523.52-.131.259 0 .519 0 .779.392 1.429 2.356 2.079 2.356 3.638 0 .26 0 .52-.131.65-.262 1.039-.654 1.949-1.047 2.858 0 .13-.131.26-.131.39l.131-.26c-.917 1.949-2.095 3.768-3.404 5.587.131-1.299.262-2.729 0-4.028-.262-1.299-.917-2.728-1.964-3.508-.524-.39-1.44-.779-2.095-.39-.655.26-.916 1.04-.785 1.819.13.65.523 1.3.916 1.819 1.702 2.339 3.666 4.288 2.095 7.146-1.571 2.729-3.928 4.678-5.761 7.147-1.702 2.468-3.273 5.067-4.844 7.795.655-5.847.785-13.772-2.619-17.67-1.44-1.689-4.189-2.339-5.891-.91-.655.52-1.179 1.3-1.44 2.079-2.488 5.717-.655 12.214 1.178 18.06 1.047 3.378 2.095 6.886 2.487 10.395-1.047 2.078-1.963 4.287-2.88 6.366-.524-7.016-3.404-13.902-8.117-19.229-2.357-2.599-5.499-4.938-9.034-4.678-2.75.26-5.237 2.339-6.285 4.938-1.178 2.598-1.047 5.457-.392 8.185 1.702 6.107 6.546 10.784 11.783 14.422 3.011 2.079 5.761 4.288 8.641 6.626-.131 2.859-1.047 5.327-1.571 8.186-.262 1.299-.917 4.158-.524 5.327-1.833-4.548-6.546-13.383-11.783-9.875-.786.52-1.309 1.3-1.571 2.209-1.309 3.638.785 7.536 3.404 10.265 1.702 1.819 5.106 4.157 7.201 7.016v.519l.262-.259c.392.519.654 1.039.916 1.559l-1.178 7.406c-.786-4.938-2.75-9.225-5.761-10.135-.916-.26-1.964.13-2.749.65-1.31.779-2.357 1.949-2.488 3.508-.131 2.079 1.571 3.768 3.011 5.327 4.19 4.807 5.368 10.784 4.714 16.891-.262.909-.393 1.689-.655 2.598l-1.178 3.118c.262-.519.392-.909.654-1.429-2.618 9.225-6.415 17.93-11.783 25.856 7.856-7.796 12.307-18.45 14.926-29.234l1.571-1.169c1.833-1.17 3.927-2.209 5.891-3.248.786-.39 1.702-.91 2.226-1.56 1.309-1.559.786-4.417-1.309-5.067-1.571-.52-3.535 1.17-4.583 2.079-.916.78-1.702 1.689-2.356 2.599l1.178-6.627c1.571-2.338 3.535-4.677 6.284-5.587 1.179-.389 2.488-.649 3.666-1.039 1.048-.39 2.095-.91 3.012-1.559 1.047-.65 1.964-1.559 2.487-2.599.524-1.039.655-2.468 0-3.508-1.047-1.689-3.404-1.949-5.237-1.559-3.797.78-6.677 3.118-8.641 6.237.131-.65.131-1.17.262-1.819.655-2.079 1.178-4.158 1.178-6.237 3.012-2.339 6.547-1.949 9.82-3.508 1.833-.91 3.404-3.248 2.356-4.937-2.618-4.808-8.379-.65-11.39 2.728.785-3.638 1.571-7.146 2.618-10.654.786-.13 1.571-.26 2.357-.13 2.749.13 5.499 1.04 8.248 1.819 3.012.91 6.023 1.429 9.165 1.04 3.011-.39 6.154-1.949 7.725-4.548 1.702-2.598 1.571-6.366-.655-8.445-4.451-4.418-16.889-2.989-22.781-1.3 1.178-2.858 2.488-5.716 3.928-8.445 1.047-2.079 2.357-4.158 3.535-6.107.785-.259 1.702-.389 2.487-.519 2.357-.13 4.583.39 6.809.909 2.225.52 4.582 1.04 6.939.65 1.44-.26 2.88-.78 4.058-1.689 1.048-.78 1.964-1.689 2.226-2.988-.262-1.56-.916-3.249-2.095-4.548zM1352.29 160.022c-2.91-20.872-7.28-41.583-14.24-61.646C1326.57 65.206 1311.19 33.654 1301 0c39.48 61.485 57.12 138.179 62.14 210.181.32 4.045 4.2 22.49-3.08 19.416-6.47-2.751-3.24-23.947-3.72-30.095-.97-13.268-2.27-26.374-4.05-39.48zM1355.26 90.429c-.81.647-2.1.97-3.72 1.294-1.46-13.267-3.08-26.535-4.53-39.641-1.3-11.488-4.7-24.594-3.89-36.082 4.21 19.578 7.77 39.318 11.65 58.896 1.14 5.987 5.18 12.459.49 15.533zM1054.92 212.617c-5.99 1.78-9.06 9.061-7.77 15.21 1.3 6.148 5.99 11.002 11.17 14.4 5.18 3.398 11 5.825 16.34 9.061 5.18 3.074 10.03 7.281 12.3 12.944-4.86-9.385-.81-20.711-4.37-30.419-3.4-9.384-16.5-24.594-27.67-21.196zM1363.18 23.974c-1.61 2.912-2.1 6.31-2.59 9.546a102.382 102.382 0 0 0 1.46 31.39c.65 3.236 1.62 6.795 4.05 9.06 1.94 1.942 4.69 2.913 7.44 3.884 3.88 1.294 7.6 2.589 11.49 3.883.81.324 1.78.486 2.59.162.81-.486.97-1.295 1.29-2.265 3.24-13.754 8.09-36.406 4.37-50.644-3.56-12.944-22.65-18.931-30.1-5.016zM1443.13-59.181c2.59 24.108 5.18 48.217 6.96 72.487 1.13 14.724 2.1 29.448 2.27 44.172 0 10.355-3.4 21.358 3.72 30.58 1.13 1.618 2.75 3.074 4.85 3.236 4.53.324 6.47-5.5 6.8-10.031 3.4-39.318 5.98-78.636 4.69-118.116-.65-19.416-1.62-39.641-5.34-58.734-2.1-10.841-5.34-27.668-10.68-37.214-4.37-7.605-14.4-12.621-22.01-8.252 2.43 22.167 4.86 44.334 7.29 66.339 5.5 50.32 6.14 101.611 8.25 152.417.16 3.721.32 7.766 2.26 11.002 4.21 7.605 14.57 8.576 23.3 8.576.17-34.14 9.55-67.31 13.92-101.126 4.37-33.817 3.24-70.384-15.37-98.861l-30.91 43.525z"/></g><defs><clipPath id="a"><path fill="#fff" d="M0 0h1440v300H0z"/></clipPath></defs></svg>