<svg width="284" height="399" viewBox="0 0 284 399" fill="none" xmlns="http://www.w3.org/2000/svg">
<mask id="path-1-inside-1_330_2492" fill="white">
<path fill-rule="evenodd" clip-rule="evenodd" d="M202.295 0L202.122 10.826L216.968 0H284V83.2711L270.095 117.587H284V303.848L270.602 304.309L284 336.93V399H234.092L214.644 389.341L215.733 399H77.7606L68.3093 386.957L66.0319 399H0V340.769L20.3216 311.714L0 314.482V164.111L10.9367 130.818L0 132.058V0H59.0523L60.9807 14.7216L72.8322 0H202.295Z"/>
</mask>
<path fill-rule="evenodd" clip-rule="evenodd" d="M202.295 0L202.122 10.826L216.968 0H284V83.2711L270.095 117.587H284V303.848L270.602 304.309L284 336.93V399H234.092L214.644 389.341L215.733 399H77.7606L68.3093 386.957L66.0319 399H0V340.769L20.3216 311.714L0 314.482V164.111L10.9367 130.818L0 132.058V0H59.0523L60.9807 14.7216L72.8322 0H202.295Z" fill="url(#paint0_linear_330_2492)"/>
<path d="M202.122 10.826L198.123 10.7622L197.995 18.7865L204.479 14.0579L202.122 10.826ZM202.295 0L206.295 0.0637839L206.359 -4L202.295 -4V0ZM216.968 0V-4H215.665L214.611 -3.23193L216.968 0ZM284 0H288V-4H284V0ZM284 83.2711L287.707 84.7733L288 84.0508V83.2711H284ZM270.095 117.587L266.388 116.084L264.159 121.587H270.095V117.587ZM284 117.587H288V113.587H284V117.587ZM284 303.848L284.137 307.846L288 307.713V303.848H284ZM270.602 304.309L270.464 300.311L264.717 300.509L266.902 305.829L270.602 304.309ZM284 336.93H288V336.141L287.7 335.41L284 336.93ZM284 399V403H288V399H284ZM234.092 399L232.312 402.583L233.153 403H234.092V399ZM214.644 389.341L216.423 385.759L209.846 382.492L210.669 389.79L214.644 389.341ZM215.733 399V403H220.21L219.708 398.552L215.733 399ZM77.7606 399L74.614 401.47L75.8151 403H77.7606V399ZM68.3093 386.957L71.4559 384.488L66.0162 377.556L64.379 386.214L68.3093 386.957ZM66.0319 399V403H69.3463L69.9622 399.743L66.0319 399ZM0 399H-4V403H0V399ZM0 340.769L-3.2778 338.476L-4 339.509V340.769H0ZM20.3216 311.714L23.5994 314.007L28.8376 306.518L19.7819 307.751L20.3216 311.714ZM0 314.482H-4V319.063L0.539708 318.445L0 314.482ZM0 164.111L-3.80021 162.863L-4 163.471V164.111H0ZM10.9367 130.818L14.7369 132.066L16.6836 126.14L10.4858 126.843L10.9367 130.818ZM0 132.058H-4V136.538L0.450886 136.033L0 132.058ZM0 0V-4H-4V0H0ZM59.0523 0L63.0184 -0.519526L62.5625 -4H59.0523V0ZM60.9807 14.7216L57.0145 15.2411L58.2297 24.5175L64.0965 17.2299L60.9807 14.7216ZM72.8322 0V-4H70.9173L69.7164 -2.50836L72.8322 0ZM206.122 10.8898L206.295 0.0637839L198.296 -0.0637839L198.123 10.7622L206.122 10.8898ZM214.611 -3.23193L199.766 7.59408L204.479 14.0579L219.325 3.23193L214.611 -3.23193ZM216.968 4H284V-4H216.968V4ZM280 0V83.2711H288V0H280ZM280.293 81.769L266.388 116.084L273.803 119.089L287.707 84.7733L280.293 81.769ZM270.095 121.587H284V113.587H270.095V121.587ZM280 117.587V303.848H288V117.587H280ZM283.863 299.85L270.464 300.311L270.739 308.307L284.137 307.846L283.863 299.85ZM266.902 305.829L280.3 338.45L287.7 335.41L274.302 302.789L266.902 305.829ZM280 336.93V399H288V336.93H280ZM284 395H234.092V403H284V395ZM235.871 395.417L216.423 385.759L212.865 392.924L232.312 402.583L235.871 395.417ZM210.669 389.79L211.759 399.448L219.708 398.552L218.619 388.893L210.669 389.79ZM215.733 395H77.7606V403H215.733V395ZM80.9073 396.53L71.4559 384.488L65.1626 389.427L74.614 401.47L80.9073 396.53ZM64.379 386.214L62.1015 398.257L69.9622 399.743L72.2396 387.7L64.379 386.214ZM66.0319 395H0V403H66.0319V395ZM4 399V340.769H-4V399H4ZM3.2778 343.061L23.5994 314.007L17.0438 309.422L-3.2778 338.476L3.2778 343.061ZM19.7819 307.751L-0.539708 310.518L0.539708 318.445L20.8613 315.678L19.7819 307.751ZM4 314.482V164.111H-4V314.482H4ZM3.80021 165.359L14.7369 132.066L7.13648 129.569L-3.80021 162.863L3.80021 165.359ZM10.4858 126.843L-0.450886 128.084L0.450886 136.033L11.3876 134.792L10.4858 126.843ZM4 132.058V0H-4V132.058H4ZM0 4H59.0523V-4H0V4ZM55.0861 0.519526L57.0145 15.2411L64.9468 14.2021L63.0184 -0.519526L55.0861 0.519526ZM64.0965 17.2299L75.948 2.50836L69.7164 -2.50836L57.8649 12.2132L64.0965 17.2299ZM72.8322 4H202.295V-4H72.8322V4Z" fill="#6D310C" mask="url(#path-1-inside-1_330_2492)"/>
<defs>
<linearGradient id="paint0_linear_330_2492" x1="142" y1="-30.8429" x2="142" y2="124.613" gradientUnits="userSpaceOnUse">
<stop stop-color="#672B1E"/>
<stop offset="0.1048" stop-color="#C88872"/>
<stop offset="0.2424" stop-color="#AB451A"/>
<stop offset="0.2512" stop-color="#9E4F2C"/>
<stop offset="0.3579" stop-color="#C66E34"/>
<stop offset="0.4693" stop-color="#DB8D48"/>
<stop offset="0.585" stop-color="#EBA557"/>
<stop offset="0.7069" stop-color="#F6B762"/>
<stop offset="0.839" stop-color="#FDC169"/>
<stop offset="1" stop-color="#FFC46B"/>
</linearGradient>
</defs>
</svg>
