<svg width="30" height="30" viewBox="0 0 30 30" fill="none" xmlns="http://www.w3.org/2000/svg">
<g clip-path="url(#clip0_320_1237)">
<path d="M24.2092 1.125C23.2546 1.125 6.84284 1.125 5.79055 1.125L-0.000976562 9.0225L15.0613 28.8743L29.9991 9.02022L24.2092 1.125ZM8.23328 9.89013L12.4769 22.5681L2.85774 9.89013H8.23328ZM10.082 9.89013H19.923L15.0362 24.6913L10.082 9.89013ZM21.7691 9.89013H27.1508L17.5609 22.6362L21.7691 9.89013ZM23.3208 2.87803L27.1774 8.1371H21.7703L20.0447 2.87803H23.3208ZM18.1997 2.87803L19.9253 8.1371H10.0744L11.8 2.87803H18.1997ZM6.67887 2.87803H9.95492L8.2293 8.1371H2.82221L6.67887 2.87803Z" fill="#FCEFDE"/>
</g>
<defs>
<clipPath id="clip0_320_1237">
<rect width="30" height="30" fill="white" transform="translate(-0.000976562)"/>
</clipPath>
</defs>
</svg>
