<svg width="20" height="20" viewBox="0 0 20 20" fill="none" xmlns="http://www.w3.org/2000/svg">
<path d="M4.40637 14.2088C8.75588 15.9407 12.4573 16.2781 16.6518 13.5823C16.6211 13.6294 15.7914 14.8836 13.6094 15.5263C14.0704 16.1691 14.7004 16.9059 14.7004 16.9059C16.0987 16.9059 17.4662 16.4983 18.6493 15.7144C19.5712 15.0873 20.0936 14.0056 19.9861 12.8768C19.8017 10.9485 19.3561 9.06719 18.6647 7.26432C17.7888 4.91271 15.6838 3.28223 13.2407 3.04705C13.0256 3.03137 12.8719 3.03137 12.7797 3.03137L12.5339 3.28219C15.3458 4.09743 16.744 5.36729 16.7747 5.41435C12.457 3.18812 7.35573 3.1568 3.00728 5.32029C3.00728 5.32029 4.39018 3.92499 7.44788 3.18812L7.2635 3C6.94081 3 6.63349 3.03137 6.31085 3.07838C4.05212 3.47031 2.16219 5.05374 1.34781 7.23291C0.640985 9.1142 0.180033 11.0896 0.0110252 13.0963C-0.0811651 14.1623 0.410532 15.2128 1.27099 15.8242C2.40802 16.5924 3.76017 17 5.1277 17C5.1277 17 5.68084 16.2631 6.23403 15.6047C4.15968 14.9776 3.31459 13.7234 3.29922 13.6764L3.68961 13.8797C3.92298 14.0014 4.16224 14.1116 4.40637 14.2088ZM6.81792 12.8455C5.81915 12.8141 5.03551 11.9519 5.06626 10.9171C5.097 9.94513 5.86527 9.16126 6.81792 9.12989C7.81668 9.16126 8.60032 10.0235 8.56958 11.0582C8.52346 12.0303 7.77057 12.8141 6.81792 12.8455ZM13.087 12.8455C12.0882 12.8141 11.3046 11.9519 11.3353 10.9171C11.3661 9.94513 12.1343 9.16126 13.087 9.12989C14.0858 9.16126 14.8694 10.0235 14.8387 11.0582C14.808 12.0303 14.0396 12.8141 13.087 12.8455Z" fill="#81451E"/>
</svg>
