<svg width="666" height="149" viewBox="0 0 666 149" fill="none" xmlns="http://www.w3.org/2000/svg">
<path opacity="0.3" d="M37.0886 149L620.087 138.977L644.81 114.59L8.69043 122.942L37.0886 149Z" fill="url(#paint0_radial_330_2725)"/>
<path d="M21.7199 27.7291L660.846 13.3638V27.7291L651.826 36.081L644.476 44.7671L644.141 65.1458L664.855 64.4776L664.187 90.2016L654.499 97.8854L644.81 104.567V114.589L632.114 127.952L24.0585 135.97L8.69009 122.273L36.7542 119.6L29.7381 87.1949L19.0471 81.1815L2.00816 73.4977L1.00586 57.7961L24.3926 58.1302L21.7199 27.7291Z" fill="#4B4716"/>
<path d="M31.405 13.029L648.481 0L660.843 6.68155V27.7284L644.472 31.4033L644.138 51.782H657.168L665.52 58.4636L664.184 90.2009L644.806 91.2032V114.589L8.35241 122.941L5.67963 109.577L12.3616 101.56L31.071 100.223L27.3959 73.8311L2.67276 74.4993L0 51.1139L7.6842 44.4323H22.7185L20.714 20.0447L31.405 13.029Z" fill="#898625"/>
<path d="M644.138 51.4485C630.774 51.4485 617.41 51.1145 603.712 51.1145C578.321 50.7804 553.598 50.1122 528.206 51.1145C542.573 79.511 492.124 81.8496 474.083 77.1725C440.673 68.4865 503.817 54.4552 512.17 49.4441C472.746 47.7737 433.323 49.11 394.234 48.7759C385.213 48.7759 376.193 48.7759 366.838 48.7759C300.019 49.11 229.524 63.1412 163.039 51.7826C175.735 83.8541 91.2083 74.834 97.2221 61.4709C100.563 54.1212 113.593 58.1301 118.938 54.1212C108.247 44.767 42.0961 47.4396 13.0297 46.4374C4.67733 46.1033 0 51.4485 0 52.4508C1.00229 63.8094 2.67276 74.1658 2.67276 74.1658L27.3959 73.4976L31.071 99.8898L13.3639 100.892L6.01372 107.908L8.35241 122.273L644.806 113.921V90.5356L664.184 89.5334L665.52 57.796L657.168 51.1145L644.138 51.4485Z" fill="#65681D"/>
<path opacity="0.7" d="M640.122 88.1952C632.104 87.5271 573.637 107.572 575.641 94.5427C578.314 78.1729 623.083 83.8522 634.442 77.5047C632.772 75.5003 630.433 74.498 627.76 73.8299C598.694 64.8098 555.93 69.1528 528.868 83.1841C499.802 98.2175 496.126 108.908 462.049 92.2041C451.358 86.8589 433.985 74.164 424.964 72.4936C390.218 66.4802 354.47 93.8745 319.055 90.8678C313.376 66.1461 242.213 107.572 220.831 111.247C241.879 101.224 257.916 84.8544 278.296 72.4936C257.582 73.1617 136.639 105.901 126.616 81.5137C127.284 83.1841 127.284 86.8589 127.952 88.5293C112.918 89.1974 101.224 79.8433 87.1924 76.1684C73.8285 72.8276 60.1306 79.8433 47.1008 77.1707C61.8011 80.5114 96.213 81.1796 104.565 94.8768C114.254 111.247 61.467 106.569 53.7827 105.901C41.7553 105.233 29.3937 103.229 17.3662 102.561C13.3571 102.226 5.67285 109.576 5.67285 109.576C6.67514 117.26 8.34563 122.939 8.67972 122.939C9.68201 122.939 10.6843 122.939 11.6866 122.939C38.0802 122.605 64.1397 122.271 90.5334 121.937C143.321 121.269 196.108 120.601 248.895 119.933C309.701 119.264 370.506 118.262 431.312 117.594C481.426 116.926 531.541 116.258 581.655 115.59C602.703 115.255 623.751 114.921 644.799 114.921C643.797 105.901 644.799 90.1997 644.799 90.1997C643.797 88.8634 642.127 88.1952 640.122 88.1952Z" fill="#55551B"/>
<path opacity="0.56" d="M645.469 84.5216C645.469 88.5305 642.128 91.8713 638.119 91.8713C634.109 91.8713 630.769 88.5305 630.769 84.5216C630.769 80.5126 634.109 77.1719 638.119 77.1719C642.128 77.1719 645.469 80.5126 645.469 84.5216Z" fill="#4B4716"/>
<path opacity="0.56" d="M629.44 99.5552C629.44 101.56 627.77 103.23 625.765 103.23C623.76 103.23 622.09 101.56 622.09 99.5552C622.09 97.5508 623.76 95.8804 625.765 95.8804C627.77 95.8804 629.44 97.5508 629.44 99.5552Z" fill="#4B4716"/>
<path opacity="0.56" d="M639.122 69.4877C642.443 69.4877 645.136 66.7954 645.136 63.4743C645.136 60.1532 642.443 57.4609 639.122 57.4609C635.801 57.4609 633.108 60.1532 633.108 63.4743C633.108 66.7954 635.801 69.4877 639.122 69.4877Z" fill="#4B4716"/>
<path opacity="0.56" d="M36.4116 32.0718C38.8103 32.0718 40.7549 30.1273 40.7549 27.7288C40.7549 25.3302 38.8103 23.3857 36.4116 23.3857C34.0129 23.3857 32.0684 25.3302 32.0684 27.7288C32.0684 30.1273 34.0129 32.0718 36.4116 32.0718Z" fill="#4B4716"/>
<path opacity="0.56" d="M51.4431 29.7333C54.2108 29.7333 56.4545 27.4897 56.4545 24.7221C56.4545 21.9545 54.2108 19.7109 51.4431 19.7109C48.6753 19.7109 46.4316 21.9545 46.4316 24.7221C46.4316 27.4897 48.6753 29.7333 51.4431 29.7333Z" fill="#4B4716"/>
<path opacity="0.56" d="M32.7365 42.7602C34.5816 42.7602 36.0774 41.2644 36.0774 39.4194C36.0774 37.5743 34.5816 36.0786 32.7365 36.0786C30.8913 36.0786 29.3955 37.5743 29.3955 39.4194C29.3955 41.2644 30.8913 42.7602 32.7365 42.7602Z" fill="#4B4716"/>
<path opacity="0.56" d="M47.1101 93.8761C51.5385 93.8761 55.1284 90.2863 55.1284 85.8582C55.1284 81.4301 51.5385 77.8403 47.1101 77.8403C42.6817 77.8403 39.0918 81.4301 39.0918 85.8582C39.0918 90.2863 42.6817 93.8761 47.1101 93.8761Z" fill="#4B4716"/>
<path opacity="0.56" d="M68.1567 100.892C70.5554 100.892 72.5 98.9476 72.5 96.5491C72.5 94.1505 70.5554 92.2061 68.1567 92.2061C65.758 92.2061 63.8135 94.1505 63.8135 96.5491C63.8135 98.9476 65.758 100.892 68.1567 100.892Z" fill="#4B4716"/>
<path d="M30.0724 100.223L13.3676 101.559L6.35156 108.575L31.0747 106.904L30.0724 100.223Z" fill="#BFB530"/>
<path d="M644.145 51.7817V58.4633H665.527L657.174 51.7817H644.145Z" fill="#BFB530"/>
<path d="M22.7185 51.1147L22.0504 44.4331H7.6842L0 51.1147H22.7185Z" fill="#BFB530"/>
<path d="M660.845 6.68155L648.483 0L31.4069 13.029L20.7158 20.0447L660.845 6.68155Z" fill="#BFB530"/>
<path d="M76.5052 41.0914C76.5052 46.7707 71.8279 51.7818 65.8141 51.7818C60.1345 51.7818 55.123 47.1048 55.123 41.0914C55.123 35.412 59.8004 30.4009 65.8141 30.4009C71.8279 30.4009 76.5052 35.078 76.5052 41.0914Z" fill="#BFB530"/>
<path d="M52.4557 53.4527C52.4557 56.4594 50.1171 58.7979 47.1102 58.7979C44.1033 58.7979 41.7646 56.4594 41.7646 53.4527C41.7646 50.446 44.1033 48.1074 47.1102 48.1074C50.1171 48.1074 52.4557 50.446 52.4557 53.4527Z" fill="#BFB530"/>
<path d="M618.747 19.376C618.747 24.053 614.738 28.062 610.061 28.062C605.383 28.062 601.374 24.053 601.374 19.376C601.374 14.6989 605.383 10.6899 610.061 10.6899C615.072 11.024 618.747 14.6989 618.747 19.376Z" fill="#BFB530"/>
<path d="M631.445 24.3896C633.843 24.3896 635.788 22.4452 635.788 20.0466C635.788 17.648 633.843 15.7036 631.445 15.7036C629.046 15.7036 627.102 17.648 627.102 20.0466C627.102 22.4452 629.046 24.3896 631.445 24.3896Z" fill="#BFB530"/>
<path d="M589.352 36.7475C589.352 41.4246 585.342 45.4336 580.665 45.4336C575.988 45.4336 571.979 41.4246 571.979 36.7475C571.979 32.0705 575.988 28.0615 580.665 28.0615C585.342 28.0615 589.352 32.0705 589.352 36.7475Z" fill="#BFB530"/>
<defs>
<radialGradient id="paint0_radial_330_2725" cx="0" cy="0" r="1" gradientUnits="userSpaceOnUse" gradientTransform="translate(326.776 131.797) scale(225.321 225.308)">
<stop stop-color="#AB451A"/>
<stop offset="0.2153" stop-color="#A04019"/>
<stop offset="0.5947" stop-color="#823418"/>
<stop offset="1" stop-color="#5C2316"/>
</radialGradient>
</defs>
</svg>
