<svg width="620" height="133" fill="none" xmlns="http://www.w3.org/2000/svg"><path fill-rule="evenodd" clip-rule="evenodd" d="M147.512 0h69.494l23.786 8.61L235.597 0H339.3l7.812 3.6 2.117-3.6h101.445l3.561 16.323L464.794 0h80.73l-2.844 11.65L562.012 0H620v24.913l-10.227-2.77L620 35.823v53.422l-14.489-.976L620 100.436V133h-47.783l-19.86-9.061-5.282 9.061h-86.616l-3.554-20.377L445.522 133h-95.584l-21.998-15.395L332.335 133h-86.187l-3.872-10.87-5.25 10.87h-82.655l.003-.186-27.599-4.81 4.659 4.996H48.577l-15.832-7.294L36.188 133H0v-30.692l10.223-3.79L0 95.901v-46.62l8.29-28.158-8.29 5.2V0h47.547l4.557 5.574L66.132 0h65.834l-4.358 7.367L147.512 0z" fill="#FCEFDE"/></svg>